<svg xmlns="http://www.w3.org/2000/svg" xmlns:xlink="http://www.w3.org/1999/xlink" viewBox="0 0 32 32"><defs><linearGradient id="a" x1="17.77" y1="15.68" x2="8.74" y2="-1.16" gradientTransform="matrix(1, 0, 0, -1, 0, 34)" gradientUnits="userSpaceOnUse"><stop offset="0" stop-color="#dedede"/><stop offset="1" stop-color="silver"/></linearGradient><linearGradient id="b" x1="18.21" y1="14.02" x2="15.88" y2="18.63" xlink:href="#a"/><linearGradient id="c" x1="13.98" y1="20.67" x2="12.63" y2="20.58" xlink:href="#a"/><linearGradient id="d" x1="18" y1="20.94" x2="19.36" y2="21.03" xlink:href="#a"/></defs><title>account_icon</title><path d="M16,32A16,16,0,1,0,0,16,16,16,0,0,0,16,32Z" style="fill:#f0f0f0"/><path d="M12.33,27.13c.16-1.46.65-6.88-.31-7s-5.24,9-5.24,9,1.17.75,1.57,1c.63.35,1.77.82,1.77.82Z" style="fill:#252525"/><path d="M19.43,31.63,19.61,21l-6.08.42-.31,10.35a17,17,0,0,0,3.16.24A14.43,14.43,0,0,0,19.43,31.63Z" style="fill:#707070"/><path d="M19.39,8.36c2.95,3.71,2.47,8.86,1.69,9.86-1,1.33-6.55.48-8.86.8-.44.06-2-4.8-.11-9.64C13,7,17.62,6.12,19.39,8.36Z" style="fill:#151515"/><path d="M15.9,22.83a6.66,6.66,0,0,1-3.06-2.45,6.31,6.31,0,0,1,1.09-.81c2.11-.79,3-1.09,5.62-.22a11.43,11.43,0,0,1,1.17.58C20.7,20,17.52,23.22,15.9,22.83Z" style="fill:url(#a)"/><path d="M15.57,15.54l2.69,0a.14.14,0,0,1,.13.15l0,3.23a1.49,1.49,0,1,1-3-.1l0-3.09C15.44,15.61,15.49,15.54,15.57,15.54Z" style="fill:url(#b)"/><path d="M12.69,13.42a.68.68,0,1,0,.63-.73A.67.67,0,0,0,12.69,13.42Z" style="fill:url(#c)"/><path d="M15.61,9.07a2.81,2.81,0,0,1,3,2.65l.17,2.59a3.15,3.15,0,0,1-2.89,3c-1.6.12-2.52-1.1-2.63-2.67l-.17-2.58A2.81,2.81,0,0,1,15.61,9.07Z" style="fill:#dedede"/><path d="M13.54,8.16a3.42,3.42,0,0,1,4.25.13c1.8,1.35,1.12,4.17.81,4-1-.66-.91-1.7-1.83-1.67-.74,0-1.81,2.07-4.24,2.57-.19,0-.57-1.3-.5-2A4,4,0,0,1,13.54,8.16Z" style="fill:#151515"/><path d="M15.65,12.82l0,.22a.82.82,0,0,0,.85.8h.21a1,1,0,0,0,.93-1.14.43.43,0,0,0-.45-.42L16,12.35A.44.44,0,0,0,15.65,12.82Zm.14,0a.29.29,0,0,1,.26-.31l1.17-.08a.29.29,0,0,1,.3.28.9.9,0,0,1-.8,1h-.21a.68.68,0,0,1-.7-.65Zm-1.41-.35-1.17.08a.44.44,0,0,0-.39.47,1,1,0,0,0,1.08,1h.2a.83.83,0,0,0,.74-.91v-.22A.43.43,0,0,0,14.38,12.46Zm.32.65a.69.69,0,0,1-.61.75h-.2A.91.91,0,0,1,13,13a.29.29,0,0,1,.26-.31l1.17-.08a.3.3,0,0,1,.3.28Zm.21-.24a.53.53,0,0,1,.66,0,.07.07,0,0,1,0,.09.06.06,0,0,1-.09,0A.41.41,0,0,0,15,13l0,0-.06,0A.08.08,0,0,1,14.91,12.87Z" style="fill:#222"/><path d="M19.33,13a.68.68,0,1,0-.63.73A.68.68,0,0,0,19.33,13Z" style="fill:url(#d)"/><path d="M23.26,30.25c0-1.56,0-8.71-.64-9.41s-4-1.94-4-1.94.7,9.93-.59,13a20.75,20.75,0,0,0,2.67-.57A12.93,12.93,0,0,0,23.26,30.25ZM14.81,32c-1.45-11,.58-13.13.58-13.13s-2.71.73-3.24,1.43c-.85,1.11-1.39,9-1.59,10.8,0,0,1.13.39,1.8.53A19.56,19.56,0,0,0,14.81,32Z" style="fill:#292929"/><path d="M25.76,28.68c-.4-2.13-2-8.64-3.2-8.23s-1,9-1,10.55A19.53,19.53,0,0,0,24,29.88,17.24,17.24,0,0,0,25.76,28.68Z" style="fill:#252525"/></svg>