<svg xmlns="http://www.w3.org/2000/svg" xmlns:xlink="http://www.w3.org/1999/xlink" viewBox="0 0 335 109.73"><defs><clipPath id="a"><rect width="335" height="105" style="fill:none"/></clipPath><linearGradient id="b" x1="6.99" y1="97.45" x2="6.99" y2="90.77" gradientTransform="matrix(1, 0, 0, -1, 0, 106)" gradientUnits="userSpaceOnUse"><stop offset="0" stop-color="#ec6632"/><stop offset="1" stop-color="#ec6632" stop-opacity="0"/></linearGradient><linearGradient id="c" x1="6.99" y1="90.77" x2="6.99" y2="84.93" xlink:href="#b"/><linearGradient id="d" x1="12.42" y1="97.03" x2="12.42" y2="91.19" xlink:href="#b"/><linearGradient id="e" x1="13.67" y1="91.19" x2="13.67" y2="85.34" xlink:href="#b"/><linearGradient id="f" x1="36.99" y1="97.45" x2="36.99" y2="90.77" xlink:href="#b"/><linearGradient id="g" x1="36.99" y1="90.77" x2="36.99" y2="84.93" xlink:href="#b"/><linearGradient id="h" x1="42.42" y1="97.03" x2="42.42" y2="91.19" xlink:href="#b"/><linearGradient id="i" x1="43.67" y1="91.19" x2="43.67" y2="85.34" xlink:href="#b"/><linearGradient id="j" x1="3.34" y1="500" x2="3.34" y2="493.32" gradientTransform="translate(17.65 -485.05)" xlink:href="#b"/><linearGradient id="k" x1="20.99" y1="97.73" x2="20.99" y2="103.57" xlink:href="#b"/><linearGradient id="l" x1="26.42" y1="91.47" x2="26.42" y2="97.31" xlink:href="#b"/><linearGradient id="m" x1="27.67" y1="97.31" x2="27.67" y2="103.16" xlink:href="#b"/><linearGradient id="n" x1="20.99" y1="89.45" x2="20.99" y2="82.77" xlink:href="#b"/><linearGradient id="o" x1="20.99" y1="82.77" x2="20.99" y2="76.93" xlink:href="#b"/><linearGradient id="p" x1="26.42" y1="89.03" x2="26.42" y2="83.19" xlink:href="#b"/><linearGradient id="q" x1="27.67" y1="83.19" x2="27.67" y2="77.34" xlink:href="#b"/><linearGradient id="r" x1="54.49" y1="97.45" x2="54.49" y2="90.77" xlink:href="#b"/><linearGradient id="s" x1="54.49" y1="90.77" x2="54.49" y2="84.93" xlink:href="#b"/><linearGradient id="t" x1="59.92" y1="97.03" x2="59.92" y2="91.19" xlink:href="#b"/><linearGradient id="u" x1="61.17" y1="91.19" x2="61.17" y2="85.34" xlink:href="#b"/><linearGradient id="v" x1="84.49" y1="97.45" x2="84.49" y2="90.77" xlink:href="#b"/><linearGradient id="w" x1="84.49" y1="90.77" x2="84.49" y2="84.93" xlink:href="#b"/><linearGradient id="x" x1="89.92" y1="97.03" x2="89.92" y2="91.19" xlink:href="#b"/><linearGradient id="y" x1="91.17" y1="91.19" x2="91.17" y2="85.34" xlink:href="#b"/><linearGradient id="z" x1="3.34" y1="500" x2="3.34" y2="493.32" gradientTransform="translate(65.15 -485.05)" xlink:href="#b"/><linearGradient id="aa" x1="68.49" y1="97.73" x2="68.49" y2="103.57" xlink:href="#b"/><linearGradient id="ab" x1="73.92" y1="91.47" x2="73.92" y2="97.31" xlink:href="#b"/><linearGradient id="ac" x1="75.17" y1="97.31" x2="75.17" y2="103.16" xlink:href="#b"/><linearGradient id="ad" x1="68.49" y1="89.45" x2="68.49" y2="82.77" xlink:href="#b"/><linearGradient id="ae" x1="68.49" y1="82.77" x2="68.49" y2="76.93" xlink:href="#b"/><linearGradient id="af" x1="73.92" y1="89.03" x2="73.92" y2="83.19" xlink:href="#b"/><linearGradient id="ag" x1="75.17" y1="83.19" x2="75.17" y2="77.34" xlink:href="#b"/><linearGradient id="ah" x1="101.99" y1="97.45" x2="101.99" y2="90.77" xlink:href="#b"/><linearGradient id="ai" x1="101.99" y1="90.77" x2="101.99" y2="84.93" xlink:href="#b"/><linearGradient id="aj" x1="107.42" y1="97.03" x2="107.42" y2="91.19" xlink:href="#b"/><linearGradient id="ak" x1="108.67" y1="91.19" x2="108.67" y2="85.34" xlink:href="#b"/><linearGradient id="al" x1="131.99" y1="97.45" x2="131.99" y2="90.77" xlink:href="#b"/><linearGradient id="am" x1="131.99" y1="90.77" x2="131.99" y2="84.93" xlink:href="#b"/><linearGradient id="an" x1="137.42" y1="97.03" x2="137.42" y2="91.19" xlink:href="#b"/><linearGradient id="ao" x1="138.67" y1="91.19" x2="138.67" y2="85.34" xlink:href="#b"/><linearGradient id="ap" x1="3.34" y1="500" x2="3.34" y2="493.32" gradientTransform="translate(112.65 -485.05)" xlink:href="#b"/><linearGradient id="aq" x1="115.99" y1="97.73" x2="115.99" y2="103.57" xlink:href="#b"/><linearGradient id="ar" x1="121.42" y1="91.47" x2="121.42" y2="97.31" xlink:href="#b"/><linearGradient id="as" x1="122.67" y1="97.31" x2="122.67" y2="103.16" xlink:href="#b"/><linearGradient id="at" x1="115.99" y1="89.45" x2="115.99" y2="82.77" xlink:href="#b"/><linearGradient id="au" x1="115.99" y1="82.77" x2="115.99" y2="76.93" xlink:href="#b"/><linearGradient id="av" x1="121.42" y1="89.03" x2="121.42" y2="83.19" xlink:href="#b"/><linearGradient id="aw" x1="122.67" y1="83.19" x2="122.67" y2="77.34" xlink:href="#b"/><linearGradient id="ax" x1="149.49" y1="97.45" x2="149.49" y2="90.77" xlink:href="#b"/><linearGradient id="ay" x1="149.49" y1="90.77" x2="149.49" y2="84.93" xlink:href="#b"/><linearGradient id="az" x1="154.92" y1="97.03" x2="154.92" y2="91.19" xlink:href="#b"/><linearGradient id="ba" x1="156.17" y1="91.19" x2="156.17" y2="85.34" xlink:href="#b"/><linearGradient id="bb" x1="179.49" y1="97.45" x2="179.49" y2="90.77" xlink:href="#b"/><linearGradient id="bc" x1="179.49" y1="90.77" x2="179.49" y2="84.93" xlink:href="#b"/><linearGradient id="bd" x1="184.92" y1="97.03" x2="184.92" y2="91.19" xlink:href="#b"/><linearGradient id="be" x1="186.17" y1="91.19" x2="186.17" y2="85.34" xlink:href="#b"/><linearGradient id="bf" x1="3.34" y1="500" x2="3.34" y2="493.32" gradientTransform="translate(160.15 -485.05)" xlink:href="#b"/><linearGradient id="bg" x1="163.49" y1="97.73" x2="163.49" y2="103.57" xlink:href="#b"/><linearGradient id="bh" x1="168.92" y1="91.47" x2="168.92" y2="97.31" xlink:href="#b"/><linearGradient id="bi" x1="170.17" y1="97.31" x2="170.17" y2="103.16" xlink:href="#b"/><linearGradient id="bj" x1="163.49" y1="89.45" x2="163.49" y2="82.77" xlink:href="#b"/><linearGradient id="bk" x1="163.49" y1="82.77" x2="163.49" y2="76.93" xlink:href="#b"/><linearGradient id="bl" x1="168.92" y1="89.03" x2="168.92" y2="83.19" xlink:href="#b"/><linearGradient id="bm" x1="170.17" y1="83.19" x2="170.17" y2="77.34" xlink:href="#b"/><linearGradient id="bn" x1="6.99" y1="65.95" x2="6.99" y2="59.27" xlink:href="#b"/><linearGradient id="bo" x1="6.99" y1="59.27" x2="6.99" y2="53.43" xlink:href="#b"/><linearGradient id="bp" x1="12.42" y1="65.53" x2="12.42" y2="59.69" xlink:href="#b"/><linearGradient id="bq" x1="13.67" y1="59.69" x2="13.67" y2="53.84" xlink:href="#b"/><linearGradient id="br" x1="36.99" y1="65.95" x2="36.99" y2="59.27" xlink:href="#b"/><linearGradient id="bs" x1="36.99" y1="59.27" x2="36.99" y2="53.43" xlink:href="#b"/><linearGradient id="bt" x1="42.42" y1="65.53" x2="42.42" y2="59.69" xlink:href="#b"/><linearGradient id="bu" x1="43.67" y1="59.69" x2="43.67" y2="53.84" xlink:href="#b"/><linearGradient id="bv" x1="3.34" y1="500" x2="3.34" y2="493.32" gradientTransform="translate(17.65 -453.55)" xlink:href="#b"/><linearGradient id="bw" x1="20.99" y1="66.23" x2="20.99" y2="72.07" xlink:href="#b"/><linearGradient id="bx" x1="26.42" y1="59.97" x2="26.42" y2="65.81" xlink:href="#b"/><linearGradient id="by" x1="27.67" y1="65.81" x2="27.67" y2="71.66" xlink:href="#b"/><linearGradient id="bz" x1="20.99" y1="57.95" x2="20.99" y2="51.27" xlink:href="#b"/><linearGradient id="ca" x1="20.99" y1="51.27" x2="20.99" y2="45.43" xlink:href="#b"/><linearGradient id="cb" x1="26.42" y1="57.53" x2="26.42" y2="51.69" xlink:href="#b"/><linearGradient id="cc" x1="27.67" y1="51.69" x2="27.67" y2="45.84" xlink:href="#b"/><linearGradient id="cd" x1="57.49" y1="65.95" x2="57.49" y2="59.27" xlink:href="#b"/><linearGradient id="ce" x1="57.49" y1="59.27" x2="57.49" y2="53.43" xlink:href="#b"/><linearGradient id="cf" x1="62.92" y1="65.53" x2="62.92" y2="59.69" xlink:href="#b"/><linearGradient id="cg" x1="64.17" y1="59.69" x2="64.17" y2="53.84" xlink:href="#b"/><linearGradient id="ch" x1="87.49" y1="65.95" x2="87.49" y2="59.27" xlink:href="#b"/><linearGradient id="ci" x1="87.49" y1="59.27" x2="87.49" y2="53.43" xlink:href="#b"/><linearGradient id="cj" x1="92.92" y1="65.53" x2="92.92" y2="59.69" xlink:href="#b"/><linearGradient id="ck" x1="94.17" y1="59.69" x2="94.17" y2="53.84" xlink:href="#b"/><linearGradient id="cl" x1="3.34" y1="500" x2="3.34" y2="493.32" gradientTransform="translate(68.15 -453.55)" xlink:href="#b"/><linearGradient id="cm" x1="71.49" y1="66.23" x2="71.49" y2="72.07" xlink:href="#b"/><linearGradient id="cn" x1="76.92" y1="59.97" x2="76.92" y2="65.81" xlink:href="#b"/><linearGradient id="co" x1="78.17" y1="65.81" x2="78.17" y2="71.66" xlink:href="#b"/><linearGradient id="cp" x1="71.49" y1="57.95" x2="71.49" y2="51.27" xlink:href="#b"/><linearGradient id="cq" x1="71.49" y1="51.27" x2="71.49" y2="45.43" xlink:href="#b"/><linearGradient id="cr" x1="76.92" y1="57.53" x2="76.92" y2="51.69" xlink:href="#b"/><linearGradient id="cs" x1="78.17" y1="51.69" x2="78.17" y2="45.84" xlink:href="#b"/><linearGradient id="ct" x1="107.99" y1="65.95" x2="107.99" y2="59.27" xlink:href="#b"/><linearGradient id="cu" x1="107.99" y1="59.27" x2="107.99" y2="53.43" xlink:href="#b"/><linearGradient id="cv" x1="113.42" y1="65.53" x2="113.42" y2="59.69" xlink:href="#b"/><linearGradient id="cw" x1="114.67" y1="59.69" x2="114.67" y2="53.84" xlink:href="#b"/><linearGradient id="cx" x1="137.99" y1="65.95" x2="137.99" y2="59.27" xlink:href="#b"/><linearGradient id="cy" x1="137.99" y1="59.27" x2="137.99" y2="53.43" xlink:href="#b"/><linearGradient id="cz" x1="143.42" y1="65.53" x2="143.42" y2="59.69" xlink:href="#b"/><linearGradient id="da" x1="144.67" y1="59.69" x2="144.67" y2="53.84" xlink:href="#b"/><linearGradient id="db" x1="3.34" y1="500" x2="3.34" y2="493.32" gradientTransform="translate(118.65 -453.55)" xlink:href="#b"/><linearGradient id="dc" x1="121.99" y1="66.23" x2="121.99" y2="72.07" xlink:href="#b"/><linearGradient id="dd" x1="127.42" y1="59.97" x2="127.42" y2="65.81" xlink:href="#b"/><linearGradient id="de" x1="128.67" y1="65.81" x2="128.67" y2="71.66" xlink:href="#b"/><linearGradient id="df" x1="121.99" y1="57.95" x2="121.99" y2="51.27" xlink:href="#b"/><linearGradient id="dg" x1="121.99" y1="51.27" x2="121.99" y2="45.43" xlink:href="#b"/><linearGradient id="dh" x1="127.42" y1="57.53" x2="127.42" y2="51.69" xlink:href="#b"/><linearGradient id="di" x1="128.67" y1="51.69" x2="128.67" y2="45.84" xlink:href="#b"/><linearGradient id="dj" x1="158.49" y1="65.95" x2="158.49" y2="59.27" xlink:href="#b"/><linearGradient id="dk" x1="158.49" y1="59.27" x2="158.49" y2="53.43" xlink:href="#b"/><linearGradient id="dl" x1="163.92" y1="65.53" x2="163.92" y2="59.69" xlink:href="#b"/><linearGradient id="dm" x1="165.17" y1="59.69" x2="165.17" y2="53.84" xlink:href="#b"/><linearGradient id="dn" x1="188.49" y1="65.95" x2="188.49" y2="59.27" xlink:href="#b"/><linearGradient id="do" x1="188.49" y1="59.27" x2="188.49" y2="53.43" xlink:href="#b"/><linearGradient id="dp" x1="193.92" y1="65.53" x2="193.92" y2="59.69" xlink:href="#b"/><linearGradient id="dq" x1="195.17" y1="59.69" x2="195.17" y2="53.84" xlink:href="#b"/><linearGradient id="dr" x1="3.34" y1="500" x2="3.34" y2="493.32" gradientTransform="translate(169.15 -453.55)" xlink:href="#b"/><linearGradient id="ds" x1="172.49" y1="66.23" x2="172.49" y2="72.07" xlink:href="#b"/><linearGradient id="dt" x1="177.92" y1="59.97" x2="177.92" y2="65.81" xlink:href="#b"/><linearGradient id="du" x1="179.17" y1="65.81" x2="179.17" y2="71.66" xlink:href="#b"/><linearGradient id="dv" x1="172.49" y1="57.95" x2="172.49" y2="51.27" xlink:href="#b"/><linearGradient id="dw" x1="172.49" y1="51.27" x2="172.49" y2="45.43" xlink:href="#b"/><linearGradient id="dx" x1="177.92" y1="57.53" x2="177.92" y2="51.69" xlink:href="#b"/><linearGradient id="dy" x1="179.17" y1="51.69" x2="179.17" y2="45.84" xlink:href="#b"/><linearGradient id="dz" x1="6.99" y1="34.45" x2="6.99" y2="27.77" xlink:href="#b"/><linearGradient id="ea" x1="6.99" y1="27.77" x2="6.99" y2="21.93" xlink:href="#b"/><linearGradient id="eb" x1="12.42" y1="34.03" x2="12.42" y2="28.19" xlink:href="#b"/><linearGradient id="ec" x1="13.67" y1="28.19" x2="13.67" y2="22.34" xlink:href="#b"/><linearGradient id="ed" x1="36.99" y1="34.45" x2="36.99" y2="27.77" xlink:href="#b"/><linearGradient id="ee" x1="36.99" y1="27.77" x2="36.99" y2="21.93" xlink:href="#b"/><linearGradient id="ef" x1="42.42" y1="34.03" x2="42.42" y2="28.19" xlink:href="#b"/><linearGradient id="eg" x1="43.67" y1="28.19" x2="43.67" y2="22.34" xlink:href="#b"/><linearGradient id="eh" x1="3.34" y1="500" x2="3.34" y2="493.32" gradientTransform="translate(17.65 -422.05)" xlink:href="#b"/><linearGradient id="ei" x1="20.99" y1="34.73" x2="20.99" y2="40.57" xlink:href="#b"/><linearGradient id="ej" x1="26.42" y1="28.47" x2="26.42" y2="34.31" xlink:href="#b"/><linearGradient id="ek" x1="27.67" y1="34.31" x2="27.67" y2="40.16" xlink:href="#b"/><linearGradient id="el" x1="20.99" y1="26.45" x2="20.99" y2="19.77" xlink:href="#b"/><linearGradient id="em" x1="20.99" y1="19.77" x2="20.99" y2="13.93" xlink:href="#b"/><linearGradient id="en" x1="26.42" y1="26.03" x2="26.42" y2="20.19" xlink:href="#b"/><linearGradient id="eo" x1="27.67" y1="20.19" x2="27.67" y2="14.34" xlink:href="#b"/><linearGradient id="ep" x1="57.49" y1="34.45" x2="57.49" y2="27.77" xlink:href="#b"/><linearGradient id="eq" x1="57.49" y1="27.77" x2="57.49" y2="21.93" xlink:href="#b"/><linearGradient id="er" x1="62.92" y1="34.03" x2="62.92" y2="28.19" xlink:href="#b"/><linearGradient id="es" x1="64.17" y1="28.19" x2="64.17" y2="22.34" xlink:href="#b"/><linearGradient id="et" x1="87.49" y1="34.45" x2="87.49" y2="27.77" xlink:href="#b"/><linearGradient id="eu" x1="87.49" y1="27.77" x2="87.49" y2="21.93" xlink:href="#b"/><linearGradient id="ev" x1="92.92" y1="34.03" x2="92.92" y2="28.19" xlink:href="#b"/><linearGradient id="ew" x1="94.17" y1="28.19" x2="94.17" y2="22.34" xlink:href="#b"/><linearGradient id="ex" x1="3.34" y1="500" x2="3.34" y2="493.32" gradientTransform="translate(68.15 -422.05)" xlink:href="#b"/><linearGradient id="ey" x1="71.49" y1="34.73" x2="71.49" y2="40.57" xlink:href="#b"/><linearGradient id="ez" x1="76.92" y1="28.47" x2="76.92" y2="34.31" xlink:href="#b"/><linearGradient id="fa" x1="78.17" y1="34.31" x2="78.17" y2="40.16" xlink:href="#b"/><linearGradient id="fb" x1="71.49" y1="26.45" x2="71.49" y2="19.77" xlink:href="#b"/><linearGradient id="fc" x1="71.49" y1="19.77" x2="71.49" y2="13.93" xlink:href="#b"/><linearGradient id="fd" x1="76.92" y1="26.03" x2="76.92" y2="20.19" xlink:href="#b"/><linearGradient id="fe" x1="78.17" y1="20.19" x2="78.17" y2="14.34" xlink:href="#b"/><linearGradient id="ff" x1="107.99" y1="34.45" x2="107.99" y2="27.77" xlink:href="#b"/><linearGradient id="fg" x1="107.99" y1="27.77" x2="107.99" y2="21.93" xlink:href="#b"/><linearGradient id="fh" x1="113.42" y1="34.03" x2="113.42" y2="28.19" xlink:href="#b"/><linearGradient id="fi" x1="114.67" y1="28.19" x2="114.67" y2="22.34" xlink:href="#b"/><linearGradient id="fj" x1="137.99" y1="34.45" x2="137.99" y2="27.77" xlink:href="#b"/><linearGradient id="fk" x1="137.99" y1="27.77" x2="137.99" y2="21.93" xlink:href="#b"/><linearGradient id="fl" x1="143.42" y1="34.03" x2="143.42" y2="28.19" xlink:href="#b"/><linearGradient id="fm" x1="144.67" y1="28.19" x2="144.67" y2="22.34" xlink:href="#b"/><linearGradient id="fn" x1="3.34" y1="500" x2="3.34" y2="493.32" gradientTransform="translate(118.65 -422.05)" xlink:href="#b"/><linearGradient id="fo" x1="121.99" y1="34.73" x2="121.99" y2="40.57" xlink:href="#b"/><linearGradient id="fp" x1="127.42" y1="28.47" x2="127.42" y2="34.31" xlink:href="#b"/><linearGradient id="fq" x1="128.67" y1="34.31" x2="128.67" y2="40.16" xlink:href="#b"/><linearGradient id="fr" x1="121.99" y1="26.45" x2="121.99" y2="19.77" xlink:href="#b"/><linearGradient id="fs" x1="121.99" y1="19.77" x2="121.99" y2="13.93" xlink:href="#b"/><linearGradient id="ft" x1="127.42" y1="26.03" x2="127.42" y2="20.19" xlink:href="#b"/><linearGradient id="fu" x1="128.67" y1="20.19" x2="128.67" y2="14.34" xlink:href="#b"/><linearGradient id="fv" x1="158.49" y1="34.45" x2="158.49" y2="27.77" xlink:href="#b"/><linearGradient id="fw" x1="158.49" y1="27.77" x2="158.49" y2="21.93" xlink:href="#b"/><linearGradient id="fx" x1="163.92" y1="34.03" x2="163.92" y2="28.19" xlink:href="#b"/><linearGradient id="fy" x1="165.17" y1="28.19" x2="165.17" y2="22.34" xlink:href="#b"/><linearGradient id="fz" x1="188.49" y1="34.45" x2="188.49" y2="27.77" xlink:href="#b"/><linearGradient id="ga" x1="188.49" y1="27.77" x2="188.49" y2="21.93" xlink:href="#b"/><linearGradient id="gb" x1="193.92" y1="34.03" x2="193.92" y2="28.19" xlink:href="#b"/><linearGradient id="gc" x1="195.17" y1="28.19" x2="195.17" y2="22.34" xlink:href="#b"/><linearGradient id="gd" x1="3.34" y1="500" x2="3.34" y2="493.32" gradientTransform="translate(169.15 -422.05)" xlink:href="#b"/><linearGradient id="ge" x1="172.49" y1="34.73" x2="172.49" y2="40.57" xlink:href="#b"/><linearGradient id="gf" x1="177.92" y1="28.47" x2="177.92" y2="34.31" xlink:href="#b"/><linearGradient id="gg" x1="179.17" y1="34.31" x2="179.17" y2="40.16" xlink:href="#b"/><linearGradient id="gh" x1="172.49" y1="26.45" x2="172.49" y2="19.77" xlink:href="#b"/><linearGradient id="gi" x1="172.49" y1="19.77" x2="172.49" y2="13.93" xlink:href="#b"/><linearGradient id="gj" x1="177.92" y1="26.03" x2="177.92" y2="20.19" xlink:href="#b"/><linearGradient id="gk" x1="179.17" y1="20.19" x2="179.17" y2="14.34" xlink:href="#b"/><linearGradient id="gl" x1="6.99" y1="2.95" x2="6.99" y2="-3.73" xlink:href="#b"/><linearGradient id="gm" x1="12.42" y1="2.53" x2="12.42" y2="-3.31" xlink:href="#b"/><linearGradient id="gn" x1="36.99" y1="2.95" x2="36.99" y2="-3.73" xlink:href="#b"/><linearGradient id="go" x1="42.42" y1="2.53" x2="42.42" y2="-3.31" xlink:href="#b"/><linearGradient id="gp" x1="3.34" y1="500" x2="3.34" y2="493.32" gradientTransform="translate(17.65 -390.55)" xlink:href="#b"/><linearGradient id="gq" x1="20.99" y1="3.23" x2="20.99" y2="9.07" xlink:href="#b"/><linearGradient id="gr" x1="26.42" y1="-3.03" x2="26.42" y2="2.81" xlink:href="#b"/><linearGradient id="gs" x1="27.67" y1="2.81" x2="27.67" y2="8.66" xlink:href="#b"/><linearGradient id="gt" x1="57.49" y1="2.95" x2="57.49" y2="-3.73" xlink:href="#b"/><linearGradient id="gu" x1="62.92" y1="2.53" x2="62.92" y2="-3.31" xlink:href="#b"/><linearGradient id="gv" x1="87.49" y1="2.95" x2="87.49" y2="-3.73" xlink:href="#b"/><linearGradient id="gw" x1="92.92" y1="2.53" x2="92.92" y2="-3.31" xlink:href="#b"/><linearGradient id="gx" x1="3.34" y1="500" x2="3.34" y2="493.32" gradientTransform="translate(68.15 -390.55)" xlink:href="#b"/><linearGradient id="gy" x1="71.49" y1="3.23" x2="71.49" y2="9.07" xlink:href="#b"/><linearGradient id="gz" x1="76.92" y1="-3.03" x2="76.92" y2="2.81" xlink:href="#b"/><linearGradient id="ha" x1="78.17" y1="2.81" x2="78.17" y2="8.66" xlink:href="#b"/><linearGradient id="hb" x1="107.99" y1="2.95" x2="107.99" y2="-3.73" xlink:href="#b"/><linearGradient id="hc" x1="113.42" y1="2.53" x2="113.42" y2="-3.31" xlink:href="#b"/><linearGradient id="hd" x1="137.99" y1="2.95" x2="137.99" y2="-3.73" xlink:href="#b"/><linearGradient id="he" x1="143.42" y1="2.53" x2="143.42" y2="-3.31" xlink:href="#b"/><linearGradient id="hf" x1="3.34" y1="500" x2="3.34" y2="493.32" gradientTransform="translate(118.65 -390.55)" xlink:href="#b"/><linearGradient id="hg" x1="121.99" y1="3.23" x2="121.99" y2="9.07" xlink:href="#b"/><linearGradient id="hh" x1="127.42" y1="-3.03" x2="127.42" y2="2.81" xlink:href="#b"/><linearGradient id="hi" x1="128.67" y1="2.81" x2="128.67" y2="8.66" xlink:href="#b"/><linearGradient id="hj" x1="158.49" y1="2.95" x2="158.49" y2="-3.73" xlink:href="#b"/><linearGradient id="hk" x1="163.92" y1="2.53" x2="163.92" y2="-3.31" xlink:href="#b"/><linearGradient id="hl" x1="188.49" y1="2.95" x2="188.49" y2="-3.73" xlink:href="#b"/><linearGradient id="hm" x1="193.92" y1="2.53" x2="193.92" y2="-3.31" xlink:href="#b"/><linearGradient id="hn" x1="3.34" y1="500" x2="3.34" y2="493.32" gradientTransform="translate(169.15 -390.55)" xlink:href="#b"/><linearGradient id="ho" x1="172.49" y1="3.23" x2="172.49" y2="9.07" xlink:href="#b"/><linearGradient id="hp" x1="177.92" y1="-3.03" x2="177.92" y2="2.81" xlink:href="#b"/><linearGradient id="hq" x1="179.17" y1="2.81" x2="179.17" y2="8.66" xlink:href="#b"/></defs><title>diary_frame</title><g style="clip-path:url(#a)"><rect width="335" height="105" rx="6" style="fill:#ee7444"/><path d="M313.28,19.12h0a1.92,1.92,0,0,1,1.46,1.94V78h0a2.05,2.05,0,0,1-.63,1.51h0a1.55,1.55,0,0,1-1.4.42h0a44.88,44.88,0,0,0-8.16-.81h0c-10.23,0-20.23,2.57-28.54,9.25h0a1.66,1.66,0,0,1-1,.36h0a1.66,1.66,0,0,1-1-.36h0c-8.31-6.68-18.31-9.26-28.54-9.25h0a44.88,44.88,0,0,0-8.16.81h0a1.56,1.56,0,0,1-1.4-.43h0a2.05,2.05,0,0,1-.63-1.51h0V21.06h0a1.92,1.92,0,0,1,1.46-1.94h0a47.41,47.41,0,0,1,8.73-.87,48.44,48.44,0,0,1,29.4,10.08l.15.12.15-.12A47.43,47.43,0,0,1,313.28,19.12ZM273.83,88.58a1.84,1.84,0,0,0,2.34,0c8.25-6.64,18.19-9.21,28.38-9.2Zm-1-5.7.39.27V31.9l-.1-.07a45.28,45.28,0,0,0-27.7-9.64h0a41.45,41.45,0,0,0-6.48.53l-.21,0v53l.29,0a45.75,45.75,0,0,1,6.41-.48C255.17,75.18,264.65,77.23,272.86,82.88ZM311,75.67l.29,0v-53l-.21,0a41.45,41.45,0,0,0-6.48-.53h0a45.28,45.28,0,0,0-27.7,9.64l-.1.07V83.15l.39-.27c8.21-5.65,17.69-7.7,27.41-7.69A45.75,45.75,0,0,1,311,75.67Z" style="fill:#fdbb96;stroke:#ee7444;stroke-width:0.5px"/><line x1="248" y1="34" x2="257" y2="34" style="fill:none;stroke:#fdbb96;stroke-linecap:round;stroke-width:2px"/><line x1="248" y1="41" x2="261" y2="41" style="fill:none;stroke:#fdbb96;stroke-linecap:round;stroke-width:2px"/><line x1="248" y1="48" x2="261" y2="48" style="fill:none;stroke:#fdbb96;stroke-linecap:round;stroke-width:2px"/><g style="opacity:0.20000000298023224"><circle cx="6.99" cy="11.89" r="2.97" style="fill:none;stroke-width:0.7291669845581055px;stroke:url(#b)"/><path d="M13.25,21.07c0-2.76-2.8-5.84-6.26-5.84S.73,18.31.73,21.07" style="fill:none;stroke-linecap:round;stroke-width:0.7291669845581055px;stroke:url(#c)"/><path d="M10.75,14.81a3.16,3.16,0,0,0,3.34-2.92A3.16,3.16,0,0,0,10.75,9" style="fill:none;stroke-linecap:round;stroke-width:0.7291669845581055px;stroke:url(#d)"/><path d="M16.59,20.66a6.17,6.17,0,0,0-5.84-5.85" style="fill:none;stroke-linecap:round;stroke-width:0.7291669845581055px;stroke:url(#e)"/></g><g style="opacity:0.20000000298023224"><circle cx="36.99" cy="11.89" r="2.97" style="fill:none;stroke-width:0.7291669845581055px;stroke:url(#f)"/><path d="M43.25,21.07c0-2.76-2.8-5.84-6.26-5.84s-6.26,3.08-6.26,5.84" style="fill:none;stroke-linecap:round;stroke-width:0.7291669845581055px;stroke:url(#g)"/><path d="M40.75,14.81a3.16,3.16,0,0,0,3.34-2.92A3.16,3.16,0,0,0,40.75,9" style="fill:none;stroke-linecap:round;stroke-width:0.7291669845581055px;stroke:url(#h)"/><path d="M46.59,20.66a6.17,6.17,0,0,0-5.84-5.85" style="fill:none;stroke-linecap:round;stroke-width:0.7291669845581055px;stroke:url(#i)"/></g><g style="opacity:0.20000000298023224"><circle cx="20.99" cy="11.61" r="2.97" style="fill:none;stroke-width:0.7291669845581055px;stroke:url(#j)"/><path d="M27.25,2.43c0,2.76-2.8,5.84-6.26,5.84s-6.26-3.08-6.26-5.84" style="fill:none;stroke-linecap:round;stroke-width:0.7291669845581055px;stroke:url(#k)"/><path d="M24.75,8.69a3.16,3.16,0,0,1,3.34,2.92,3.16,3.16,0,0,1-3.34,2.92" style="fill:none;stroke-linecap:round;stroke-width:0.7291669845581055px;stroke:url(#l)"/><path d="M30.59,2.84a6.17,6.17,0,0,1-5.84,5.85" style="fill:none;stroke-linecap:round;stroke-width:0.7291669845581055px;stroke:url(#m)"/></g><g style="opacity:0.20000000298023224"><circle cx="20.99" cy="19.89" r="2.97" style="fill:none;stroke-width:0.7291669845581055px;stroke:url(#n)"/><path d="M27.25,29.07c0-2.76-2.8-5.84-6.26-5.84s-6.26,3.08-6.26,5.84" style="fill:none;stroke-linecap:round;stroke-width:0.7291669845581055px;stroke:url(#o)"/><path d="M24.75,22.81a3.16,3.16,0,0,0,3.34-2.92A3.16,3.16,0,0,0,24.75,17" style="fill:none;stroke-linecap:round;stroke-width:0.7291669845581055px;stroke:url(#p)"/><path d="M30.59,28.66a6.17,6.17,0,0,0-5.84-5.85" style="fill:none;stroke-linecap:round;stroke-width:0.7291669845581055px;stroke:url(#q)"/></g><g style="opacity:0.20000000298023224"><circle cx="54.49" cy="11.89" r="2.97" style="fill:none;stroke-width:0.7291669845581055px;stroke:url(#r)"/><path d="M60.75,21.07c0-2.76-2.8-5.84-6.26-5.84s-6.26,3.08-6.26,5.84" style="fill:none;stroke-linecap:round;stroke-width:0.7291669845581055px;stroke:url(#s)"/><path d="M58.25,14.81a3.16,3.16,0,0,0,3.34-2.92A3.16,3.16,0,0,0,58.25,9" style="fill:none;stroke-linecap:round;stroke-width:0.7291669845581055px;stroke:url(#t)"/><path d="M64.09,20.66a6.17,6.17,0,0,0-5.84-5.85" style="fill:none;stroke-linecap:round;stroke-width:0.7291669845581055px;stroke:url(#u)"/></g><g style="opacity:0.20000000298023224"><circle cx="84.49" cy="11.89" r="2.97" style="fill:none;stroke-width:0.7291669845581055px;stroke:url(#v)"/><path d="M90.75,21.07c0-2.76-2.8-5.84-6.26-5.84s-6.26,3.08-6.26,5.84" style="fill:none;stroke-linecap:round;stroke-width:0.7291669845581055px;stroke:url(#w)"/><path d="M88.25,14.81a3.16,3.16,0,0,0,3.34-2.92A3.16,3.16,0,0,0,88.25,9" style="fill:none;stroke-linecap:round;stroke-width:0.7291669845581055px;stroke:url(#x)"/><path d="M94.09,20.66a6.17,6.17,0,0,0-5.84-5.85" style="fill:none;stroke-linecap:round;stroke-width:0.7291669845581055px;stroke:url(#y)"/></g><g style="opacity:0.20000000298023224"><circle cx="68.49" cy="11.61" r="2.97" style="fill:none;stroke-width:0.7291669845581055px;stroke:url(#z)"/><path d="M74.75,2.43c0,2.76-2.8,5.84-6.26,5.84s-6.26-3.08-6.26-5.84" style="fill:none;stroke-linecap:round;stroke-width:0.7291669845581055px;stroke:url(#aa)"/><path d="M72.25,8.69a3.16,3.16,0,0,1,3.34,2.92,3.16,3.16,0,0,1-3.34,2.92" style="fill:none;stroke-linecap:round;stroke-width:0.7291669845581055px;stroke:url(#ab)"/><path d="M78.09,2.84a6.17,6.17,0,0,1-5.84,5.85" style="fill:none;stroke-linecap:round;stroke-width:0.7291669845581055px;stroke:url(#ac)"/></g><g style="opacity:0.20000000298023224"><circle cx="68.49" cy="19.89" r="2.97" style="fill:none;stroke-width:0.7291669845581055px;stroke:url(#ad)"/><path d="M74.75,29.07c0-2.76-2.8-5.84-6.26-5.84s-6.26,3.08-6.26,5.84" style="fill:none;stroke-linecap:round;stroke-width:0.7291669845581055px;stroke:url(#ae)"/><path d="M72.25,22.81a3.16,3.16,0,0,0,3.34-2.92A3.16,3.16,0,0,0,72.25,17" style="fill:none;stroke-linecap:round;stroke-width:0.7291669845581055px;stroke:url(#af)"/><path d="M78.09,28.66a6.17,6.17,0,0,0-5.84-5.85" style="fill:none;stroke-linecap:round;stroke-width:0.7291669845581055px;stroke:url(#ag)"/></g><g style="opacity:0.20000000298023224"><circle cx="101.99" cy="11.89" r="2.97" style="fill:none;stroke-width:0.7291669845581055px;stroke:url(#ah)"/><path d="M108.25,21.07c0-2.76-2.8-5.84-6.26-5.84s-6.26,3.08-6.26,5.84" style="fill:none;stroke-linecap:round;stroke-width:0.7291669845581055px;stroke:url(#ai)"/><path d="M105.75,14.81a3.15,3.15,0,0,0,3.33-2.92A3.15,3.15,0,0,0,105.75,9" style="fill:none;stroke-linecap:round;stroke-width:0.7291669845581055px;stroke:url(#aj)"/><path d="M111.59,20.66a6.17,6.17,0,0,0-5.84-5.85" style="fill:none;stroke-linecap:round;stroke-width:0.7291669845581055px;stroke:url(#ak)"/></g><g style="opacity:0.20000000298023224"><circle cx="131.99" cy="11.89" r="2.97" style="fill:none;stroke-width:0.7291669845581055px;stroke:url(#al)"/><path d="M138.25,21.07c0-2.76-2.8-5.84-6.26-5.84s-6.26,3.08-6.26,5.84" style="fill:none;stroke-linecap:round;stroke-width:0.7291669845581055px;stroke:url(#am)"/><path d="M135.75,14.81a3.16,3.16,0,0,0,3.34-2.92A3.16,3.16,0,0,0,135.75,9" style="fill:none;stroke-linecap:round;stroke-width:0.7291669845581055px;stroke:url(#an)"/><path d="M141.59,20.66a6.17,6.17,0,0,0-5.84-5.85" style="fill:none;stroke-linecap:round;stroke-width:0.7291669845581055px;stroke:url(#ao)"/></g><g style="opacity:0.20000000298023224"><circle cx="115.99" cy="11.61" r="2.97" style="fill:none;stroke-width:0.7291669845581055px;stroke:url(#ap)"/><path d="M122.25,2.43c0,2.76-2.8,5.84-6.26,5.84s-6.26-3.08-6.26-5.84" style="fill:none;stroke-linecap:round;stroke-width:0.7291669845581055px;stroke:url(#aq)"/><path d="M119.75,8.69a3.15,3.15,0,0,1,3.33,2.92,3.15,3.15,0,0,1-3.33,2.92" style="fill:none;stroke-linecap:round;stroke-width:0.7291669845581055px;stroke:url(#ar)"/><path d="M125.59,2.84a6.17,6.17,0,0,1-5.84,5.85" style="fill:none;stroke-linecap:round;stroke-width:0.7291669845581055px;stroke:url(#as)"/></g><g style="opacity:0.20000000298023224"><circle cx="115.99" cy="19.89" r="2.97" style="fill:none;stroke-width:0.7291669845581055px;stroke:url(#at)"/><path d="M122.25,29.07c0-2.76-2.8-5.84-6.26-5.84s-6.26,3.08-6.26,5.84" style="fill:none;stroke-linecap:round;stroke-width:0.7291669845581055px;stroke:url(#au)"/><path d="M119.75,22.81a3.15,3.15,0,0,0,3.33-2.92A3.15,3.15,0,0,0,119.75,17" style="fill:none;stroke-linecap:round;stroke-width:0.7291669845581055px;stroke:url(#av)"/><path d="M125.59,28.66a6.17,6.17,0,0,0-5.84-5.85" style="fill:none;stroke-linecap:round;stroke-width:0.7291669845581055px;stroke:url(#aw)"/></g><g style="opacity:0.20000000298023224"><circle cx="149.49" cy="11.89" r="2.97" style="fill:none;stroke-width:0.7291669845581055px;stroke:url(#ax)"/><path d="M155.75,21.07c0-2.76-2.8-5.84-6.26-5.84s-6.26,3.08-6.26,5.84" style="fill:none;stroke-linecap:round;stroke-width:0.7291669845581055px;stroke:url(#ay)"/><path d="M153.25,14.81a3.16,3.16,0,0,0,3.34-2.92A3.16,3.16,0,0,0,153.25,9" style="fill:none;stroke-linecap:round;stroke-width:0.7291669845581055px;stroke:url(#az)"/><path d="M159.09,20.66a6.17,6.17,0,0,0-5.84-5.85" style="fill:none;stroke-linecap:round;stroke-width:0.7291669845581055px;stroke:url(#ba)"/></g><g style="opacity:0.20000000298023224"><circle cx="179.49" cy="11.89" r="2.97" style="fill:none;stroke-width:0.7291669845581055px;stroke:url(#bb)"/><path d="M185.75,21.07c0-2.76-2.8-5.84-6.26-5.84s-6.26,3.08-6.26,5.84" style="fill:none;stroke-linecap:round;stroke-width:0.7291669845581055px;stroke:url(#bc)"/><path d="M183.25,14.81a3.16,3.16,0,0,0,3.34-2.92A3.16,3.16,0,0,0,183.25,9" style="fill:none;stroke-linecap:round;stroke-width:0.7291669845581055px;stroke:url(#bd)"/><path d="M189.09,20.66a6.17,6.17,0,0,0-5.84-5.85" style="fill:none;stroke-linecap:round;stroke-width:0.7291669845581055px;stroke:url(#be)"/></g><g style="opacity:0.20000000298023224"><circle cx="163.49" cy="11.61" r="2.97" style="fill:none;stroke-width:0.7291669845581055px;stroke:url(#bf)"/><path d="M169.75,2.43c0,2.76-2.8,5.84-6.26,5.84s-6.26-3.08-6.26-5.84" style="fill:none;stroke-linecap:round;stroke-width:0.7291669845581055px;stroke:url(#bg)"/><path d="M167.25,8.69a3.16,3.16,0,0,1,3.34,2.92,3.16,3.16,0,0,1-3.34,2.92" style="fill:none;stroke-linecap:round;stroke-width:0.7291669845581055px;stroke:url(#bh)"/><path d="M173.09,2.84a6.17,6.17,0,0,1-5.84,5.85" style="fill:none;stroke-linecap:round;stroke-width:0.7291669845581055px;stroke:url(#bi)"/></g><g style="opacity:0.20000000298023224"><circle cx="163.49" cy="19.89" r="2.97" style="fill:none;stroke-width:0.7291669845581055px;stroke:url(#bj)"/><path d="M169.75,29.07c0-2.76-2.8-5.84-6.26-5.84s-6.26,3.08-6.26,5.84" style="fill:none;stroke-linecap:round;stroke-width:0.7291669845581055px;stroke:url(#bk)"/><path d="M167.25,22.81a3.16,3.16,0,0,0,3.34-2.92A3.16,3.16,0,0,0,167.25,17" style="fill:none;stroke-linecap:round;stroke-width:0.7291669845581055px;stroke:url(#bl)"/><path d="M173.09,28.66a6.17,6.17,0,0,0-5.84-5.85" style="fill:none;stroke-linecap:round;stroke-width:0.7291669845581055px;stroke:url(#bm)"/></g><g style="opacity:0.20000000298023224"><circle cx="6.99" cy="43.39" r="2.97" style="fill:none;stroke-width:0.7291669845581055px;stroke:url(#bn)"/><path d="M13.25,52.57c0-2.76-2.8-5.84-6.26-5.84S.73,49.81.73,52.57" style="fill:none;stroke-linecap:round;stroke-width:0.7291669845581055px;stroke:url(#bo)"/><path d="M10.75,46.31a3.16,3.16,0,0,0,3.34-2.92,3.16,3.16,0,0,0-3.34-2.92" style="fill:none;stroke-linecap:round;stroke-width:0.7291669845581055px;stroke:url(#bp)"/><path d="M16.59,52.16a6.17,6.17,0,0,0-5.84-5.85" style="fill:none;stroke-linecap:round;stroke-width:0.7291669845581055px;stroke:url(#bq)"/></g><g style="opacity:0.20000000298023224"><circle cx="36.99" cy="43.39" r="2.97" style="fill:none;stroke-width:0.7291669845581055px;stroke:url(#br)"/><path d="M43.25,52.57c0-2.76-2.8-5.84-6.26-5.84s-6.26,3.08-6.26,5.84" style="fill:none;stroke-linecap:round;stroke-width:0.7291669845581055px;stroke:url(#bs)"/><path d="M40.75,46.31a3.16,3.16,0,0,0,3.34-2.92,3.16,3.16,0,0,0-3.34-2.92" style="fill:none;stroke-linecap:round;stroke-width:0.7291669845581055px;stroke:url(#bt)"/><path d="M46.59,52.16a6.17,6.17,0,0,0-5.84-5.85" style="fill:none;stroke-linecap:round;stroke-width:0.7291669845581055px;stroke:url(#bu)"/></g><g style="opacity:0.20000000298023224"><circle cx="20.99" cy="43.11" r="2.97" style="fill:none;stroke-width:0.7291669845581055px;stroke:url(#bv)"/><path d="M27.25,33.93c0,2.76-2.8,5.84-6.26,5.84s-6.26-3.08-6.26-5.84" style="fill:none;stroke-linecap:round;stroke-width:0.7291669845581055px;stroke:url(#bw)"/><path d="M24.75,40.19a3.16,3.16,0,0,1,3.34,2.92A3.16,3.16,0,0,1,24.75,46" style="fill:none;stroke-linecap:round;stroke-width:0.7291669845581055px;stroke:url(#bx)"/><path d="M30.59,34.34a6.17,6.17,0,0,1-5.84,5.85" style="fill:none;stroke-linecap:round;stroke-width:0.7291669845581055px;stroke:url(#by)"/></g><g style="opacity:0.20000000298023224"><circle cx="20.99" cy="51.39" r="2.97" style="fill:none;stroke-width:0.7291669845581055px;stroke:url(#bz)"/><path d="M27.25,60.57c0-2.76-2.8-5.84-6.26-5.84s-6.26,3.08-6.26,5.84" style="fill:none;stroke-linecap:round;stroke-width:0.7291669845581055px;stroke:url(#ca)"/><path d="M24.75,54.31a2.95,2.95,0,1,0,0-5.84" style="fill:none;stroke-linecap:round;stroke-width:0.7291669845581055px;stroke:url(#cb)"/><path d="M30.59,60.16a6.17,6.17,0,0,0-5.84-5.85" style="fill:none;stroke-linecap:round;stroke-width:0.7291669845581055px;stroke:url(#cc)"/></g><g style="opacity:0.20000000298023224"><circle cx="57.49" cy="43.39" r="2.97" style="fill:none;stroke-width:0.7291669845581055px;stroke:url(#cd)"/><path d="M63.75,52.57c0-2.76-2.8-5.84-6.26-5.84s-6.26,3.08-6.26,5.84" style="fill:none;stroke-linecap:round;stroke-width:0.7291669845581055px;stroke:url(#ce)"/><path d="M61.25,46.31a3.16,3.16,0,0,0,3.34-2.92,3.16,3.16,0,0,0-3.34-2.92" style="fill:none;stroke-linecap:round;stroke-width:0.7291669845581055px;stroke:url(#cf)"/><path d="M67.09,52.16a6.17,6.17,0,0,0-5.84-5.85" style="fill:none;stroke-linecap:round;stroke-width:0.7291669845581055px;stroke:url(#cg)"/></g><g style="opacity:0.20000000298023224"><circle cx="87.49" cy="43.39" r="2.97" style="fill:none;stroke-width:0.7291669845581055px;stroke:url(#ch)"/><path d="M93.75,52.57c0-2.76-2.8-5.84-6.26-5.84s-6.26,3.08-6.26,5.84" style="fill:none;stroke-linecap:round;stroke-width:0.7291669845581055px;stroke:url(#ci)"/><path d="M91.25,46.31a3.16,3.16,0,0,0,3.34-2.92,3.16,3.16,0,0,0-3.34-2.92" style="fill:none;stroke-linecap:round;stroke-width:0.7291669845581055px;stroke:url(#cj)"/><path d="M97.09,52.16a6.17,6.17,0,0,0-5.84-5.85" style="fill:none;stroke-linecap:round;stroke-width:0.7291669845581055px;stroke:url(#ck)"/></g><g style="opacity:0.20000000298023224"><circle cx="71.49" cy="43.11" r="2.97" style="fill:none;stroke-width:0.7291669845581055px;stroke:url(#cl)"/><path d="M77.75,33.93c0,2.76-2.8,5.84-6.26,5.84s-6.26-3.08-6.26-5.84" style="fill:none;stroke-linecap:round;stroke-width:0.7291669845581055px;stroke:url(#cm)"/><path d="M75.25,40.19a3.16,3.16,0,0,1,3.34,2.92A3.16,3.16,0,0,1,75.25,46" style="fill:none;stroke-linecap:round;stroke-width:0.7291669845581055px;stroke:url(#cn)"/><path d="M81.09,34.34a6.17,6.17,0,0,1-5.84,5.85" style="fill:none;stroke-linecap:round;stroke-width:0.7291669845581055px;stroke:url(#co)"/></g><g style="opacity:0.20000000298023224"><circle cx="71.49" cy="51.39" r="2.97" style="fill:none;stroke-width:0.7291669845581055px;stroke:url(#cp)"/><path d="M77.75,60.57c0-2.76-2.8-5.84-6.26-5.84s-6.26,3.08-6.26,5.84" style="fill:none;stroke-linecap:round;stroke-width:0.7291669845581055px;stroke:url(#cq)"/><path d="M75.25,54.31a2.95,2.95,0,1,0,0-5.84" style="fill:none;stroke-linecap:round;stroke-width:0.7291669845581055px;stroke:url(#cr)"/><path d="M81.09,60.16a6.17,6.17,0,0,0-5.84-5.85" style="fill:none;stroke-linecap:round;stroke-width:0.7291669845581055px;stroke:url(#cs)"/></g><g style="opacity:0.20000000298023224"><circle cx="107.99" cy="43.39" r="2.97" style="fill:none;stroke-width:0.7291669845581055px;stroke:url(#ct)"/><path d="M114.25,52.57c0-2.76-2.8-5.84-6.26-5.84s-6.26,3.08-6.26,5.84" style="fill:none;stroke-linecap:round;stroke-width:0.7291669845581055px;stroke:url(#cu)"/><path d="M111.75,46.31a3.15,3.15,0,0,0,3.33-2.92,3.15,3.15,0,0,0-3.33-2.92" style="fill:none;stroke-linecap:round;stroke-width:0.7291669845581055px;stroke:url(#cv)"/><path d="M117.59,52.16a6.17,6.17,0,0,0-5.84-5.85" style="fill:none;stroke-linecap:round;stroke-width:0.7291669845581055px;stroke:url(#cw)"/></g><g style="opacity:0.20000000298023224"><circle cx="137.99" cy="43.39" r="2.97" style="fill:none;stroke-width:0.7291669845581055px;stroke:url(#cx)"/><path d="M144.25,52.57c0-2.76-2.8-5.84-6.26-5.84s-6.26,3.08-6.26,5.84" style="fill:none;stroke-linecap:round;stroke-width:0.7291669845581055px;stroke:url(#cy)"/><path d="M141.75,46.31a3.16,3.16,0,0,0,3.34-2.92,3.16,3.16,0,0,0-3.34-2.92" style="fill:none;stroke-linecap:round;stroke-width:0.7291669845581055px;stroke:url(#cz)"/><path d="M147.59,52.16a6.17,6.17,0,0,0-5.84-5.85" style="fill:none;stroke-linecap:round;stroke-width:0.7291669845581055px;stroke:url(#da)"/></g><g style="opacity:0.20000000298023224"><circle cx="121.99" cy="43.11" r="2.97" style="fill:none;stroke-width:0.7291669845581055px;stroke:url(#db)"/><path d="M128.25,33.93c0,2.76-2.8,5.84-6.26,5.84s-6.26-3.08-6.26-5.84" style="fill:none;stroke-linecap:round;stroke-width:0.7291669845581055px;stroke:url(#dc)"/><path d="M125.75,40.19a3.16,3.16,0,0,1,3.34,2.92A3.16,3.16,0,0,1,125.75,46" style="fill:none;stroke-linecap:round;stroke-width:0.7291669845581055px;stroke:url(#dd)"/><path d="M131.59,34.34a6.17,6.17,0,0,1-5.84,5.85" style="fill:none;stroke-linecap:round;stroke-width:0.7291669845581055px;stroke:url(#de)"/></g><g style="opacity:0.20000000298023224"><circle cx="121.99" cy="51.39" r="2.97" style="fill:none;stroke-width:0.7291669845581055px;stroke:url(#df)"/><path d="M128.25,60.57c0-2.76-2.8-5.84-6.26-5.84s-6.26,3.08-6.26,5.84" style="fill:none;stroke-linecap:round;stroke-width:0.7291669845581055px;stroke:url(#dg)"/><path d="M125.75,54.31a2.95,2.95,0,1,0,0-5.84" style="fill:none;stroke-linecap:round;stroke-width:0.7291669845581055px;stroke:url(#dh)"/><path d="M131.59,60.16a6.17,6.17,0,0,0-5.84-5.85" style="fill:none;stroke-linecap:round;stroke-width:0.7291669845581055px;stroke:url(#di)"/></g><g style="opacity:0.20000000298023224"><circle cx="158.49" cy="43.39" r="2.97" style="fill:none;stroke-width:0.7291669845581055px;stroke:url(#dj)"/><path d="M164.75,52.57c0-2.76-2.8-5.84-6.26-5.84s-6.26,3.08-6.26,5.84" style="fill:none;stroke-linecap:round;stroke-width:0.7291669845581055px;stroke:url(#dk)"/><path d="M162.25,46.31a3.16,3.16,0,0,0,3.34-2.92,3.16,3.16,0,0,0-3.34-2.92" style="fill:none;stroke-linecap:round;stroke-width:0.7291669845581055px;stroke:url(#dl)"/><path d="M168.09,52.16a6.17,6.17,0,0,0-5.84-5.85" style="fill:none;stroke-linecap:round;stroke-width:0.7291669845581055px;stroke:url(#dm)"/></g><g style="opacity:0.20000000298023224"><circle cx="188.49" cy="43.39" r="2.97" style="fill:none;stroke-width:0.7291669845581055px;stroke:url(#dn)"/><path d="M194.75,52.57c0-2.76-2.8-5.84-6.26-5.84s-6.26,3.08-6.26,5.84" style="fill:none;stroke-linecap:round;stroke-width:0.7291669845581055px;stroke:url(#do)"/><path d="M192.25,46.31a3.16,3.16,0,0,0,3.34-2.92,3.16,3.16,0,0,0-3.34-2.92" style="fill:none;stroke-linecap:round;stroke-width:0.7291669845581055px;stroke:url(#dp)"/><path d="M198.09,52.16a6.17,6.17,0,0,0-5.84-5.85" style="fill:none;stroke-linecap:round;stroke-width:0.7291669845581055px;stroke:url(#dq)"/></g><g style="opacity:0.20000000298023224"><circle cx="172.49" cy="43.11" r="2.97" style="fill:none;stroke-width:0.7291669845581055px;stroke:url(#dr)"/><path d="M178.75,33.93c0,2.76-2.8,5.84-6.26,5.84s-6.26-3.08-6.26-5.84" style="fill:none;stroke-linecap:round;stroke-width:0.7291669845581055px;stroke:url(#ds)"/><path d="M176.25,40.19a3.16,3.16,0,0,1,3.34,2.92A3.16,3.16,0,0,1,176.25,46" style="fill:none;stroke-linecap:round;stroke-width:0.7291669845581055px;stroke:url(#dt)"/><path d="M182.09,34.34a6.17,6.17,0,0,1-5.84,5.85" style="fill:none;stroke-linecap:round;stroke-width:0.7291669845581055px;stroke:url(#du)"/></g><g style="opacity:0.20000000298023224"><circle cx="172.49" cy="51.39" r="2.97" style="fill:none;stroke-width:0.7291669845581055px;stroke:url(#dv)"/><path d="M178.75,60.57c0-2.76-2.8-5.84-6.26-5.84s-6.26,3.08-6.26,5.84" style="fill:none;stroke-linecap:round;stroke-width:0.7291669845581055px;stroke:url(#dw)"/><path d="M176.25,54.31a2.95,2.95,0,1,0,0-5.84" style="fill:none;stroke-linecap:round;stroke-width:0.7291669845581055px;stroke:url(#dx)"/><path d="M182.09,60.16a6.17,6.17,0,0,0-5.84-5.85" style="fill:none;stroke-linecap:round;stroke-width:0.7291669845581055px;stroke:url(#dy)"/></g><g style="opacity:0.20000000298023224"><circle cx="6.99" cy="74.89" r="2.97" style="fill:none;stroke-width:0.7291669845581055px;stroke:url(#dz)"/><path d="M13.25,84.07c0-2.76-2.8-5.84-6.26-5.84S.73,81.31.73,84.07" style="fill:none;stroke-linecap:round;stroke-width:0.7291669845581055px;stroke:url(#ea)"/><path d="M10.75,77.81a2.95,2.95,0,1,0,0-5.84" style="fill:none;stroke-linecap:round;stroke-width:0.7291669845581055px;stroke:url(#eb)"/><path d="M16.59,83.66a6.17,6.17,0,0,0-5.84-5.85" style="fill:none;stroke-linecap:round;stroke-width:0.7291669845581055px;stroke:url(#ec)"/></g><g style="opacity:0.20000000298023224"><circle cx="36.99" cy="74.89" r="2.97" style="fill:none;stroke-width:0.7291669845581055px;stroke:url(#ed)"/><path d="M43.25,84.07c0-2.76-2.8-5.84-6.26-5.84s-6.26,3.08-6.26,5.84" style="fill:none;stroke-linecap:round;stroke-width:0.7291669845581055px;stroke:url(#ee)"/><path d="M40.75,77.81a2.95,2.95,0,1,0,0-5.84" style="fill:none;stroke-linecap:round;stroke-width:0.7291669845581055px;stroke:url(#ef)"/><path d="M46.59,83.66a6.17,6.17,0,0,0-5.84-5.85" style="fill:none;stroke-linecap:round;stroke-width:0.7291669845581055px;stroke:url(#eg)"/></g><g style="opacity:0.20000000298023224"><circle cx="20.99" cy="74.61" r="2.97" style="fill:none;stroke-width:0.7291669845581055px;stroke:url(#eh)"/><path d="M27.25,65.43c0,2.76-2.8,5.84-6.26,5.84s-6.26-3.08-6.26-5.84" style="fill:none;stroke-linecap:round;stroke-width:0.7291669845581055px;stroke:url(#ei)"/><path d="M24.75,71.69a2.95,2.95,0,1,1,0,5.84" style="fill:none;stroke-linecap:round;stroke-width:0.7291669845581055px;stroke:url(#ej)"/><path d="M30.59,65.84a6.17,6.17,0,0,1-5.84,5.85" style="fill:none;stroke-linecap:round;stroke-width:0.7291669845581055px;stroke:url(#ek)"/></g><g style="opacity:0.20000000298023224"><circle cx="20.99" cy="82.89" r="2.97" style="fill:none;stroke-width:0.7291669845581055px;stroke:url(#el)"/><path d="M27.25,92.07c0-2.76-2.8-5.84-6.26-5.84s-6.26,3.08-6.26,5.84" style="fill:none;stroke-linecap:round;stroke-width:0.7291669845581055px;stroke:url(#em)"/><path d="M24.75,85.81a2.95,2.95,0,1,0,0-5.84" style="fill:none;stroke-linecap:round;stroke-width:0.7291669845581055px;stroke:url(#en)"/><path d="M30.59,91.66a6.17,6.17,0,0,0-5.84-5.85" style="fill:none;stroke-linecap:round;stroke-width:0.7291669845581055px;stroke:url(#eo)"/></g><g style="opacity:0.20000000298023224"><circle cx="57.49" cy="74.89" r="2.97" style="fill:none;stroke-width:0.7291669845581055px;stroke:url(#ep)"/><path d="M63.75,84.07c0-2.76-2.8-5.84-6.26-5.84s-6.26,3.08-6.26,5.84" style="fill:none;stroke-linecap:round;stroke-width:0.7291669845581055px;stroke:url(#eq)"/><path d="M61.25,77.81a2.95,2.95,0,1,0,0-5.84" style="fill:none;stroke-linecap:round;stroke-width:0.7291669845581055px;stroke:url(#er)"/><path d="M67.09,83.66a6.17,6.17,0,0,0-5.84-5.85" style="fill:none;stroke-linecap:round;stroke-width:0.7291669845581055px;stroke:url(#es)"/></g><g style="opacity:0.20000000298023224"><circle cx="87.49" cy="74.89" r="2.97" style="fill:none;stroke-width:0.7291669845581055px;stroke:url(#et)"/><path d="M93.75,84.07c0-2.76-2.8-5.84-6.26-5.84s-6.26,3.08-6.26,5.84" style="fill:none;stroke-linecap:round;stroke-width:0.7291669845581055px;stroke:url(#eu)"/><path d="M91.25,77.81a2.95,2.95,0,1,0,0-5.84" style="fill:none;stroke-linecap:round;stroke-width:0.7291669845581055px;stroke:url(#ev)"/><path d="M97.09,83.66a6.17,6.17,0,0,0-5.84-5.85" style="fill:none;stroke-linecap:round;stroke-width:0.7291669845581055px;stroke:url(#ew)"/></g><g style="opacity:0.20000000298023224"><circle cx="71.49" cy="74.61" r="2.97" style="fill:none;stroke-width:0.7291669845581055px;stroke:url(#ex)"/><path d="M77.75,65.43c0,2.76-2.8,5.84-6.26,5.84s-6.26-3.08-6.26-5.84" style="fill:none;stroke-linecap:round;stroke-width:0.7291669845581055px;stroke:url(#ey)"/><path d="M75.25,71.69a2.95,2.95,0,1,1,0,5.84" style="fill:none;stroke-linecap:round;stroke-width:0.7291669845581055px;stroke:url(#ez)"/><path d="M81.09,65.84a6.17,6.17,0,0,1-5.84,5.85" style="fill:none;stroke-linecap:round;stroke-width:0.7291669845581055px;stroke:url(#fa)"/></g><g style="opacity:0.20000000298023224"><circle cx="71.49" cy="82.89" r="2.97" style="fill:none;stroke-width:0.7291669845581055px;stroke:url(#fb)"/><path d="M77.75,92.07c0-2.76-2.8-5.84-6.26-5.84s-6.26,3.08-6.26,5.84" style="fill:none;stroke-linecap:round;stroke-width:0.7291669845581055px;stroke:url(#fc)"/><path d="M75.25,85.81a2.95,2.95,0,1,0,0-5.84" style="fill:none;stroke-linecap:round;stroke-width:0.7291669845581055px;stroke:url(#fd)"/><path d="M81.09,91.66a6.17,6.17,0,0,0-5.84-5.85" style="fill:none;stroke-linecap:round;stroke-width:0.7291669845581055px;stroke:url(#fe)"/></g><g style="opacity:0.20000000298023224"><circle cx="107.99" cy="74.89" r="2.97" style="fill:none;stroke-width:0.7291669845581055px;stroke:url(#ff)"/><path d="M114.25,84.07c0-2.76-2.8-5.84-6.26-5.84s-6.26,3.08-6.26,5.84" style="fill:none;stroke-linecap:round;stroke-width:0.7291669845581055px;stroke:url(#fg)"/><path d="M111.75,77.81a2.95,2.95,0,1,0,0-5.84" style="fill:none;stroke-linecap:round;stroke-width:0.7291669845581055px;stroke:url(#fh)"/><path d="M117.59,83.66a6.17,6.17,0,0,0-5.84-5.85" style="fill:none;stroke-linecap:round;stroke-width:0.7291669845581055px;stroke:url(#fi)"/></g><g style="opacity:0.20000000298023224"><circle cx="137.99" cy="74.89" r="2.97" style="fill:none;stroke-width:0.7291669845581055px;stroke:url(#fj)"/><path d="M144.25,84.07c0-2.76-2.8-5.84-6.26-5.84s-6.26,3.08-6.26,5.84" style="fill:none;stroke-linecap:round;stroke-width:0.7291669845581055px;stroke:url(#fk)"/><path d="M141.75,77.81a2.95,2.95,0,1,0,0-5.84" style="fill:none;stroke-linecap:round;stroke-width:0.7291669845581055px;stroke:url(#fl)"/><path d="M147.59,83.66a6.17,6.17,0,0,0-5.84-5.85" style="fill:none;stroke-linecap:round;stroke-width:0.7291669845581055px;stroke:url(#fm)"/></g><g style="opacity:0.20000000298023224"><circle cx="121.99" cy="74.61" r="2.97" style="fill:none;stroke-width:0.7291669845581055px;stroke:url(#fn)"/><path d="M128.25,65.43c0,2.76-2.8,5.84-6.26,5.84s-6.26-3.08-6.26-5.84" style="fill:none;stroke-linecap:round;stroke-width:0.7291669845581055px;stroke:url(#fo)"/><path d="M125.75,71.69a2.95,2.95,0,1,1,0,5.84" style="fill:none;stroke-linecap:round;stroke-width:0.7291669845581055px;stroke:url(#fp)"/><path d="M131.59,65.84a6.17,6.17,0,0,1-5.84,5.85" style="fill:none;stroke-linecap:round;stroke-width:0.7291669845581055px;stroke:url(#fq)"/></g><g style="opacity:0.20000000298023224"><circle cx="121.99" cy="82.89" r="2.97" style="fill:none;stroke-width:0.7291669845581055px;stroke:url(#fr)"/><path d="M128.25,92.07c0-2.76-2.8-5.84-6.26-5.84s-6.26,3.08-6.26,5.84" style="fill:none;stroke-linecap:round;stroke-width:0.7291669845581055px;stroke:url(#fs)"/><path d="M125.75,85.81a2.95,2.95,0,1,0,0-5.84" style="fill:none;stroke-linecap:round;stroke-width:0.7291669845581055px;stroke:url(#ft)"/><path d="M131.59,91.66a6.17,6.17,0,0,0-5.84-5.85" style="fill:none;stroke-linecap:round;stroke-width:0.7291669845581055px;stroke:url(#fu)"/></g><g style="opacity:0.20000000298023224"><circle cx="158.49" cy="74.89" r="2.97" style="fill:none;stroke-width:0.7291669845581055px;stroke:url(#fv)"/><path d="M164.75,84.07c0-2.76-2.8-5.84-6.26-5.84s-6.26,3.08-6.26,5.84" style="fill:none;stroke-linecap:round;stroke-width:0.7291669845581055px;stroke:url(#fw)"/><path d="M162.25,77.81a2.95,2.95,0,1,0,0-5.84" style="fill:none;stroke-linecap:round;stroke-width:0.7291669845581055px;stroke:url(#fx)"/><path d="M168.09,83.66a6.17,6.17,0,0,0-5.84-5.85" style="fill:none;stroke-linecap:round;stroke-width:0.7291669845581055px;stroke:url(#fy)"/></g><g style="opacity:0.20000000298023224"><circle cx="188.49" cy="74.89" r="2.97" style="fill:none;stroke-width:0.7291669845581055px;stroke:url(#fz)"/><path d="M194.75,84.07c0-2.76-2.8-5.84-6.26-5.84s-6.26,3.08-6.26,5.84" style="fill:none;stroke-linecap:round;stroke-width:0.7291669845581055px;stroke:url(#ga)"/><path d="M192.25,77.81a2.95,2.95,0,1,0,0-5.84" style="fill:none;stroke-linecap:round;stroke-width:0.7291669845581055px;stroke:url(#gb)"/><path d="M198.09,83.66a6.17,6.17,0,0,0-5.84-5.85" style="fill:none;stroke-linecap:round;stroke-width:0.7291669845581055px;stroke:url(#gc)"/></g><g style="opacity:0.20000000298023224"><circle cx="172.49" cy="74.61" r="2.97" style="fill:none;stroke-width:0.7291669845581055px;stroke:url(#gd)"/><path d="M178.75,65.43c0,2.76-2.8,5.84-6.26,5.84s-6.26-3.08-6.26-5.84" style="fill:none;stroke-linecap:round;stroke-width:0.7291669845581055px;stroke:url(#ge)"/><path d="M176.25,71.69a2.95,2.95,0,1,1,0,5.84" style="fill:none;stroke-linecap:round;stroke-width:0.7291669845581055px;stroke:url(#gf)"/><path d="M182.09,65.84a6.17,6.17,0,0,1-5.84,5.85" style="fill:none;stroke-linecap:round;stroke-width:0.7291669845581055px;stroke:url(#gg)"/></g><g style="opacity:0.20000000298023224"><circle cx="172.49" cy="82.89" r="2.97" style="fill:none;stroke-width:0.7291669845581055px;stroke:url(#gh)"/><path d="M178.75,92.07c0-2.76-2.8-5.84-6.26-5.84s-6.26,3.08-6.26,5.84" style="fill:none;stroke-linecap:round;stroke-width:0.7291669845581055px;stroke:url(#gi)"/><path d="M176.25,85.81a2.95,2.95,0,1,0,0-5.84" style="fill:none;stroke-linecap:round;stroke-width:0.7291669845581055px;stroke:url(#gj)"/><path d="M182.09,91.66a6.17,6.17,0,0,0-5.84-5.85" style="fill:none;stroke-linecap:round;stroke-width:0.7291669845581055px;stroke:url(#gk)"/></g><g style="opacity:0.20000000298023224"><circle cx="6.99" cy="106.39" r="2.97" style="fill:none;stroke-width:0.7291669845581055px;stroke:url(#gl)"/><path d="M10.75,109.31a2.95,2.95,0,1,0,0-5.84" style="fill:none;stroke-linecap:round;stroke-width:0.7291669845581055px;stroke:url(#gm)"/></g><g style="opacity:0.20000000298023224"><circle cx="36.99" cy="106.39" r="2.97" style="fill:none;stroke-width:0.7291669845581055px;stroke:url(#gn)"/><path d="M40.75,109.31a2.95,2.95,0,1,0,0-5.84" style="fill:none;stroke-linecap:round;stroke-width:0.7291669845581055px;stroke:url(#go)"/></g><g style="opacity:0.20000000298023224"><circle cx="20.99" cy="106.11" r="2.97" style="fill:none;stroke-width:0.7291669845581055px;stroke:url(#gp)"/><path d="M27.25,96.93c0,2.76-2.8,5.84-6.26,5.84s-6.26-3.08-6.26-5.84" style="fill:none;stroke-linecap:round;stroke-width:0.7291669845581055px;stroke:url(#gq)"/><path d="M24.75,103.19a2.95,2.95,0,1,1,0,5.84" style="fill:none;stroke-linecap:round;stroke-width:0.7291669845581055px;stroke:url(#gr)"/><path d="M30.59,97.34a6.17,6.17,0,0,1-5.84,5.85" style="fill:none;stroke-linecap:round;stroke-width:0.7291669845581055px;stroke:url(#gs)"/></g><g style="opacity:0.20000000298023224"><circle cx="57.49" cy="106.39" r="2.97" style="fill:none;stroke-width:0.7291669845581055px;stroke:url(#gt)"/><path d="M61.25,109.31a2.95,2.95,0,1,0,0-5.84" style="fill:none;stroke-linecap:round;stroke-width:0.7291669845581055px;stroke:url(#gu)"/></g><g style="opacity:0.20000000298023224"><circle cx="87.49" cy="106.39" r="2.97" style="fill:none;stroke-width:0.7291669845581055px;stroke:url(#gv)"/><path d="M91.25,109.31a2.95,2.95,0,1,0,0-5.84" style="fill:none;stroke-linecap:round;stroke-width:0.7291669845581055px;stroke:url(#gw)"/></g><g style="opacity:0.20000000298023224"><circle cx="71.49" cy="106.11" r="2.97" style="fill:none;stroke-width:0.7291669845581055px;stroke:url(#gx)"/><path d="M77.75,96.93c0,2.76-2.8,5.84-6.26,5.84s-6.26-3.08-6.26-5.84" style="fill:none;stroke-linecap:round;stroke-width:0.7291669845581055px;stroke:url(#gy)"/><path d="M75.25,103.19a2.95,2.95,0,1,1,0,5.84" style="fill:none;stroke-linecap:round;stroke-width:0.7291669845581055px;stroke:url(#gz)"/><path d="M81.09,97.34a6.17,6.17,0,0,1-5.84,5.85" style="fill:none;stroke-linecap:round;stroke-width:0.7291669845581055px;stroke:url(#ha)"/></g><g style="opacity:0.20000000298023224"><circle cx="107.99" cy="106.39" r="2.97" style="fill:none;stroke-width:0.7291669845581055px;stroke:url(#hb)"/><path d="M111.75,109.31a2.95,2.95,0,1,0,0-5.84" style="fill:none;stroke-linecap:round;stroke-width:0.7291669845581055px;stroke:url(#hc)"/></g><g style="opacity:0.20000000298023224"><circle cx="137.99" cy="106.39" r="2.97" style="fill:none;stroke-width:0.7291669845581055px;stroke:url(#hd)"/><path d="M141.75,109.31a2.95,2.95,0,1,0,0-5.84" style="fill:none;stroke-linecap:round;stroke-width:0.7291669845581055px;stroke:url(#he)"/></g><g style="opacity:0.20000000298023224"><circle cx="121.99" cy="106.11" r="2.97" style="fill:none;stroke-width:0.7291669845581055px;stroke:url(#hf)"/><path d="M128.25,96.93c0,2.76-2.8,5.84-6.26,5.84s-6.26-3.08-6.26-5.84" style="fill:none;stroke-linecap:round;stroke-width:0.7291669845581055px;stroke:url(#hg)"/><path d="M125.75,103.19a2.95,2.95,0,1,1,0,5.84" style="fill:none;stroke-linecap:round;stroke-width:0.7291669845581055px;stroke:url(#hh)"/><path d="M131.59,97.34a6.17,6.17,0,0,1-5.84,5.85" style="fill:none;stroke-linecap:round;stroke-width:0.7291669845581055px;stroke:url(#hi)"/></g><g style="opacity:0.20000000298023224"><circle cx="158.49" cy="106.39" r="2.97" style="fill:none;stroke-width:0.7291669845581055px;stroke:url(#hj)"/><path d="M162.25,109.31a2.95,2.95,0,1,0,0-5.84" style="fill:none;stroke-linecap:round;stroke-width:0.7291669845581055px;stroke:url(#hk)"/></g><g style="opacity:0.20000000298023224"><circle cx="188.49" cy="106.39" r="2.97" style="fill:none;stroke-width:0.7291669845581055px;stroke:url(#hl)"/><path d="M192.25,109.31a2.95,2.95,0,1,0,0-5.84" style="fill:none;stroke-linecap:round;stroke-width:0.7291669845581055px;stroke:url(#hm)"/></g><g style="opacity:0.20000000298023224"><circle cx="172.49" cy="106.11" r="2.97" style="fill:none;stroke-width:0.7291669845581055px;stroke:url(#hn)"/><path d="M178.75,96.93c0,2.76-2.8,5.84-6.26,5.84s-6.26-3.08-6.26-5.84" style="fill:none;stroke-linecap:round;stroke-width:0.7291669845581055px;stroke:url(#ho)"/><path d="M176.25,103.19a2.95,2.95,0,1,1,0,5.84" style="fill:none;stroke-linecap:round;stroke-width:0.7291669845581055px;stroke:url(#hp)"/><path d="M182.09,97.34a6.17,6.17,0,0,1-5.84,5.85" style="fill:none;stroke-linecap:round;stroke-width:0.7291669845581055px;stroke:url(#hq)"/></g><path d="M17,61V52.54h1.12V60h4.21v1Zm6.47,0V55h1.09v6Zm-.1-7.36V52.47h1.3v1.17Zm5.06,7.47a5,5,0,0,1-1.37-.19,2.75,2.75,0,0,1-1-.56l.34-.75a3.52,3.52,0,0,0,1,.51,3.42,3.42,0,0,0,1.1.17,1.72,1.72,0,0,0,1-.25.78.78,0,0,0,.36-.67.65.65,0,0,0-.23-.54,1.42,1.42,0,0,0-.72-.3l-1.14-.23a2.31,2.31,0,0,1-1.16-.58,1.44,1.44,0,0,1-.38-1,1.62,1.62,0,0,1,.28-.94,1.89,1.89,0,0,1,.82-.64,3.08,3.08,0,0,1,1.26-.24,3.67,3.67,0,0,1,1.22.19,2.35,2.35,0,0,1,.95.56l-.36.73a2.73,2.73,0,0,0-.84-.49,2.48,2.48,0,0,0-.93-.18,1.59,1.59,0,0,0-1,.28.84.84,0,0,0-.33.69.77.77,0,0,0,.2.54,1.45,1.45,0,0,0,.66.32l1.14.22a2.48,2.48,0,0,1,1.21.56,1.29,1.29,0,0,1,.41,1,1.54,1.54,0,0,1-.31,1,1.83,1.83,0,0,1-.85.62A3.31,3.31,0,0,1,28.46,61.11Zm6.12,0a1.88,1.88,0,0,1-1.44-.52A2.28,2.28,0,0,1,32.66,59V55.8H31.48V55h1.18V53.34l1.09-.3V55h1.7v.84h-1.7v3.11a1.61,1.61,0,0,0,.24,1,.92.92,0,0,0,.72.29,2.27,2.27,0,0,0,.41,0,2,2,0,0,0,.32-.11V61a1.61,1.61,0,0,1-.42.11A2.28,2.28,0,0,1,34.58,61.11Zm4.71,0A3.12,3.12,0,0,1,37,60.28,3.08,3.08,0,0,1,36.18,58a3.6,3.6,0,0,1,.36-1.66,2.75,2.75,0,0,1,1-1.09,2.88,2.88,0,0,1,1.51-.39,2.64,2.64,0,0,1,1.41.36,2.22,2.22,0,0,1,.87,1,3.65,3.65,0,0,1,.3,1.54v.36H37v-.65h3.88l-.21.16a2.27,2.27,0,0,0-.42-1.46,1.45,1.45,0,0,0-1.21-.51,1.61,1.61,0,0,0-1.35.61,2.56,2.56,0,0,0-.48,1.64V58a2.33,2.33,0,0,0,.54,1.67,2,2,0,0,0,1.52.56,3.29,3.29,0,0,0,1-.15,3,3,0,0,0,.9-.52l.36.76a2.66,2.66,0,0,1-1,.57A3.79,3.79,0,0,1,39.29,61.11ZM43.08,61V56.39c0-.23,0-.47,0-.71S43,55.2,43,55H44l.12,1.3H44a2,2,0,0,1,.85-1,2.46,2.46,0,0,1,1.34-.36,2.09,2.09,0,0,1,1.61.58,2.58,2.58,0,0,1,.54,1.8V61H47.27V57.3a1.72,1.72,0,0,0-.33-1.18,1.25,1.25,0,0,0-1-.38,1.72,1.72,0,0,0-1.3.5,1.84,1.84,0,0,0-.47,1.33V61Zm12.49.11a1.85,1.85,0,0,1-1.44-.52A2.28,2.28,0,0,1,53.65,59V55.8H52.47V55h1.18V53.34l1.09-.3V55h1.7v.84h-1.7v3.11a1.61,1.61,0,0,0,.24,1,.92.92,0,0,0,.72.29,1.61,1.61,0,0,0,.73-.15V61a1.61,1.61,0,0,1-.42.11A2.28,2.28,0,0,1,55.57,61.11Zm4.5,0a3.09,3.09,0,0,1-1.53-.37,2.7,2.7,0,0,1-1-1.08A3.71,3.71,0,0,1,57.17,58a3.57,3.57,0,0,1,.36-1.66,2.58,2.58,0,0,1,1-1.08,3.29,3.29,0,0,1,3.07,0,2.46,2.46,0,0,1,1,1.08A3.57,3.57,0,0,1,63,58a3.71,3.71,0,0,1-.36,1.68,2.57,2.57,0,0,1-1,1.08A3.11,3.11,0,0,1,60.07,61.11Zm0-.87a1.64,1.64,0,0,0,1.31-.57A2.54,2.54,0,0,0,61.87,58a2.46,2.46,0,0,0-.49-1.68,1.64,1.64,0,0,0-1.31-.57,1.66,1.66,0,0,0-1.32.57A2.51,2.51,0,0,0,58.27,58a2.6,2.6,0,0,0,.48,1.69A1.66,1.66,0,0,0,60.07,60.24Zm9.79.87a1.88,1.88,0,0,1-1.44-.52A2.28,2.28,0,0,1,67.94,59V55.8H66.77V55h1.17V53.34L69,53V55h1.7v.84H69v3.11a1.61,1.61,0,0,0,.24,1,.89.89,0,0,0,.72.29,2.15,2.15,0,0,0,.4,0,2.55,2.55,0,0,0,.33-.11V61a1.61,1.61,0,0,1-.42.11A2.3,2.3,0,0,1,69.86,61.11Zm2-.11V52.17H73v4.1h-.16a2.07,2.07,0,0,1,.85-1.05A2.56,2.56,0,0,1,75,54.86a2,2,0,0,1,1.61.58,2.63,2.63,0,0,1,.52,1.78V61H76.07V57.28a1.73,1.73,0,0,0-.31-1.16,1.26,1.26,0,0,0-1-.38,1.71,1.71,0,0,0-1.28.5,1.77,1.77,0,0,0-.48,1.3V61Zm9.82.11a3.12,3.12,0,0,1-2.28-.83A3.08,3.08,0,0,1,78.59,58,3.6,3.6,0,0,1,79,56.34a2.75,2.75,0,0,1,1-1.09,2.88,2.88,0,0,1,1.51-.39,2.61,2.61,0,0,1,1.41.36,2.22,2.22,0,0,1,.87,1,3.65,3.65,0,0,1,.3,1.54v.36H79.44v-.65h3.88l-.2.16a2.27,2.27,0,0,0-.42-1.46,1.48,1.48,0,0,0-1.22-.51,1.61,1.61,0,0,0-1.35.61,2.56,2.56,0,0,0-.48,1.64V58a2.33,2.33,0,0,0,.54,1.67,2,2,0,0,0,1.52.56,3.29,3.29,0,0,0,1-.15,3,3,0,0,0,.9-.52l.36.76a2.66,2.66,0,0,1-1,.57A3.79,3.79,0,0,1,81.7,61.11Zm7-.11V52.17h1.1v4.1h-.16a2.07,2.07,0,0,1,.85-1.05,2.56,2.56,0,0,1,1.36-.36,2,2,0,0,1,1.61.58,2.63,2.63,0,0,1,.52,1.78V61H92.84V57.28a1.73,1.73,0,0,0-.31-1.16,1.26,1.26,0,0,0-1-.38,1.71,1.71,0,0,0-1.28.5,1.77,1.77,0,0,0-.48,1.3V61Zm7.07,0V55h1.09v6Zm-.1-7.36V52.47h1.3v1.17Zm5.71,10a5.61,5.61,0,0,1-1.46-.19,3.74,3.74,0,0,1-1.18-.59L99,62.1a4.24,4.24,0,0,0,.74.41,3.18,3.18,0,0,0,.74.23,4.39,4.39,0,0,0,.82.07,1.8,1.8,0,0,0,1.33-.45,1.83,1.83,0,0,0,.44-1.3V59.37h.12a1.88,1.88,0,0,1-.79,1.09,2.47,2.47,0,0,1-1.39.4,2.76,2.76,0,0,1-1.43-.36,2.59,2.59,0,0,1-.94-1,4,4,0,0,1,0-3.19,2.48,2.48,0,0,1,.94-1,2.67,2.67,0,0,1,1.43-.37,2.46,2.46,0,0,1,1.39.39,1.92,1.92,0,0,1,.78,1.09l-.11-.1.11-1.28h1.06l-.07.72c0,.24,0,.48,0,.71v4.54a2.75,2.75,0,0,1-.71,2A2.78,2.78,0,0,1,101.33,63.69Zm-.11-3.7a1.69,1.69,0,0,0,1.32-.56,2.78,2.78,0,0,0,0-3.15,1.71,1.71,0,0,0-1.32-.55,1.78,1.78,0,0,0-1.35.55,2.78,2.78,0,0,0,0,3.15A1.75,1.75,0,0,0,101.22,60Zm4.72,1V52.17H107v4.1h-.15a2,2,0,0,1,.85-1.05,2.52,2.52,0,0,1,1.35-.36,2,2,0,0,1,1.61.58,2.63,2.63,0,0,1,.53,1.78V61h-1.09V57.28a1.79,1.79,0,0,0-.31-1.16,1.27,1.27,0,0,0-1-.38,1.74,1.74,0,0,0-1.28.5,1.77,1.77,0,0,0-.48,1.3V61ZM113,61V52.17h1.09V61Zm2.91,0V55H117v6Zm-.09-7.36V52.47h1.29v1.17Zm5.7,10a5.47,5.47,0,0,1-1.45-.19,3.79,3.79,0,0,1-1.19-.59l.29-.81a4.17,4.17,0,0,0,.73.41,3.33,3.33,0,0,0,.74.23,4.47,4.47,0,0,0,.82.07,1.58,1.58,0,0,0,1.78-1.75V59.37h.12a1.94,1.94,0,0,1-.8,1.09,2.45,2.45,0,0,1-1.39.4,2.79,2.79,0,0,1-1.43-.36,2.5,2.5,0,0,1-.93-1,3.91,3.91,0,0,1,0-3.19,2.39,2.39,0,0,1,.93-1,2.7,2.7,0,0,1,1.43-.37,2.44,2.44,0,0,1,1.39.39,1.83,1.83,0,0,1,.78,1.09l-.1-.1.1-1.28h1.06l-.07.72c0,.24,0,.48,0,.71v4.54a2.79,2.79,0,0,1-.7,2A2.82,2.82,0,0,1,121.53,63.69Zm-.11-3.7a1.69,1.69,0,0,0,1.32-.56,2.78,2.78,0,0,0,0-3.15,1.71,1.71,0,0,0-1.32-.55,1.74,1.74,0,0,0-1.34.55,2.78,2.78,0,0,0,0,3.15A1.71,1.71,0,0,0,121.42,60Zm4.72,1V52.17h1.09v4.1h-.15a2,2,0,0,1,.85-1.05,2.53,2.53,0,0,1,1.36-.36,2,2,0,0,1,1.6.58,2.58,2.58,0,0,1,.53,1.78V61h-1.09V57.28a1.73,1.73,0,0,0-.31-1.16,1.26,1.26,0,0,0-1-.38,1.75,1.75,0,0,0-1.29.5,1.77,1.77,0,0,0-.48,1.3V61Zm9.32.11a1.88,1.88,0,0,1-1.44-.52,2.33,2.33,0,0,1-.48-1.58V55.8h-1.17V55h1.17V53.34l1.1-.3V55h1.7v.84h-1.7v3.11a1.61,1.61,0,0,0,.24,1,.9.9,0,0,0,.72.29,1.61,1.61,0,0,0,.73-.15V61a1.61,1.61,0,0,1-.42.11A2.3,2.3,0,0,1,135.46,61.11ZM141,61V55.8h-1.18V55h1.48l-.3.28v-1a2.2,2.2,0,0,1,.52-1.6,2,2,0,0,1,1.54-.55,2.89,2.89,0,0,1,.5,0,1.34,1.34,0,0,1,.46.12v.88a1.58,1.58,0,0,0-.36-.09,2,2,0,0,0-.42,0,1.21,1.21,0,0,0-.62.15.88.88,0,0,0-.4.43,1.67,1.67,0,0,0-.13.73v.85l-.17-.23h1.84v.84h-1.67V61Zm3.78,0V56.44c0-.24,0-.48,0-.73s0-.51-.06-.75h1.06l.13,1.52h-.18a2.06,2.06,0,0,1,.41-.91,1.69,1.69,0,0,1,.71-.54,2.14,2.14,0,0,1,.86-.18H148l.27.06,0,1a.88.88,0,0,0-.33-.08,1.86,1.86,0,0,0-.36,0,1.73,1.73,0,0,0-.92.24,1.68,1.68,0,0,0-.57.64,1.89,1.89,0,0,0-.19.85V61Zm6.92.11a3.16,3.16,0,0,1-1.54-.37,2.67,2.67,0,0,1-1-1.08,3.71,3.71,0,0,1-.36-1.68,3.57,3.57,0,0,1,.36-1.66,2.55,2.55,0,0,1,1-1.08,3.31,3.31,0,0,1,3.08,0,2.44,2.44,0,0,1,1,1.08,3.57,3.57,0,0,1,.36,1.66,3.71,3.71,0,0,1-.36,1.68,2.54,2.54,0,0,1-1,1.08A3.16,3.16,0,0,1,151.69,61.11Zm0-.87a1.65,1.65,0,0,0,1.31-.57,2.54,2.54,0,0,0,.49-1.69A2.46,2.46,0,0,0,153,56.3a1.8,1.8,0,0,0-2.63,0,2.51,2.51,0,0,0-.48,1.68,2.6,2.6,0,0,0,.48,1.69A1.66,1.66,0,0,0,151.69,60.24Zm4.37.76V56.39c0-.23,0-.47,0-.71s0-.48-.08-.72H157l.12,1.3H157a2,2,0,0,1,.76-1,2.15,2.15,0,0,1,1.26-.37,2,2,0,0,1,1.23.36,1.81,1.81,0,0,1,.65,1.1h-.18a2.09,2.09,0,0,1,.8-1.07,2.32,2.32,0,0,1,1.34-.39,1.85,1.85,0,0,1,1.5.58,2.69,2.69,0,0,1,.51,1.8V61h-1.09V57.3a1.91,1.91,0,0,0-.29-1.18,1.08,1.08,0,0,0-.91-.38,1.43,1.43,0,0,0-1.16.51,2,2,0,0,0-.42,1.34V61h-1.09V57.3a1.84,1.84,0,0,0-.29-1.18,1,1,0,0,0-.91-.38,1.41,1.41,0,0,0-1.15.51,2,2,0,0,0-.41,1.34V61Zm13.55,2.72-.25-.88a4.65,4.65,0,0,0,.94-.32,1.88,1.88,0,0,0,.62-.44,2.64,2.64,0,0,0,.45-.7l.3-.72,0,.46L169,55h1.18l2.1,5.18H172l2.1-5.18h1.13l-2.78,6.51a4.28,4.28,0,0,1-.55,1,2.79,2.79,0,0,1-.63.65,3,3,0,0,1-.75.4A5.52,5.52,0,0,1,169.61,63.72Zm9.07-2.61a3.13,3.13,0,0,1-1.54-.37,2.77,2.77,0,0,1-1-1.08,3.85,3.85,0,0,1-.36-1.68,3.7,3.7,0,0,1,.36-1.66,2.64,2.64,0,0,1,1-1.08,2.93,2.93,0,0,1,1.54-.38,2.9,2.9,0,0,1,1.53.38,2.46,2.46,0,0,1,1,1.08,3.57,3.57,0,0,1,.36,1.66,3.71,3.71,0,0,1-.36,1.68,2.57,2.57,0,0,1-1,1.08A3.09,3.09,0,0,1,178.68,61.11Zm0-.87a1.65,1.65,0,0,0,1.31-.57,2.54,2.54,0,0,0,.49-1.69A2.46,2.46,0,0,0,180,56.3a1.8,1.8,0,0,0-2.63,0,2.51,2.51,0,0,0-.48,1.68,2.6,2.6,0,0,0,.48,1.69A1.66,1.66,0,0,0,178.68,60.24Zm6.52.87a2.17,2.17,0,0,1-1.65-.59,2.61,2.61,0,0,1-.54-1.81V55h1.09v3.72a1.74,1.74,0,0,0,.33,1.17,1.26,1.26,0,0,0,1,.37,1.57,1.57,0,0,0,1.2-.49,1.89,1.89,0,0,0,.46-1.33V55h1.1v6h-1.06V59.67h.16a2.24,2.24,0,0,1-.81,1.07A2.3,2.3,0,0,1,185.2,61.11ZM190,61V56.44c0-.24,0-.48,0-.73s0-.51-.06-.75H191l.14,1.52H191a2.06,2.06,0,0,1,.4-.91,1.75,1.75,0,0,1,.71-.54,2.19,2.19,0,0,1,.87-.18h.32a1.1,1.1,0,0,1,.26.06l0,1a.88.88,0,0,0-.34-.08,1.73,1.73,0,0,0-.36,0,1.69,1.69,0,0,0-.91.24,1.63,1.63,0,0,0-.58.64,2,2,0,0,0-.19.85V61ZM16.91,79.59v-7.2c0-.23,0-.47,0-.71s0-.48-.07-.72h1.05l.13,1.4h-.13a1.85,1.85,0,0,1,.77-1.1,2.4,2.4,0,0,1,1.4-.4,2.6,2.6,0,0,1,1.41.37,2.39,2.39,0,0,1,.92,1.08A3.71,3.71,0,0,1,22.71,74a3.85,3.85,0,0,1-.34,1.68,2.39,2.39,0,0,1-.92,1.08,2.69,2.69,0,0,1-1.41.37,2.39,2.39,0,0,1-1.39-.4,2,2,0,0,1-.78-1.09H18v4Zm2.88-3.35a1.66,1.66,0,0,0,1.32-.57A2.54,2.54,0,0,0,21.6,74a2.46,2.46,0,0,0-.49-1.68,1.81,1.81,0,0,0-2.64,0A2.51,2.51,0,0,0,18,74a2.6,2.6,0,0,0,.48,1.69A1.66,1.66,0,0,0,19.79,76.24Zm4.38.76V72.44c0-.24,0-.48,0-.73s0-.51-.06-.75h1.06l.13,1.52h-.18a2.18,2.18,0,0,1,.41-.91,1.69,1.69,0,0,1,.71-.54,2.14,2.14,0,0,1,.86-.18h.32a1.31,1.31,0,0,1,.27.06l0,1a.88.88,0,0,0-.33-.08,1.86,1.86,0,0,0-.36,0A1.67,1.67,0,0,0,26,72a1.63,1.63,0,0,0-.58.64,1.89,1.89,0,0,0-.19.85V77Zm7.11.11A3.15,3.15,0,0,1,29,76.28,3.08,3.08,0,0,1,28.18,74a3.6,3.6,0,0,1,.36-1.66,2.68,2.68,0,0,1,1-1.09,2.85,2.85,0,0,1,1.51-.39,2.58,2.58,0,0,1,1.4.36,2.18,2.18,0,0,1,.88,1,3.65,3.65,0,0,1,.3,1.54v.36H29v-.65H32.9l-.2.16a2.27,2.27,0,0,0-.42-1.46,1.46,1.46,0,0,0-1.21-.51,1.63,1.63,0,0,0-1.36.61,2.56,2.56,0,0,0-.48,1.64V74a2.33,2.33,0,0,0,.54,1.67,2,2,0,0,0,1.53.56,3.33,3.33,0,0,0,1-.15,3,3,0,0,0,.9-.52l.35.76a2.66,2.66,0,0,1-1,.57A3.7,3.7,0,0,1,31.28,77.11ZM36.77,77l-2.58-6h1.18l2.1,5.19h-.34L39.27,71h1.11l-2.59,6Zm4.63,0V71h1.1v6Zm-.09-7.36V68.47H42.6v1.17Zm5.56,7.47a3.11,3.11,0,0,1-1.54-.37,2.7,2.7,0,0,1-1-1.08A3.71,3.71,0,0,1,44,74a3.57,3.57,0,0,1,.36-1.66,2.58,2.58,0,0,1,1-1.08,3.29,3.29,0,0,1,3.07,0,2.46,2.46,0,0,1,1,1.08A3.57,3.57,0,0,1,49.77,74a3.71,3.71,0,0,1-.36,1.68,2.57,2.57,0,0,1-1,1.08A3.09,3.09,0,0,1,46.87,77.11Zm0-.87a1.62,1.62,0,0,0,1.3-.57,2.54,2.54,0,0,0,.5-1.69,2.46,2.46,0,0,0-.5-1.68,1.79,1.79,0,0,0-2.62,0A2.51,2.51,0,0,0,45.07,74a2.6,2.6,0,0,0,.48,1.69A1.63,1.63,0,0,0,46.87,76.24Zm6.51.87a2.16,2.16,0,0,1-1.64-.59,2.61,2.61,0,0,1-.54-1.81V71h1.09v3.72a1.74,1.74,0,0,0,.33,1.17,1.24,1.24,0,0,0,1,.37,1.54,1.54,0,0,0,1.2-.49,1.85,1.85,0,0,0,.47-1.33V71h1.09v6H55.33V75.67h.15a2.16,2.16,0,0,1-.8,1.07A2.33,2.33,0,0,1,53.38,77.11Zm6.88,0a5,5,0,0,1-1.37-.19,2.83,2.83,0,0,1-1-.56l.35-.75a3.35,3.35,0,0,0,2.07.68,1.78,1.78,0,0,0,1-.25.78.78,0,0,0,.36-.67.68.68,0,0,0-.23-.54,1.42,1.42,0,0,0-.72-.3l-1.14-.23a2.39,2.39,0,0,1-1.17-.58,1.48,1.48,0,0,1-.38-1,1.63,1.63,0,0,1,.29-.94,1.8,1.8,0,0,1,.81-.64,3.08,3.08,0,0,1,1.26-.24,3.78,3.78,0,0,1,1.23.19,2.42,2.42,0,0,1,.95.56l-.36.73a2.73,2.73,0,0,0-.84-.49,2.57,2.57,0,0,0-.94-.18,1.56,1.56,0,0,0-1,.28.82.82,0,0,0-.34.69.73.73,0,0,0,.21.54,1.35,1.35,0,0,0,.66.32l1.14.22a2.53,2.53,0,0,1,1.21.56,1.33,1.33,0,0,1,.41,1,1.55,1.55,0,0,1-.32,1,1.83,1.83,0,0,1-.85.62A3.28,3.28,0,0,1,60.26,77.11Zm9.13,0A5,5,0,0,1,68,76.92a2.83,2.83,0,0,1-1-.56l.35-.75a3.35,3.35,0,0,0,2.07.68,1.78,1.78,0,0,0,1-.25.78.78,0,0,0,.36-.67.68.68,0,0,0-.23-.54,1.42,1.42,0,0,0-.72-.3l-1.14-.23a2.39,2.39,0,0,1-1.17-.58,1.48,1.48,0,0,1-.38-1,1.63,1.63,0,0,1,.29-.94,1.8,1.8,0,0,1,.81-.64,3.08,3.08,0,0,1,1.26-.24,3.78,3.78,0,0,1,1.23.19,2.42,2.42,0,0,1,.95.56l-.36.73a2.73,2.73,0,0,0-.84-.49,2.57,2.57,0,0,0-.94-.18,1.56,1.56,0,0,0-1,.28.82.82,0,0,0-.34.69.73.73,0,0,0,.21.54,1.35,1.35,0,0,0,.66.32l1.14.22a2.53,2.53,0,0,1,1.21.56,1.33,1.33,0,0,1,.41,1,1.55,1.55,0,0,1-.32,1,1.83,1.83,0,0,1-.85.62A3.28,3.28,0,0,1,69.39,77.11Zm6.67,0a3.12,3.12,0,0,1-2.28-.83A3.08,3.08,0,0,1,73,74a3.6,3.6,0,0,1,.36-1.66,2.75,2.75,0,0,1,1-1.09,2.91,2.91,0,0,1,1.52-.39,2.58,2.58,0,0,1,1.4.36,2.24,2.24,0,0,1,.88,1,3.65,3.65,0,0,1,.3,1.54v.36H73.81v-.65h3.87l-.2.16a2.27,2.27,0,0,0-.42-1.46,1.46,1.46,0,0,0-1.21-.51,1.62,1.62,0,0,0-1.36.61A2.56,2.56,0,0,0,74,73.9V74a2.33,2.33,0,0,0,.54,1.67,2,2,0,0,0,1.52.56,3.29,3.29,0,0,0,1-.15,3,3,0,0,0,.9-.52l.36.76a2.66,2.66,0,0,1-1,.57A3.79,3.79,0,0,1,76.06,77.11Zm5.83,0a5,5,0,0,1-1.36-.19,2.87,2.87,0,0,1-1-.56l.35-.75a3.6,3.6,0,0,0,1,.51,3.48,3.48,0,0,0,1.11.17A1.74,1.74,0,0,0,83,76a.78.78,0,0,0,.36-.67.68.68,0,0,0-.23-.54,1.42,1.42,0,0,0-.72-.3l-1.14-.23a2.31,2.31,0,0,1-1.16-.58,1.44,1.44,0,0,1-.39-1,1.63,1.63,0,0,1,.29-.94,1.83,1.83,0,0,1,.82-.64A3.08,3.08,0,0,1,82,70.86a3.67,3.67,0,0,1,1.22.19,2.35,2.35,0,0,1,.95.56l-.36.73a2.73,2.73,0,0,0-.84-.49,2.53,2.53,0,0,0-.94-.18A1.58,1.58,0,0,0,81,72a.84.84,0,0,0-.33.69.72.72,0,0,0,.2.54,1.45,1.45,0,0,0,.66.32l1.14.22a2.48,2.48,0,0,1,1.21.56,1.33,1.33,0,0,1,.41,1,1.54,1.54,0,0,1-.31,1,1.89,1.89,0,0,1-.85.62A3.33,3.33,0,0,1,81.89,77.11Zm6,0a5,5,0,0,1-1.37-.19,2.75,2.75,0,0,1-1-.56l.35-.75a3.35,3.35,0,0,0,2.07.68,1.72,1.72,0,0,0,1-.25.78.78,0,0,0,.36-.67.67.67,0,0,0-.22-.54,1.51,1.51,0,0,0-.72-.3l-1.14-.23A2.34,2.34,0,0,1,86,73.72a1.48,1.48,0,0,1-.38-1,1.56,1.56,0,0,1,.29-.94,1.8,1.8,0,0,1,.81-.64A3.08,3.08,0,0,1,88,70.86a3.78,3.78,0,0,1,1.23.19,2.31,2.31,0,0,1,.94.56l-.36.73a2.51,2.51,0,0,0-.84-.49,2.48,2.48,0,0,0-.93-.18A1.55,1.55,0,0,0,87,72a.82.82,0,0,0-.34.69.77.77,0,0,0,.2.54,1.45,1.45,0,0,0,.66.32l1.14.22a2.57,2.57,0,0,1,1.22.56,1.32,1.32,0,0,1,.4,1,1.54,1.54,0,0,1-.31,1,1.83,1.83,0,0,1-.85.62A3.28,3.28,0,0,1,87.86,77.11ZM91.78,77V71h1.1v6Zm-.09-7.36V68.47H93v1.17Zm5.56,7.47a3.11,3.11,0,0,1-1.54-.37,2.7,2.7,0,0,1-1-1.08A3.71,3.71,0,0,1,94.34,74a3.57,3.57,0,0,1,.36-1.66,2.58,2.58,0,0,1,1-1.08,3.29,3.29,0,0,1,3.07,0,2.46,2.46,0,0,1,1,1.08,3.57,3.57,0,0,1,.36,1.66,3.71,3.71,0,0,1-.36,1.68,2.57,2.57,0,0,1-1,1.08A3.09,3.09,0,0,1,97.25,77.11Zm0-.87a1.62,1.62,0,0,0,1.3-.57,2.54,2.54,0,0,0,.5-1.69,2.46,2.46,0,0,0-.5-1.68,1.79,1.79,0,0,0-2.62,0A2.51,2.51,0,0,0,95.45,74a2.6,2.6,0,0,0,.48,1.69A1.63,1.63,0,0,0,97.25,76.24Zm4.36.76V72.39c0-.23,0-.47,0-.71s0-.48-.07-.72h1l.12,1.3h-.14a2.15,2.15,0,0,1,.85-1,2.52,2.52,0,0,1,1.35-.36,2.09,2.09,0,0,1,1.61.58,2.63,2.63,0,0,1,.53,1.8V77H105.8V73.3a1.77,1.77,0,0,0-.32-1.18,1.27,1.27,0,0,0-1-.38,1.72,1.72,0,0,0-1.29.5,1.8,1.8,0,0,0-.47,1.33V77Z" style="fill:#fbdcd0"/><path d="M17.16,38V28.13h3.42a6.25,6.25,0,0,1,2.81.57,3.9,3.9,0,0,1,1.75,1.68,5.5,5.5,0,0,1,.6,2.68,5.54,5.54,0,0,1-.6,2.67,3.94,3.94,0,0,1-1.75,1.7,6.25,6.25,0,0,1-2.81.57Zm1.46-1.22h1.87a3.87,3.87,0,0,0,2.83-.92,3.76,3.76,0,0,0,.94-2.8,3.72,3.72,0,0,0-.94-2.79,3.87,3.87,0,0,0-2.83-.92H18.62Zm9,1.22V30.94H29V38Zm-.11-8.53V28h1.64v1.47Zm6.3,8.66a3,3,0,0,1-1.64-.44,2.87,2.87,0,0,1-1.09-1.26,5.24,5.24,0,0,1,0-3.92,2.87,2.87,0,0,1,1.09-1.24,3,3,0,0,1,1.64-.45,2.79,2.79,0,0,1,1.61.46,2.19,2.19,0,0,1,.91,1.26h-.15l.13-1.6h1.38l-.09.87c0,.28,0,.56,0,.83V38H36.13V36.43h.15a2.13,2.13,0,0,1-.92,1.25A2.81,2.81,0,0,1,33.78,38.13ZM34.13,37a1.79,1.79,0,0,0,1.45-.64,2.81,2.81,0,0,0,.57-1.91,2.74,2.74,0,0,0-.57-1.89,1.79,1.79,0,0,0-1.45-.64,1.85,1.85,0,0,0-1.48.64,2.79,2.79,0,0,0-.55,1.89,2.86,2.86,0,0,0,.55,1.91A1.82,1.82,0,0,0,34.13,37Zm5.45,1V32.69c0-.29,0-.57,0-.86s0-.6,0-.89h1.37L41,32.76H40.8a2.71,2.71,0,0,1,.47-1.09,2.11,2.11,0,0,1,.82-.64,2.52,2.52,0,0,1,1-.21,2.09,2.09,0,0,1,.38,0,1.57,1.57,0,0,1,.3,0v1.26a1.64,1.64,0,0,0-.42-.11,2.42,2.42,0,0,0-.42,0,2,2,0,0,0-1,.28,1.73,1.73,0,0,0-.66.73A2.24,2.24,0,0,0,41,34v4Zm5.52,3.18L44.76,40a5.33,5.33,0,0,0,1.1-.34,2.32,2.32,0,0,0,.74-.51,3,3,0,0,0,.5-.8l.35-.83,0,.58-3.06-7.19h1.51l2.38,5.88h-.38l2.38-5.88h1.46L48.47,38.5a6.13,6.13,0,0,1-.65,1.18,3.71,3.71,0,0,1-.76.77,3.19,3.19,0,0,1-.9.46A7.45,7.45,0,0,1,45.1,41.18Z" style="fill:#fff"/></g></svg>