<svg xmlns="http://www.w3.org/2000/svg" viewBox="0 0 71.73 42"><title>drugs</title><path d="M19.88,26.67h9.51v-3a.77.77,0,0,0-.68-.82H20.43a.62.62,0,0,0-.55.67Z" transform="translate(-8 -9.47)" style="fill:#b9cae8;fill-rule:evenodd"/><path d="M57.89,39.23v9.39a2.16,2.16,0,0,0,2,2.29H77.76a2.16,2.16,0,0,0,2-2.29V39.23a2.16,2.16,0,0,0-2-2.29H59.87a2.16,2.16,0,0,0-2,2.29" transform="translate(-8 -9.47)" style="fill:#b9cae8;fill-rule:evenodd"/><path d="M59.8,43.93c0,.07.11.13.24.13H77.77c.13,0,.23-.06.23-.13s-.1-.14-.23-.14H60C59.91,43.79,59.8,43.85,59.8,43.93Z" transform="translate(-8 -9.47)" style="fill:#e1e9f6;fill-rule:evenodd"/><path d="M60.56,42.55a1.33,1.33,0,0,0,1.86,0L64.77,40a1.31,1.31,0,0,0-1.9-1.81l-2.35,2.46a1.3,1.3,0,0,0-.36.94,1.32,1.32,0,0,0,.4.92" transform="translate(-8 -9.47)" style="fill:#aabcdc;fill-rule:evenodd"/><path d="M60.87,42.22a.85.85,0,0,0,.62.24.84.84,0,0,0,.61-.27l2.35-2.46a.88.88,0,0,0,.24-.62.86.86,0,0,0-1.49-.57L60.84,41a.89.89,0,0,0-.23.62.85.85,0,0,0,.26.6" transform="translate(-8 -9.47)" style="fill:#f9cd55"/><path d="M60.87,42.22a.85.85,0,0,1-.26-.6.89.89,0,0,1,.23-.62L62,39.78,63.26,41,62.1,42.2a.87.87,0,0,1-.61.26.85.85,0,0,1-.62-.24" transform="translate(-8 -9.47)" style="fill:#f44d11"/><path d="M64.45,39.73,63.26,41l-.62-.59,1.79-1.86a.87.87,0,0,1,.26.6.85.85,0,0,1-.24.61" transform="translate(-8 -9.47)" style="fill:#f9cd55"/><path d="M62.1,42.2a.88.88,0,0,1-1.22,0l1.76-1.85.62.59Z" transform="translate(-8 -9.47)" style="fill:#f44d11"/><path d="M62.21,40,61,41.25a.16.16,0,0,0-.06.08.3.3,0,0,0,0,.1.29.29,0,0,0,0,.09.24.24,0,0,0,.06.09l.08,0a.17.17,0,0,0,.1,0l.1,0a.24.24,0,0,0,.08-.06l1.22-1.28Z" transform="translate(-8 -9.47)" style="fill:#ffa484;fill-rule:evenodd"/><path d="M62.71,39.44l-.5.53.36.34.5-.52a.28.28,0,0,0,.06-.18.25.25,0,0,0-.08-.17.24.24,0,0,0-.17-.07A.26.26,0,0,0,62.71,39.44Z" transform="translate(-8 -9.47)" style="fill:#ffebbc;fill-rule:evenodd"/><path d="M64.57,42.55a1.3,1.3,0,0,0,.94.36,1.29,1.29,0,0,0,.92-.41L68.78,40a1.27,1.27,0,0,0,.33-.93,1.29,1.29,0,0,0-.4-.89,1.33,1.33,0,0,0-.92-.37,1.4,1.4,0,0,0-.91.37l-2.35,2.47a1.3,1.3,0,0,0-.36.94,1.34,1.34,0,0,0,.4.92" transform="translate(-8 -9.47)" style="fill:#aabcdc;fill-rule:evenodd"/><path d="M64.88,42.22a.85.85,0,0,0,.62.24.87.87,0,0,0,.61-.26l2.35-2.47a.84.84,0,0,0,.18-.28.89.89,0,0,0,0-.67.86.86,0,0,0-.2-.27.84.84,0,0,0-.28-.18.79.79,0,0,0-.34-.06,1,1,0,0,0-.33.07,1.05,1.05,0,0,0-.27.2L64.86,41a1,1,0,0,0-.19.29.72.72,0,0,0,0,.33.78.78,0,0,0,.07.33.88.88,0,0,0,.19.27" transform="translate(-8 -9.47)" style="fill:#f9cd55"/><path d="M64.88,42.22a.83.83,0,0,1-.19-.27.78.78,0,0,1-.07-.33.72.72,0,0,1,0-.33,1,1,0,0,1,.18-.29L66,39.78,67.27,41,66.11,42.2a.87.87,0,0,1-.61.26.85.85,0,0,1-.62-.24" transform="translate(-8 -9.47)" style="fill:#f44d11"/><path d="M68.46,39.73,67.27,41l-.62-.6,1.78-1.86a.84.84,0,0,1,.27.6.85.85,0,0,1-.24.61" transform="translate(-8 -9.47)" style="fill:#f9cd55"/><path d="M66.11,42.2a.88.88,0,0,1-1.22,0l1.76-1.85.62.59Z" transform="translate(-8 -9.47)" style="fill:#f44d11"/><path d="M66.22,40,65,41.25a.25.25,0,0,0-.06.17.25.25,0,0,0,.08.17.24.24,0,0,0,.17.07.28.28,0,0,0,.17-.07l1.22-1.28Z" transform="translate(-8 -9.47)" style="fill:#ffa484;fill-rule:evenodd"/><path d="M66.72,39.44l-.5.53.36.34.5-.52a.28.28,0,0,0,.06-.18.25.25,0,0,0-.08-.17.24.24,0,0,0-.34,0Z" transform="translate(-8 -9.47)" style="fill:#ffebbc;fill-rule:evenodd"/><path d="M68.58,42.55a1.33,1.33,0,0,0,1.86,0L72.79,40a1.33,1.33,0,0,0,.32-.92,1.35,1.35,0,0,0-.41-.88,1.33,1.33,0,0,0-1.81,0l-2.35,2.46a1.3,1.3,0,0,0-.36.94,1.32,1.32,0,0,0,.4.92" transform="translate(-8 -9.47)" style="fill:#aabcdc;fill-rule:evenodd"/><path d="M68.89,42.22a.85.85,0,0,0,.62.24.84.84,0,0,0,.61-.27l2.35-2.46a.88.88,0,0,0,.23-.61.84.84,0,0,0-.27-.6.86.86,0,0,0-1.21,0L68.86,41a.89.89,0,0,0-.23.62.85.85,0,0,0,.26.6" transform="translate(-8 -9.47)" style="fill:#f9cd55"/><path d="M68.89,42.22a.9.9,0,0,1-.27-.6.94.94,0,0,1,.24-.62L70,39.78,71.28,41,70.11,42.2a.83.83,0,0,1-.6.26.85.85,0,0,1-.62-.24" transform="translate(-8 -9.47)" style="fill:#f44d11"/><path d="M72.47,39.73,71.28,41l-.62-.59,1.79-1.86a.87.87,0,0,1,.26.6.85.85,0,0,1-.24.61" transform="translate(-8 -9.47)" style="fill:#f9cd55"/><path d="M70.12,42.2a.87.87,0,0,1-.61.26.86.86,0,0,1-.61-.23l1.76-1.85.62.59Z" transform="translate(-8 -9.47)" style="fill:#f44d11"/><path d="M70.23,40,69,41.25a.24.24,0,0,0-.06.08.3.3,0,0,0,0,.1.29.29,0,0,0,0,.09l.06.08a.16.16,0,0,0,.08.06h.1l.1,0,.08-.06,1.22-1.28Z" transform="translate(-8 -9.47)" style="fill:#ffa484;fill-rule:evenodd"/><path d="M70.73,39.44l-.5.53.36.34.5-.52a.28.28,0,0,0,.06-.18.25.25,0,0,0-.08-.17.24.24,0,0,0-.34,0Z" transform="translate(-8 -9.47)" style="fill:#ffebbc;fill-rule:evenodd"/><path d="M72.59,42.55a1.3,1.3,0,0,0,.94.36,1.32,1.32,0,0,0,.92-.4L76.8,40a1.23,1.23,0,0,0,.28-.43,1.1,1.1,0,0,0,.09-.51,1.25,1.25,0,0,0-.11-.5,1.3,1.3,0,0,0-.73-.7,1.43,1.43,0,0,0-.5-.09,1.46,1.46,0,0,0-.51.12,1.25,1.25,0,0,0-.42.3l-2.35,2.46a1.3,1.3,0,0,0-.36.94,1.28,1.28,0,0,0,.4.92" transform="translate(-8 -9.47)" style="fill:#aabcdc;fill-rule:evenodd"/><path d="M72.9,42.22a.85.85,0,0,0,.62.24.84.84,0,0,0,.61-.27l2.35-2.46a.88.88,0,0,0,.23-.61.84.84,0,0,0-.27-.6.86.86,0,0,0-1.21,0L72.88,41a.87.87,0,0,0,0,1.22" transform="translate(-8 -9.47)" style="fill:#f9cd55"/><path d="M72.9,42.22a.85.85,0,0,1-.26-.6.89.89,0,0,1,.23-.62L74,39.78,75.29,41,74.13,42.2a.87.87,0,0,1-.61.26.85.85,0,0,1-.62-.24" transform="translate(-8 -9.47)" style="fill:#f44d11"/><path d="M76.48,39.73,75.29,41l-.62-.59,1.78-1.86a.84.84,0,0,1,.27.6.85.85,0,0,1-.24.61" transform="translate(-8 -9.47)" style="fill:#f9cd55"/><path d="M74.13,42.2a.87.87,0,0,1-.61.26.86.86,0,0,1-.61-.23l1.76-1.85.62.59Z" transform="translate(-8 -9.47)" style="fill:#f44d11"/><path d="M74.24,40,73,41.25a.25.25,0,0,0-.06.17.25.25,0,0,0,.08.17.24.24,0,0,0,.17.07.28.28,0,0,0,.17-.07l1.22-1.28Z" transform="translate(-8 -9.47)" style="fill:#ffa484;fill-rule:evenodd"/><path d="M74.74,39.44l-.5.53.36.34.5-.52a.28.28,0,0,0,.06-.18.25.25,0,0,0-.08-.17.24.24,0,0,0-.17-.07.28.28,0,0,0-.17.07" transform="translate(-8 -9.47)" style="fill:#ffebbc;fill-rule:evenodd"/><path d="M60.56,49.67a1.32,1.32,0,0,0,.94.36,1.28,1.28,0,0,0,.92-.4l2.35-2.46a1.4,1.4,0,0,0,.29-.44,1.44,1.44,0,0,0,.09-.51,1.25,1.25,0,0,0-.11-.5,1.28,1.28,0,0,0-.3-.43,1.21,1.21,0,0,0-.43-.27,1.52,1.52,0,0,0-.51-.09,1.46,1.46,0,0,0-.51.12,1.35,1.35,0,0,0-.42.3l-2.35,2.46a1.33,1.33,0,0,0,0,1.86" transform="translate(-8 -9.47)" style="fill:#aabcdc;fill-rule:evenodd"/><path d="M60.87,49.35a.89.89,0,0,0,.62.23.87.87,0,0,0,.61-.26l2.35-2.47a.75.75,0,0,0,.18-.28.8.8,0,0,0,.07-.34,1,1,0,0,0-.08-.33.87.87,0,0,0-.19-.28.79.79,0,0,0-.29-.18,1,1,0,0,0-.33-.06,1,1,0,0,0-.34.08,1.05,1.05,0,0,0-.27.2l-2.36,2.46a.89.89,0,0,0-.23.62.87.87,0,0,0,.26.61" transform="translate(-8 -9.47)" style="fill:#f9cd55"/><path d="M60.87,49.35a.87.87,0,0,1-.26-.61.89.89,0,0,1,.23-.62L62,46.9l1.25,1.2L62.1,49.32a.93.93,0,0,1-.61.27.89.89,0,0,1-.62-.24" transform="translate(-8 -9.47)" style="fill:#f44d11"/><path d="M64.45,46.86,63.26,48.1l-.62-.6,1.78-1.86a.86.86,0,0,1,.27.6A.89.89,0,0,1,64.45,46.86Z" transform="translate(-8 -9.47)" style="fill:#f9cd55"/><path d="M62.1,49.32a.93.93,0,0,1-.61.27.89.89,0,0,1-.61-.24l1.76-1.85.62.6Z" transform="translate(-8 -9.47)" style="fill:#f44d11"/><path d="M62.21,47.09,61,48.37a.24.24,0,0,0-.06.08.3.3,0,0,0,0,.1.36.36,0,0,0,0,.1.16.16,0,0,0,.06.08l.08.05.1,0a.17.17,0,0,0,.1,0,.16.16,0,0,0,.08-.06l1.22-1.28Z" transform="translate(-8 -9.47)" style="fill:#ffa484;fill-rule:evenodd"/><path d="M62.71,46.57l-.5.52.36.34.5-.52a.27.27,0,0,0,.06-.17.25.25,0,0,0-.08-.17.28.28,0,0,0-.17-.07.22.22,0,0,0-.17.07" transform="translate(-8 -9.47)" style="fill:#ffebbc;fill-rule:evenodd"/><path d="M64.57,49.67a1.3,1.3,0,0,0,.94.36,1.28,1.28,0,0,0,.92-.4l2.35-2.46a1.33,1.33,0,0,0,.33-.93,1.3,1.3,0,0,0-.41-.89,1.29,1.29,0,0,0-.91-.37,1.3,1.3,0,0,0-.91.37l-2.35,2.46a1.3,1.3,0,0,0-.36.94,1.32,1.32,0,0,0,.4.92" transform="translate(-8 -9.47)" style="fill:#aabcdc;fill-rule:evenodd"/><path d="M64.88,49.35a.94.94,0,0,0,.62.24.93.93,0,0,0,.61-.27l2.35-2.47a.75.75,0,0,0,.18-.28,1,1,0,0,0,.06-.33.73.73,0,0,0-.08-.33.77.77,0,0,0-.19-.28.84.84,0,0,0-.28-.18,1,1,0,0,0-.34-.06,1,1,0,0,0-.33.08.83.83,0,0,0-.27.19l-2.35,2.47a.92.92,0,0,0-.19.28.76.76,0,0,0,0,.33.72.72,0,0,0,.07.33.92.92,0,0,0,.19.28" transform="translate(-8 -9.47)" style="fill:#f9cd55"/><path d="M64.88,49.35a.87.87,0,0,1-.19-.28.75.75,0,0,1-.07-.33.74.74,0,0,1,0-.33,1.08,1.08,0,0,1,.18-.29L66,46.9l1.25,1.2-1.16,1.22a.93.93,0,0,1-.61.27.89.89,0,0,1-.62-.24" transform="translate(-8 -9.47)" style="fill:#f44d11"/><path d="M68.46,46.85,67.27,48.1l-.62-.6,1.78-1.86a.84.84,0,0,1,.27.6.85.85,0,0,1-.24.61" transform="translate(-8 -9.47)" style="fill:#f9cd55"/><path d="M66.11,49.32a.93.93,0,0,1-.61.27.89.89,0,0,1-.61-.24l1.76-1.85.62.6Z" transform="translate(-8 -9.47)" style="fill:#f44d11"/><path d="M66.22,47.09,65,48.37l-.06.08a.3.3,0,0,0,0,.1.36.36,0,0,0,0,.1l.06.08.08.05.1,0a.17.17,0,0,0,.1,0,.16.16,0,0,0,.08-.06l1.22-1.28Z" transform="translate(-8 -9.47)" style="fill:#ffa484;fill-rule:evenodd"/><path d="M66.72,46.57l-.5.52.36.34.5-.52a.27.27,0,0,0,.06-.17.25.25,0,0,0-.08-.17.28.28,0,0,0-.17-.07.22.22,0,0,0-.17.07" transform="translate(-8 -9.47)" style="fill:#ffebbc;fill-rule:evenodd"/><path d="M68.58,49.67a1.32,1.32,0,0,0,.94.36,1.28,1.28,0,0,0,.92-.4l2.35-2.46a1.3,1.3,0,0,0-.06-1.84,1.33,1.33,0,0,0-.92-.37,1.39,1.39,0,0,0-.92.39l-2.35,2.46a1.33,1.33,0,0,0,0,1.86" transform="translate(-8 -9.47)" style="fill:#aabcdc;fill-rule:evenodd"/><path d="M68.89,49.35a.94.94,0,0,0,.62.24.93.93,0,0,0,.61-.27l2.35-2.46a.89.89,0,0,0,.24-.62.88.88,0,0,0-.27-.61.89.89,0,0,0-.62-.24.86.86,0,0,0-.6.27l-2.35,2.47a.81.81,0,0,0-.24.61.87.87,0,0,0,.26.61" transform="translate(-8 -9.47)" style="fill:#f9cd55"/><path d="M68.89,49.35a.93.93,0,0,1-.27-.61.94.94,0,0,1,.24-.62L70,46.9l1.25,1.2-1.17,1.22a.88.88,0,0,1-.6.27.89.89,0,0,1-.62-.24" transform="translate(-8 -9.47)" style="fill:#f44d11"/><path d="M72.47,46.86,71.28,48.1l-.62-.6,1.79-1.86a.87.87,0,0,1,0,1.22Z" transform="translate(-8 -9.47)" style="fill:#f9cd55"/><path d="M70.12,49.32a.93.93,0,0,1-.61.27.87.87,0,0,1-.61-.24l1.76-1.85.62.6Z" transform="translate(-8 -9.47)" style="fill:#f44d11"/><path d="M70.23,47.09,69,48.37a.24.24,0,0,0-.06.08.3.3,0,0,0,0,.1.44.44,0,0,0,0,.1l.06.08.08.05.1,0a.29.29,0,0,0,.1,0,.16.16,0,0,0,.08-.06l1.22-1.28Z" transform="translate(-8 -9.47)" style="fill:#ffa484;fill-rule:evenodd"/><path d="M70.73,46.57l-.5.52.36.34.5-.52a.27.27,0,0,0,.06-.17.25.25,0,0,0-.08-.17.28.28,0,0,0-.17-.07.22.22,0,0,0-.17.07" transform="translate(-8 -9.47)" style="fill:#ffebbc;fill-rule:evenodd"/><path d="M72.59,49.67a1.3,1.3,0,0,0,.94.36,1.28,1.28,0,0,0,.92-.4l2.35-2.47a1.23,1.23,0,0,0,.28-.43,1.43,1.43,0,0,0,.09-.5,1.35,1.35,0,0,0-.11-.5,1.25,1.25,0,0,0-.3-.42,1.23,1.23,0,0,0-.43-.28,1.44,1.44,0,0,0-.51-.09,1.72,1.72,0,0,0-.5.11,1.35,1.35,0,0,0-.42.3l-2.35,2.46a1.3,1.3,0,0,0-.36.94,1.28,1.28,0,0,0,.4.92" transform="translate(-8 -9.47)" style="fill:#aabcdc;fill-rule:evenodd"/><path d="M72.9,49.35a.94.94,0,0,0,.62.24.93.93,0,0,0,.61-.27l2.35-2.46a.89.89,0,0,0,.24-.62.87.87,0,0,0-.89-.85.86.86,0,0,0-.6.27l-2.35,2.47a.81.81,0,0,0-.24.61.87.87,0,0,0,.26.61" transform="translate(-8 -9.47)" style="fill:#f9cd55"/><path d="M72.9,49.35a.87.87,0,0,1-.26-.61.89.89,0,0,1,.23-.62L74,46.9l1.25,1.2-1.16,1.22a.93.93,0,0,1-.61.27.89.89,0,0,1-.62-.24" transform="translate(-8 -9.47)" style="fill:#f44d11"/><path d="M76.48,46.86,75.29,48.1l-.62-.6,1.78-1.86a.86.86,0,0,1,.27.6A.89.89,0,0,1,76.48,46.86Z" transform="translate(-8 -9.47)" style="fill:#f9cd55"/><path d="M74.13,49.32a.93.93,0,0,1-.61.27.87.87,0,0,1-.61-.24l1.76-1.85.62.6Z" transform="translate(-8 -9.47)" style="fill:#f44d11"/><path d="M74.24,47.09,73,48.37l-.06.08a.3.3,0,0,0,0,.1.36.36,0,0,0,0,.1l.06.08.08.05.1,0a.17.17,0,0,0,.1,0,.16.16,0,0,0,.08-.06l1.22-1.28Z" transform="translate(-8 -9.47)" style="fill:#ffa484;fill-rule:evenodd"/><path d="M74.74,46.57l-.5.52.36.34.5-.52a.27.27,0,0,0,.06-.17.25.25,0,0,0-.08-.17.28.28,0,0,0-.17-.07.26.26,0,0,0-.17.07" transform="translate(-8 -9.47)" style="fill:#ffebbc;fill-rule:evenodd"/><path d="M58.55,41.69v4.47a.18.18,0,0,0,.05.12.15.15,0,0,0,.11,0,.16.16,0,0,0,.12,0,.18.18,0,0,0,.05-.12V41.69a.17.17,0,0,0-.17-.17.16.16,0,0,0-.11,0A.17.17,0,0,0,58.55,41.69Z" transform="translate(-8 -9.47)" style="fill:#e1e9f6;fill-rule:evenodd"/><path d="M78.78,41.69v4.47a.17.17,0,0,0,.17.17.16.16,0,0,0,.11,0,.17.17,0,0,0,0-.12V41.69a.17.17,0,0,0,0-.12.16.16,0,0,0-.11,0,.17.17,0,0,0-.17.17Z" transform="translate(-8 -9.47)" style="fill:#e1e9f6;fill-rule:evenodd"/><path d="M41.52,11H31.32v1.15h10.2Z" transform="translate(-8 -9.47)" style="fill:#b9cae8"/><path d="M31.3,10.8H30.12v1.51H31.3a.27.27,0,0,0,.28-.28v-.95a.3.3,0,0,0-.08-.2A.32.32,0,0,0,31.3,10.8Z" transform="translate(-8 -9.47)" style="fill:#b9cae8;fill-rule:evenodd"/><path d="M35.56,19.61h8.3a4,4,0,0,1,3.92,4.1v23a4,4,0,0,1-3.92,4.1h-8.3a4,4,0,0,1-3.92-4.1v-23A4,4,0,0,1,35.56,19.61Z" transform="translate(-8 -9.47)" style="fill:#4cb5ff;fill-rule:evenodd"/><path d="M35.56,19.61h5.16a4,4,0,0,1,3.92,4.1v23a4,4,0,0,1-3.92,4.1H35.56a4,4,0,0,1-3.92-4.1v-23A4,4,0,0,1,35.56,19.61Z" transform="translate(-8 -9.47)" style="fill:#83c9ff;fill-rule:evenodd"/><path d="M43.17,13.73H36.25v1.35h6.92Z" transform="translate(-8 -9.47)" style="fill:#b9cae8"/><path d="M35.18,19.61h9.06a1.33,1.33,0,0,0,1.35-1.34V16.43a1.35,1.35,0,0,0-1.35-1.35H35.18a1.35,1.35,0,0,0-1.35,1.35v1.84a1.33,1.33,0,0,0,1.35,1.34Z" transform="translate(-8 -9.47)" style="fill:#b9cae8;fill-rule:evenodd"/><path d="M35.53,19.61h7a1.36,1.36,0,0,0,1-.39,1.37,1.37,0,0,0,.39-.95V16.43a1.34,1.34,0,0,0-.39-.95,1.32,1.32,0,0,0-1-.4h-7a1.31,1.31,0,0,0-1,.4,1.39,1.39,0,0,0-.4.95v1.84a1.43,1.43,0,0,0,.4.95A1.34,1.34,0,0,0,35.53,19.61Z" transform="translate(-8 -9.47)" style="fill:#e3ecff;fill-rule:evenodd"/><path d="M47.78,28.22H32V42.59h15.8Z" transform="translate(-8 -9.47)" style="fill:#e8efff"/><path d="M47.78,28.22H44.65V42.59h3.13Z" transform="translate(-8 -9.47)" style="fill:#c8d9fa"/><path d="M34.23,24.6a.83.83,0,0,1,.59.25.83.83,0,0,1,.24.58v2.79H33.4V25.43a.85.85,0,0,1,.83-.83Z" transform="translate(-8 -9.47)" style="fill:#bce1ff;fill-rule:evenodd"/><path d="M35.06,28.22v9.06a.9.9,0,0,1-.25.58.85.85,0,0,1-1.16,0,.9.9,0,0,1-.25-.58V28.22Z" transform="translate(-8 -9.47)" style="fill:#fff;fill-rule:evenodd"/><path d="M36.43,14.13H43c.6,0,1.25-.51,1.09-1.09l-.68-2.48c-.15-.58-.48-1.09-1.08-1.09H37c-.59,0-.94.51-1.08,1.09L35.34,13c-.15.58.49,1.09,1.08,1.09" transform="translate(-8 -9.47)" style="fill:#b9cae8;fill-rule:evenodd"/><path d="M36.77,14.13h4.65c.6,0,1.24-.51,1.09-1.09l-.68-2.48c-.16-.58-.49-1.09-1.09-1.09H37.39c-.6,0-.94.51-1.09,1.09L35.69,13c-.15.58.48,1.09,1.08,1.09" transform="translate(-8 -9.47)" style="fill:#e3ecff;fill-rule:evenodd"/><path d="M40.87,11.25H31.58v.34h9.29Z" transform="translate(-8 -9.47)" style="fill:#e3ecff"/><path d="M52,28.28h11.1c1.43,0,2.61,2,2.61,3.4V48.26a2.62,2.62,0,0,1-2.61,2.61H52a2.61,2.61,0,0,1-2.61-2.61V31.68c0-1.44,1.17-3.4,2.61-3.4" transform="translate(-8 -9.47)" style="fill:#5074b0;fill-rule:evenodd"/><path d="M52,28.28h8.19a5.49,5.49,0,0,1,1.9,3.5c0,.52,0,16.55,0,16.55a3.89,3.89,0,0,1-1.25,2.28l-.31.26H52a2.61,2.61,0,0,1-2.61-2.61V31.68c0-1.44,1.17-3.4,2.61-3.4" transform="translate(-8 -9.47)" style="fill:#6c8ac5;fill-rule:evenodd"/><path d="M52,28.28h8.19l.26.25H51.08A1.9,1.9,0,0,1,52,28.28Z" transform="translate(-8 -9.47)" style="fill:#5074b0;fill-rule:evenodd"/><path d="M51.31,28.28H63.73a.32.32,0,0,0,.21-.08A.33.33,0,0,0,64,28v-.64a.31.31,0,0,0-.09-.2.29.29,0,0,0-.21-.09H51.31a.27.27,0,0,0-.21.09.27.27,0,0,0-.09.2V28a.29.29,0,0,0,.09.21.3.3,0,0,0,.21.08" transform="translate(-8 -9.47)" style="fill:#e3ecff;fill-rule:evenodd"/><path d="M51.57,27.06h11.9V24a.86.86,0,0,0-.25-.6.87.87,0,0,0-.6-.24H52.27a.68.68,0,0,0-.7.69Z" transform="translate(-8 -9.47)" style="fill:#b9cae8;fill-rule:evenodd"/><path d="M61.08,23.12H52.27a.8.8,0,0,0-.7.87v2.55h.74V24.17a.29.29,0,1,1,.57,0v2.37h.63V24.17a.29.29,0,1,1,.57,0v2.37h.64V24.17a.29.29,0,1,1,.56,0v2.37h.64V24.17a.29.29,0,1,1,.57,0v2.37h.63V24.17a.29.29,0,1,1,.57,0v2.37h.63V24.17a.29.29,0,1,1,.57,0v2.37h.64V24.17a.29.29,0,1,1,.56,0v2.37h1Z" transform="translate(-8 -9.47)" style="fill:#e3ecff;fill-rule:evenodd"/><path d="M65.68,33.35H49.36V47.74H65.68Z" transform="translate(-8 -9.47)" style="fill:#ba3f0d"/><path d="M49.3,33.35H62.07c0,3.57,0,12.08,0,14.39H49.3Z" transform="translate(-8 -9.47)" style="fill:#ec6632;fill-rule:evenodd"/><path d="M52.77,30.35a1.21,1.21,0,0,1,.85.35,1.19,1.19,0,0,1,.35.85v9.92a1.2,1.2,0,0,1-1.2,1.2,1.23,1.23,0,0,1-.85-.35,1.25,1.25,0,0,1-.35-.85V31.55a1.2,1.2,0,0,1,1.2-1.2" transform="translate(-8 -9.47)" style="fill:#94add9;fill-rule:evenodd"/><path d="M54,33.35v8.11a1.2,1.2,0,0,1-1.2,1.21,1.23,1.23,0,0,1-.85-.35,1.25,1.25,0,0,1-.35-.86V33.35Z" transform="translate(-8 -9.47)" style="fill:#ff8b61;fill-rule:evenodd"/><path d="M62.07,44.3H49.3v2.07H62.07Z" transform="translate(-8 -9.47)" style="fill:#6c8ac5"/><path d="M65.68,44.3H62.07v2.1h3.61Z" transform="translate(-8 -9.47)" style="fill:#5074b0"/><path d="M20.2,28h8.87V49.15a1.47,1.47,0,0,1-1.47,1.46H21.82A1.6,1.6,0,0,1,20.2,49Z" transform="translate(-8 -9.47)" style="fill:#ff671b;fill-rule:evenodd"/><path d="M20.2,28h8V48.6c0,1.11-.65,2-1.46,2H21.82c-.89,0-1.62-1-1.62-2.23Z" transform="translate(-8 -9.47)" style="fill:#ff8045;fill-rule:evenodd"/><path d="M29.07,27.56H20.2v.75h8.87Z" transform="translate(-8 -9.47)" style="fill:#ff671b"/><path d="M19.85,27.57h9.56a.2.2,0,0,0,.16-.07.21.21,0,0,0,.07-.15v-.46a.24.24,0,0,0-.07-.16.23.23,0,0,0-.16-.06H19.85a.25.25,0,0,0-.16.06.29.29,0,0,0-.07.16v.46a.26.26,0,0,0,.07.15A.21.21,0,0,0,19.85,27.57Z" transform="translate(-8 -9.47)" style="fill:#b9cae8;fill-rule:evenodd"/><path d="M20.08,26.67h9.31V23.84a.77.77,0,0,0-.68-.82H20.64c-.31,0-.56.13-.56.68Z" transform="translate(-8 -9.47)" style="fill:#e3ecff;fill-rule:evenodd"/><path d="M29.07,34.87H20.2v8.92h8.87Z" transform="translate(-8 -9.47)" style="fill:#c8d9f5"/><path d="M28.2,34.87H20.45v8.92H28.2Z" transform="translate(-8 -9.47)" style="fill:#dfe8f7"/><path d="M22.65,43.62v2.13a.79.79,0,0,1-.66.87c-.37,0-.66-.39-.66-.87V32.62c0-.48.29-.87.66-.87a.79.79,0,0,1,.66.87Z" transform="translate(-8 -9.47)" style="fill:#fb9e72;fill-rule:evenodd"/><path d="M21.61,24.06a.16.16,0,0,1,.11.05.12.12,0,0,1,.05.1v1.63a.12.12,0,0,1-.05.1.16.16,0,0,1-.27-.1V24.21a.16.16,0,0,1,.05-.11.21.21,0,0,1,.11,0m.76,0a.21.21,0,0,1,.11,0,.16.16,0,0,1,.05.11v1.63a.12.12,0,0,1-.05.1.15.15,0,0,1-.22,0,.12.12,0,0,1-.05-.1V24.21a.12.12,0,0,1,.05-.1.16.16,0,0,1,.11-.05Zm0,0a.16.16,0,0,1,.11.05.12.12,0,0,1,.05.1v1.63a.22.22,0,0,1-.05.11.17.17,0,0,1-.22,0,.16.16,0,0,1-.05-.11V24.21a.46.46,0,0,1,.08-.34.46.46,0,0,1,.3-.19.46.46,0,0,1,.34.08.46.46,0,0,1,.19.3Zm.75,0a.16.16,0,0,1,.11.05.12.12,0,0,1,.05.1v1.63a.16.16,0,0,1-.05.11A.17.17,0,0,1,23,26a.16.16,0,0,1-.05-.11V24.21a.46.46,0,0,1,.08-.34.46.46,0,0,1,.3-.19.47.47,0,0,1,.35.08.46.46,0,0,1,.19.3Zm.76,0a.17.17,0,0,1,.16.15v1.63A.22.22,0,0,1,24,26a.17.17,0,0,1-.22,0,.16.16,0,0,1-.05-.11V24.21a.46.46,0,0,1,.08-.34.46.46,0,0,1,.3-.19.46.46,0,0,1,.34.08.46.46,0,0,1,.19.3Zm.75,0a.46.46,0,0,1,.19-.3.46.46,0,0,1,.34-.08.48.48,0,0,1,.31.19.46.46,0,0,1,.08.34v1.63a.22.22,0,0,1-.05.11.21.21,0,0,1-.11,0,.18.18,0,0,1-.11,0,.16.16,0,0,1-.05-.11V24.21a.12.12,0,0,1,.05-.1.14.14,0,0,1,.11-.05Zm.76,0a.17.17,0,0,1,.16.15v1.63a.22.22,0,0,1-.05.11.15.15,0,0,1-.11,0,.16.16,0,0,1-.12,0,.15.15,0,0,1,0-.11V24.21a.46.46,0,0,1,.08-.34.46.46,0,0,1,.3-.19.46.46,0,0,1,.34.08.46.46,0,0,1,.19.3Zm.75,0a.16.16,0,0,1,.11.05.12.12,0,0,1,.05.1v1.63a.16.16,0,0,1-.05.11A.17.17,0,0,1,26,26a.16.16,0,0,1-.05-.11V24.21a.46.46,0,0,1,.08-.34.46.46,0,0,1,.3-.19.48.48,0,0,1,.35.08.51.51,0,0,1,.19.3Zm.75,0a.17.17,0,0,1,.12.05.12.12,0,0,1,0,.1v1.63A.16.16,0,0,1,27,26a.12.12,0,0,1-.11,0,.14.14,0,0,1-.15-.15V24.21a.42.42,0,0,1,.08-.34.46.46,0,0,1,.3-.19.46.46,0,0,1,.34.08.46.46,0,0,1,.19.3Zm.76,0a.49.49,0,0,1,.06-.17.53.53,0,0,1,.13-.13.46.46,0,0,1,.16-.07.37.37,0,0,1,.18,0,.49.49,0,0,1,.17.06.53.53,0,0,1,.13.13.48.48,0,0,1,.08.16.54.54,0,0,1,0,.18v1.63a.16.16,0,0,1,0,.11.17.17,0,0,1-.22,0,.22.22,0,0,1-.05-.11V24.21a.17.17,0,0,1,.16-.15Zm-7.55,0a.14.14,0,0,1,.11.05.12.12,0,0,1,.05.1v1.63a.16.16,0,0,1-.05.11A.17.17,0,0,1,20,26a.22.22,0,0,1,0-.11V24.21a.46.46,0,0,1,.08-.34.48.48,0,0,1,.31-.19.46.46,0,0,1,.34.08.46.46,0,0,1,.19.3Z" transform="translate(-8 -9.47)" style="fill:#b9cae8;fill-rule:evenodd"/><path d="M22.65,34.87H21.33v8.92h1.32Z" transform="translate(-8 -9.47)" style="fill:#fff"/><path d="M29.39,26.35H19.88v.32h9.51Z" transform="translate(-8 -9.47)" style="fill:#b9cae8"/><path d="M8.83,42.14H8.72l-.09,0h0l0,0-.06,0,0,0s0,0,0,0h0l0,0v0h0a.36.36,0,0,1,0-.11v0h0v-.06h0V39.4h0v0s0-.05,0-.08v0a.25.25,0,0,1,0-.07h0l0,0,0,0h0l0,0h0l0,0h0L8.68,39a.29.29,0,0,1,.1,0H20.46a.27.27,0,0,1,.13,0h0l.07,0h0l.07,0h0l.06.07h0a.43.43,0,0,1,0,.07h0v0h0s0,0,0,.06v0h0v0h0a.36.36,0,0,1,0,.11h0v2.16h0a.5.5,0,0,1,0,.12h0v0h0v0s0,0,0,0h0a.43.43,0,0,1,0,.07h0l-.06.06h0l-.09.06h-.09l-.07,0H8.83" transform="translate(-8 -9.47)" style="fill:#6c8ac5;fill-rule:evenodd"/><path d="M9.14,42.79h11.1a.77.77,0,0,1,.54.22.85.85,0,0,1,.23.54v6.29a.85.85,0,0,1-.23.55.77.77,0,0,1-.54.22H9.14a.75.75,0,0,1-.77-.77V43.55a.75.75,0,0,1,.77-.76Z" transform="translate(-8 -9.47)" style="fill:#4cb5ff;fill-rule:evenodd"/><path d="M20.23,42.12H9.14v.75H20.23Z" transform="translate(-8 -9.47)" style="fill:#3a9de5"/><path d="M9.14,42.79h9.93a.77.77,0,0,1,.54.22.8.8,0,0,1,.23.54v6.29a.81.81,0,0,1-.23.55.77.77,0,0,1-.54.22H9.14a.75.75,0,0,1-.77-.77V43.55a.75.75,0,0,1,.77-.76Z" transform="translate(-8 -9.47)" style="fill:#83c9ff;fill-rule:evenodd"/><path d="M16.94,44.18H8.26v5h8.68Z" transform="translate(-8 -9.47)" style="fill:#e8efff"/><path d="M10.34,39.42a.24.24,0,0,1,.23.23V41a.24.24,0,0,1-.23.23A.24.24,0,0,1,10.1,41v-1.3a.24.24,0,0,1,.24-.23m1.05,0a.24.24,0,0,1,.23.23V41a.28.28,0,0,1,0,.09.42.42,0,0,1-.06.08.18.18,0,0,1-.07.05l-.09,0-.1,0a.18.18,0,0,1-.07-.05.42.42,0,0,1-.06-.08.28.28,0,0,1,0-.09v-1.3a.2.2,0,0,1,.07-.16.21.21,0,0,1,.17-.07Zm0,0a.24.24,0,0,1,.23.23V41a.28.28,0,0,1,0,.09.42.42,0,0,1-.06.08.18.18,0,0,1-.07.05l-.09,0-.1,0a.18.18,0,0,1-.07-.05.42.42,0,0,1-.06-.08.28.28,0,0,1,0-.09v-1.3a.66.66,0,0,1,.52-.76.66.66,0,0,1,.49.11.66.66,0,0,1,.27.42Zm1,0a.24.24,0,0,1,.24.23V41a.29.29,0,0,1,0,.09.35.35,0,0,1-.05.08l-.08.05-.09,0-.09,0-.08-.05a.35.35,0,0,1,0-.08.28.28,0,0,1,0-.09v-1.3a.65.65,0,1,1,1.28-.23Zm1.05,0a.24.24,0,0,1,.24.23V41a.29.29,0,0,1,0,.09.35.35,0,0,1,0,.08l-.08.05-.09,0-.09,0-.08-.05a.35.35,0,0,1-.05-.08.29.29,0,0,1,0-.09v-1.3a.7.7,0,0,1,0-.25.72.72,0,0,1,.1-.24.58.58,0,0,1,.18-.17.64.64,0,0,1,.24-.1.7.7,0,0,1,.25,0,.51.51,0,0,1,.24.1.58.58,0,0,1,.17.18.64.64,0,0,1,.1.24Zm1,0a.24.24,0,0,1,.23.23V41a.24.24,0,0,1-.23.23.21.21,0,0,1-.17-.07.24.24,0,0,1-.07-.16v-1.3a.67.67,0,0,1,.11-.49.62.62,0,0,1,.41-.27.66.66,0,0,1,.49.11.62.62,0,0,1,.27.42Zm1,0a.21.21,0,0,1,.17.07.2.2,0,0,1,.07.16V41a.2.2,0,0,1-.07.16.21.21,0,0,1-.17.07.24.24,0,0,1-.23-.23v-1.3a.71.71,0,0,1,.1-.49.66.66,0,0,1,.42-.27.66.66,0,0,1,.49.11.66.66,0,0,1,.27.42Zm1.05,0a.24.24,0,0,1,.24.23V41a.24.24,0,0,1-.24.23.24.24,0,0,1-.23-.23v-1.3a.62.62,0,0,1,.1-.49.66.66,0,0,1,.42-.27.66.66,0,0,1,.49.11.66.66,0,0,1,.27.42Zm1.05,0a.23.23,0,0,1,.17.07.29.29,0,0,1,.07.16V41a.24.24,0,0,1-.48,0v-1.3a.66.66,0,0,1,1.29-.23Zm-9.43,0a.21.21,0,0,1,.17.07.24.24,0,0,1,.07.16V41a.24.24,0,0,1-.07.16.21.21,0,0,1-.17.07A.24.24,0,0,1,8,41v-1.3a.65.65,0,1,1,1.28-.23Z" transform="translate(-8 -9.47)" style="fill:#5074b0;fill-rule:evenodd"/><path d="M10,43.34a.63.63,0,0,1,.4.17.56.56,0,0,1,.17.4v4a.57.57,0,0,1,0,.22.76.76,0,0,1-.12.19.62.62,0,0,1-.19.12.54.54,0,0,1-.22,0,.59.59,0,0,1-.22,0,.57.57,0,0,1-.18-.12.59.59,0,0,1-.13-.19.85.85,0,0,1,0-.22v-4a.58.58,0,0,1,.57-.57Z" transform="translate(-8 -9.47)" style="fill:#fff;fill-rule:evenodd"/><path d="M10,43.34a.63.63,0,0,1,.4.17.56.56,0,0,1,.17.4v.27H9.4v-.27a.66.66,0,0,1,.17-.4A.6.6,0,0,1,10,43.34Z" transform="translate(-8 -9.47)" style="fill:#bce1ff;fill-rule:evenodd"/><path d="M19.36,49.67a1,1,0,0,1-1,1H14.61a1,1,0,0,1,0-2H18.4A1,1,0,0,1,19.36,49.67Z" transform="translate(-8 -9.47)" style="fill:#f9cd55"/><path d="M19.36,49.67a1,1,0,0,0-1-1H16.52v2H18.4A1,1,0,0,0,19.36,49.67Z" transform="translate(-8 -9.47)" style="fill:#f44d11"/><path d="M14.61,50.69h1.91v-1H13.65A1,1,0,0,0,14.61,50.69Z" transform="translate(-8 -9.47)" style="fill:#f9cd55"/><path d="M18.4,50.69a1,1,0,0,0,1-1H16.52v1Z" transform="translate(-8 -9.47)" style="fill:#f44d11"/><path d="M16.52,49h2a.3.3,0,0,1,0,.59h-2Z" transform="translate(-8 -9.47)" style="fill:#ffa484;fill-rule:evenodd"/><path d="M15.72,49h.8v.59h-.8a.3.3,0,0,1,0-.59Z" transform="translate(-8 -9.47)" style="fill:#ffebbc;fill-rule:evenodd"/><path d="M16.05,46.53A1.08,1.08,0,0,1,15.9,48l-3,2.5a.92.92,0,0,1-1.35-.16,1.08,1.08,0,0,1,.15-1.44l3-2.5A.92.92,0,0,1,16.05,46.53Z" transform="translate(-8 -9.47)" style="fill:#f9cd55"/><path d="M16.05,46.53a.92.92,0,0,0-1.35-.16l-1.47,1.24,1.2,1.6L15.9,48a1.08,1.08,0,0,0,.15-1.44" transform="translate(-8 -9.47)" style="fill:#f44d11"/><path d="M12.94,50.47l1.49-1.26-.59-.79-2.25,1.89a.92.92,0,0,0,1.35.16" transform="translate(-8 -9.47)" style="fill:#f9cd55"/><path d="M15.9,48a1.08,1.08,0,0,0,.16-1.43l-2.22,1.88.59.79Z" transform="translate(-8 -9.47)" style="fill:#f44d11"/><path d="M13.42,47.86,15,46.56l.1-.05h.1a.21.21,0,0,1,.11,0,.18.18,0,0,1,.08.07.32.32,0,0,1,.06.21.31.31,0,0,1-.11.2l-1.53,1.31Z" transform="translate(-8 -9.47)" style="fill:#ffa484;fill-rule:evenodd"/><path d="M12.79,48.39l.63-.53.34.46-.62.54-.1,0h-.11l-.1,0a.27.27,0,0,1-.08-.07.3.3,0,0,1-.06-.22.38.38,0,0,1,.1-.2" transform="translate(-8 -9.47)" style="fill:#ffebbc;fill-rule:evenodd"/><path d="M51.83,49.86a1,1,0,0,1-1,1H47.09a1,1,0,0,1,0-2h3.78A1,1,0,0,1,51.83,49.86Z" transform="translate(-8 -9.47)" style="fill:#f9cd55"/><path d="M51.84,49.86a1,1,0,0,0-1-1H49v2h1.88A1,1,0,0,0,51.84,49.86Z" transform="translate(-8 -9.47)" style="fill:#f44d11"/><path d="M50.88,50.88a1,1,0,0,0,1-1H49v1Z" transform="translate(-8 -9.47)" style="fill:#f44d11"/><path d="M49,49.16h2a.29.29,0,0,1,.28.29.3.3,0,0,1-.28.3H49Z" transform="translate(-8 -9.47)" style="fill:#ffa484;fill-rule:evenodd"/><path d="M48.2,49.16H49v.59h-.8a.3.3,0,0,1,0-.59Z" transform="translate(-8 -9.47)" style="fill:#ffebbc;fill-rule:evenodd"/><path d="M37.2,9.74h3.33a.19.19,0,0,1,.15.07.2.2,0,0,1,.07.16.21.21,0,0,1-.07.16.22.22,0,0,1-.15.06H37.2A.21.21,0,0,1,37,10,.23.23,0,0,1,37,9.81.21.21,0,0,1,37.2,9.74Z" transform="translate(-8 -9.47)" style="fill:#fff;fill-rule:evenodd"/><path d="M9,51H78.09a.26.26,0,1,1,0,.51H9A.26.26,0,1,1,9,51Z" transform="translate(-8 -9.47)" style="fill:#ec6632;fill-rule:evenodd"/><path d="M20.09,27.57h9.32a.2.2,0,0,0,.16-.07.21.21,0,0,0,.07-.15v-.46a.24.24,0,0,0-.07-.16.23.23,0,0,0-.16-.06H20.09a.22.22,0,0,0-.15.06.2.2,0,0,0-.07.16v.46a.18.18,0,0,0,.07.15A.23.23,0,0,0,20.09,27.57Z" transform="translate(-8 -9.47)" style="fill:#e3ecff;fill-rule:evenodd"/><path d="M27.25,38.11h7.61a.8.8,0,0,1,.58.24.79.79,0,0,1,.23.57V49.8a.81.81,0,0,1-.23.57.84.84,0,0,1-.58.24H27.25a.82.82,0,0,1-.81-.81V38.92a.8.8,0,0,1,.24-.57A.78.78,0,0,1,27.25,38.11Z" transform="translate(-8 -9.47)" style="fill:#b1d2fc;fill-rule:evenodd"/><path d="M30.72,40.81a1.63,1.63,0,0,1-.28.92,1.7,1.7,0,0,1-.74.61,1.74,1.74,0,0,1-1,.09A1.61,1.61,0,0,1,27.9,42a1.63,1.63,0,0,1-.36-1.81,1.57,1.57,0,0,1,.61-.74,1.66,1.66,0,0,1,2.09.2A1.69,1.69,0,0,1,30.72,40.81Z" transform="translate(-8 -9.47)" style="fill:#cbe2e7"/><path d="M30.5,40.81a1.39,1.39,0,0,1-.24.79,1.43,1.43,0,0,1-.64.53,1.43,1.43,0,0,1-2-1.05,1.36,1.36,0,0,1,.08-.82,1.43,1.43,0,0,1,2.34-.47A1.43,1.43,0,0,1,30.5,40.81Z" transform="translate(-8 -9.47)" style="fill:#fff"/><path d="M28.08,42h0v-.12l0-.08,1.76-2.08.07-.05.11,0,0,0Z" transform="translate(-8 -9.47)" style="fill:#9fc1d1"/><path d="M34.52,40.81a1.66,1.66,0,0,1-1,1.53,1.75,1.75,0,0,1-1,.09,1.64,1.64,0,0,1-1.3-1.3,1.66,1.66,0,0,1,.09-1,1.7,1.7,0,0,1,.61-.74,1.66,1.66,0,0,1,2.09.2A1.7,1.7,0,0,1,34.52,40.81Z" transform="translate(-8 -9.47)" style="fill:#cbe2e7"/><path d="M34.3,40.81a1.44,1.44,0,0,1-1.72,1.4,1.38,1.38,0,0,1-.73-.39,1.51,1.51,0,0,1-.4-.73,1.47,1.47,0,0,1,.09-.83,1.39,1.39,0,0,1,.52-.65,1.44,1.44,0,0,1,2.24,1.2Z" transform="translate(-8 -9.47)" style="fill:#fff"/><path d="M31.88,42h0v-.12l0-.08,1.76-2.08.07-.05.12,0v0Z" transform="translate(-8 -9.47)" style="fill:#9fc1d1"/><path d="M30.72,44.58a1.63,1.63,0,0,1-.28.92,1.7,1.7,0,0,1-.74.61,1.75,1.75,0,0,1-1,.09,1.61,1.61,0,0,1-.84-.45,1.69,1.69,0,0,1-.46-.85,1.66,1.66,0,0,1,.1-1,1.57,1.57,0,0,1,.61-.74,1.65,1.65,0,0,1,2.57,1.38" transform="translate(-8 -9.47)" style="fill:#cbe2e7"/><path d="M30.72,48.35a1.63,1.63,0,0,1-.28.92,1.7,1.7,0,0,1-.74.61,1.74,1.74,0,0,1-1,.09,1.61,1.61,0,0,1-.84-.45,1.63,1.63,0,0,1-.36-1.81,1.57,1.57,0,0,1,.61-.74,1.66,1.66,0,0,1,.92-.28,1.62,1.62,0,0,1,1.17.49A1.65,1.65,0,0,1,30.72,48.35Z" transform="translate(-8 -9.47)" style="fill:#cbe2e7"/><path d="M30.5,44.58a1.39,1.39,0,0,1-.24.79,1.43,1.43,0,0,1-.64.53,1.43,1.43,0,0,1-2-1,1.39,1.39,0,0,1,.08-.83,1.43,1.43,0,0,1,2.34-.47A1.45,1.45,0,0,1,30.5,44.58Z" transform="translate(-8 -9.47)" style="fill:#fff"/><path d="M30.5,48.35a1.39,1.39,0,0,1-.24.79,1.43,1.43,0,0,1-.64.53,1.43,1.43,0,0,1-2-1,1.39,1.39,0,0,1,.08-.83,1.43,1.43,0,0,1,1.33-.89,1.54,1.54,0,0,1,.55.11,1.44,1.44,0,0,1,.46.31,1.38,1.38,0,0,1,.31.47A1.46,1.46,0,0,1,30.5,48.35Z" transform="translate(-8 -9.47)" style="fill:#fff"/><path d="M28.08,45.76h0v-.12l0-.08,1.76-2.08.07,0,.11,0h0Z" transform="translate(-8 -9.47)" style="fill:#9fc1d1"/><path d="M28.08,49.53h0V49.4l0-.08,1.76-2.08.07-.05.11,0h0Z" transform="translate(-8 -9.47)" style="fill:#9fc1d1"/><path d="M34.52,44.58a1.66,1.66,0,0,1-1,1.53,1.75,1.75,0,0,1-1,.09,1.64,1.64,0,0,1-1.3-1.3,1.66,1.66,0,0,1,.09-1,1.7,1.7,0,0,1,.61-.74,1.66,1.66,0,0,1,2.09.2A1.7,1.7,0,0,1,34.52,44.58Z" transform="translate(-8 -9.47)" style="fill:#cbe2e7"/><path d="M34.52,48.35a1.66,1.66,0,0,1-1,1.53,1.75,1.75,0,0,1-1,.09,1.64,1.64,0,0,1-1.3-1.3,1.67,1.67,0,0,1,.09-1,1.7,1.7,0,0,1,.61-.74,1.66,1.66,0,0,1,.92-.28,1.59,1.59,0,0,1,.64.13,1.71,1.71,0,0,1,.89.89A1.56,1.56,0,0,1,34.52,48.35Z" transform="translate(-8 -9.47)" style="fill:#cbe2e7"/><path d="M34.3,44.58A1.44,1.44,0,0,1,32.58,46a1.38,1.38,0,0,1-.73-.39,1.51,1.51,0,0,1-.4-.73,1.47,1.47,0,0,1,.09-.83,1.39,1.39,0,0,1,.52-.65,1.44,1.44,0,0,1,.8-.24,1.46,1.46,0,0,1,.55.11,1.6,1.6,0,0,1,.47.31,1.38,1.38,0,0,1,.31.47A1.46,1.46,0,0,1,34.3,44.58Z" transform="translate(-8 -9.47)" style="fill:#fff"/><path d="M34.3,48.35a1.44,1.44,0,0,1-1.72,1.4,1.38,1.38,0,0,1-.73-.39,1.51,1.51,0,0,1-.4-.73,1.47,1.47,0,0,1,.09-.83,1.39,1.39,0,0,1,.52-.65,1.44,1.44,0,0,1,.8-.24,1.46,1.46,0,0,1,.55.11,1.6,1.6,0,0,1,.47.31,1.38,1.38,0,0,1,.31.47A1.46,1.46,0,0,1,34.3,48.35Z" transform="translate(-8 -9.47)" style="fill:#fff"/><path d="M31.88,45.76h0v-.12l0-.08,1.76-2.08.07,0,.12,0h0Z" transform="translate(-8 -9.47)" style="fill:#9fc1d1"/><path d="M31.88,49.53h0V49.4l0-.08,1.76-2.08.07-.05.12,0h0Z" transform="translate(-8 -9.47)" style="fill:#9fc1d1"/></svg>