<svg width="14" height="15" viewBox="0 0 14 15" fill="none" xmlns="http://www.w3.org/2000/svg">
<path d="M11 6.71331C10.8232 6.71331 10.6537 6.78355 10.5286 6.90858C10.4036 7.0336 10.3334 7.20317 10.3334 7.37998V12.1666C10.3334 12.3435 10.2631 12.513 10.1381 12.6381C10.0131 12.7631 9.84352 12.8333 9.66671 12.8333H2.33337C2.15656 12.8333 1.98699 12.7631 1.86197 12.6381C1.73695 12.513 1.66671 12.3435 1.66671 12.1666V4.83331C1.66671 4.6565 1.73695 4.48693 1.86197 4.36191C1.98699 4.23688 2.15656 4.16665 2.33337 4.16665H7.12004C7.29685 4.16665 7.46642 4.09641 7.59145 3.97138C7.71647 3.84636 7.78671 3.67679 7.78671 3.49998C7.78671 3.32317 7.71647 3.1536 7.59145 3.02858C7.46642 2.90355 7.29685 2.83331 7.12004 2.83331H2.33337C1.80294 2.83331 1.29423 3.04403 0.919161 3.4191C0.544088 3.79417 0.333374 4.30288 0.333374 4.83331V12.1666C0.333374 12.6971 0.544088 13.2058 0.919161 13.5809C1.29423 13.9559 1.80294 14.1666 2.33337 14.1666H9.66671C10.1971 14.1666 10.7058 13.9559 11.0809 13.5809C11.456 13.2058 11.6667 12.6971 11.6667 12.1666V7.37998C11.6667 7.20317 11.5965 7.0336 11.4714 6.90858C11.3464 6.78355 11.1769 6.71331 11 6.71331ZM13.6134 1.24665C13.5457 1.08375 13.4163 0.954296 13.2534 0.886646C13.1732 0.852486 13.0872 0.834366 13 0.833313H9.00004C8.82323 0.833313 8.65366 0.903551 8.52864 1.02858C8.40361 1.1536 8.33337 1.32317 8.33337 1.49998C8.33337 1.67679 8.40361 1.84636 8.52864 1.97138C8.65366 2.09641 8.82323 2.16665 9.00004 2.16665H11.3934L4.52671 9.02665C4.46422 9.08862 4.41463 9.16236 4.38078 9.2436C4.34693 9.32483 4.32951 9.41197 4.32951 9.49998C4.32951 9.58799 4.34693 9.67512 4.38078 9.75636C4.41463 9.8376 4.46422 9.91134 4.52671 9.97331C4.58868 10.0358 4.66242 10.0854 4.74366 10.1192C4.8249 10.1531 4.91203 10.1705 5.00004 10.1705C5.08805 10.1705 5.17519 10.1531 5.25643 10.1192C5.33766 10.0854 5.4114 10.0358 5.47337 9.97331L12.3334 3.10665V5.49998C12.3334 5.67679 12.4036 5.84636 12.5286 5.97138C12.6537 6.09641 12.8232 6.16665 13 6.16665C13.1769 6.16665 13.3464 6.09641 13.4714 5.97138C13.5965 5.84636 13.6667 5.67679 13.6667 5.49998V1.49998C13.6657 1.41286 13.6475 1.32679 13.6134 1.24665Z" fill="white"/>
<path d="M13.4287 1.32335L13.4287 1.32336L13.4294 1.32506C13.4532 1.38084 13.4658 1.4407 13.4667 1.50132V5.49998C13.4667 5.62375 13.4175 5.74245 13.33 5.82996C13.2425 5.91748 13.1238 5.96665 13 5.96665C12.8763 5.96665 12.7576 5.91748 12.6701 5.82996C12.5825 5.74245 12.5334 5.62375 12.5334 5.49998V3.10665V2.62347L12.1919 2.96529L5.33188 9.83196L5.33137 9.83247C5.28799 9.87621 5.23638 9.91093 5.17951 9.93462C5.12264 9.95831 5.06165 9.97051 5.00004 9.97051C4.93844 9.97051 4.87744 9.95831 4.82057 9.93462C4.7637 9.91093 4.71209 9.87621 4.66871 9.83247L4.66755 9.83131C4.62381 9.78793 4.58909 9.73632 4.5654 9.67945C4.54171 9.62258 4.52951 9.56159 4.52951 9.49998C4.52951 9.43837 4.54171 9.37738 4.5654 9.32051C4.58909 9.26364 4.62381 9.21203 4.66755 9.16865L4.66806 9.16814L11.5347 2.30814L11.8765 1.96665H11.3934H9.00004C8.87627 1.96665 8.75758 1.91748 8.67006 1.82996C8.58254 1.74245 8.53337 1.62375 8.53337 1.49998C8.53337 1.37621 8.58254 1.25751 8.67006 1.17C8.75758 1.08248 8.87627 1.03331 9.00004 1.03331H12.9987C13.0593 1.03419 13.1192 1.04686 13.175 1.07063L13.175 1.07064L13.1767 1.07135C13.2907 1.11871 13.3813 1.20932 13.4287 1.32335ZM10.6701 7.05C10.7576 6.96248 10.8763 6.91331 11 6.91331C11.1238 6.91331 11.2425 6.96248 11.33 7.05C11.4175 7.13751 11.4667 7.25621 11.4667 7.37998V12.1666C11.4667 12.644 11.2771 13.1019 10.9395 13.4394C10.6019 13.777 10.1441 13.9666 9.66671 13.9666H2.33337C1.85598 13.9666 1.39815 13.777 1.06058 13.4394C0.723016 13.1019 0.533374 12.644 0.533374 12.1666V4.83331C0.533374 4.35592 0.723016 3.89809 1.06058 3.56052C1.39815 3.22296 1.85598 3.03331 2.33337 3.03331H7.12004C7.24381 3.03331 7.36251 3.08248 7.45002 3.17C7.53754 3.25751 7.58671 3.37621 7.58671 3.49998C7.58671 3.62375 7.53754 3.74245 7.45002 3.82996C7.36251 3.91748 7.24381 3.96665 7.12004 3.96665H2.33337C2.10352 3.96665 1.88308 4.05796 1.72055 4.22049C1.55802 4.38302 1.46671 4.60346 1.46671 4.83331V12.1666C1.46671 12.3965 1.55802 12.6169 1.72055 12.7795C1.88308 12.942 2.10352 13.0333 2.33337 13.0333H9.66671C9.89656 13.0333 10.117 12.942 10.2795 12.7795C10.4421 12.6169 10.5334 12.3965 10.5334 12.1666V7.37998C10.5334 7.25621 10.5825 7.13751 10.6701 7.05Z" stroke="white" stroke-opacity="0.2" stroke-width="0.4"/>
</svg>
