<svg width="15" height="16" viewBox="0 0 15 16" fill="none" xmlns="http://www.w3.org/2000/svg">
<path d="M5.82141 6.66072H4.32141C4.11432 6.66072 3.94641 6.82863 3.94641 7.03572C3.94641 7.24281 4.11432 7.41072 4.32141 7.41072H5.82141C6.0285 7.41072 6.19641 7.24281 6.19641 7.03572C6.19641 6.82863 6.0285 6.66072 5.82141 6.66072ZM11.4464 3.28572H6.57141V1.03572H7.69641C7.9035 1.03572 8.07141 0.867813 8.07141 0.660721C8.07141 0.453629 7.9035 0.285721 7.69641 0.285721H6.196C5.989 0.285858 5.82127 0.45372 5.82141 0.660721V3.28572H3.19641C1.74741 3.28746 0.573151 4.46172 0.571411 5.91072V11.1611C0.571548 11.3681 0.73941 11.5359 0.946411 11.5357H5.82141V14.9111C5.82155 15.1181 5.98941 15.2859 6.19641 15.2857H6.19687C6.40382 15.2856 6.57155 15.1177 6.57141 14.9107V11.5357H13.6969C13.9038 11.5356 14.0715 11.3677 14.0714 11.1607V5.91072C14.0714 4.46098 12.8961 3.28572 11.4464 3.28572ZM8.82141 10.7857H1.32141V5.91072C1.32237 4.87558 2.16127 4.03668 3.19641 4.03572H9.61311C9.12573 4.5123 8.82141 5.17519 8.82141 5.91072V10.7857ZM13.3214 10.7857H9.57141V5.91072C9.57141 4.87517 10.4109 4.03572 11.4464 4.03572C12.4816 4.03668 13.3204 4.87558 13.3214 5.91072V10.7857Z" fill="#888D95" stroke="#888D95" stroke-width="0.242857"/>
</svg>
