<svg width="15" height="18" viewBox="0 0 15 18" fill="none" xmlns="http://www.w3.org/2000/svg">
<path d="M3.62613 8.12437L3.63104 8.11281L3.63537 8.10103L5.72753 2.40363C6.00037 1.66062 6.70782 1.16676 7.49934 1.16676C8.29087 1.16675 8.99833 1.66061 9.27117 2.40363L11.3633 8.10103L11.3677 8.11281L11.3726 8.12437L14.0045 14.3124C14.5127 15.5075 13.6358 16.8334 12.3371 16.8334C12.0056 16.8334 11.6825 16.7292 11.4135 16.5355L7.7915 13.9277L7.49935 13.7173L7.2072 13.9277L3.58516 16.5355C3.31615 16.7292 2.99305 16.8334 2.66157 16.8334C1.36295 16.8334 0.485979 15.5075 0.994243 14.3124L3.62613 8.12437Z" stroke="#031025"/>
</svg>
