<svg width="19" height="16" viewBox="0 0 19 16" fill="none" xmlns="http://www.w3.org/2000/svg">
<path d="M0 7C0 5.89543 0.895431 5 2 5H4V11H2C0.895431 11 0 10.1046 0 9V7Z" fill="#031025"/>
<path d="M4 5L8.94 1.9125C10.2721 1.07994 12 2.03762 12 3.6085V12.3915C12 13.9624 10.2721 14.9201 8.94 14.0875L4 11V5Z" fill="#031025"/>
<path d="M13.9951 5.99878C14.6382 6.61102 14.9951 7.28751 14.9951 7.99878C14.9951 8.71005 14.6382 9.38654 13.9951 9.99878" stroke="#031025" stroke-linecap="round"/>
<path d="M16 3.5C17.2862 4.87754 18 6.39964 18 8C18 9.60036 17.2862 11.1225 16 12.5" stroke="#031025" stroke-linecap="round"/>
</svg>
