<svg width="334" height="217" viewBox="0 0 334 217" fill="none" xmlns="http://www.w3.org/2000/svg">
<path fill-rule="evenodd" clip-rule="evenodd" d="M318.111 13.8878C318.111 11.6963 319.992 9.91797 322.312 9.91797C324.635 9.91797 326.516 11.6963 326.516 13.8878C326.516 16.0807 324.635 17.8575 322.312 17.8575C319.992 17.8575 318.111 16.0807 318.111 13.8878Z" fill="#ECA532"/>
<path fill-rule="evenodd" clip-rule="evenodd" d="M230.111 6.95026C230.111 4.7573 231.992 2.98047 234.313 2.98047C236.635 2.98047 238.516 4.7573 238.516 6.95026C238.516 9.14169 236.635 10.92 234.313 10.92C231.992 10.92 230.111 9.14169 230.111 6.95026Z" fill="#3079EC"/>
<path fill-rule="evenodd" clip-rule="evenodd" d="M261.14 14.3165C263.585 13.0575 265.892 11.4705 267.96 9.51444C270.926 6.71402 273.113 3.46256 274.566 0L283.422 8.36784C281.97 11.8274 279.766 15.0712 276.804 17.8686C274.736 19.8216 272.436 21.4223 269.994 22.6798L261.14 14.3165Z" fill="#BAD0F7"/>
<path fill-rule="evenodd" clip-rule="evenodd" d="M190.934 192.631C190.045 191.09 188.923 189.635 187.542 188.33C185.564 186.461 183.265 185.082 180.82 184.166L186.732 178.582C189.176 179.498 191.466 180.887 193.445 182.755C194.825 184.058 195.955 185.509 196.844 187.049L190.934 192.631Z" fill="#ECA532"/>
<path fill-rule="evenodd" clip-rule="evenodd" d="M85.5742 36.6609C83.7931 36.1643 81.9106 35.8849 79.9574 35.8849C77.1587 35.8849 74.5014 36.4453 72.0869 37.4309V29.5338C74.4998 28.5482 77.1619 28 79.9574 28C81.909 28 83.7931 28.2703 85.5742 28.7654V36.6609Z" fill="#EC6632"/>
<path fill-rule="evenodd" clip-rule="evenodd" d="M340 80.7547C338.217 80.2581 336.336 79.9787 334.383 79.9787C331.584 79.9787 328.927 80.5391 326.511 81.5262V73.6276C328.926 72.642 331.586 72.0938 334.383 72.0938C336.335 72.0938 338.219 72.3641 340 72.8592V80.7547Z" fill="#EC6632"/>
<path fill-rule="evenodd" clip-rule="evenodd" d="M34.3806 158.578C34.9047 156.893 35.2021 155.116 35.2021 153.271C35.2021 150.627 34.6089 148.117 33.564 145.836H41.9249C42.9682 148.115 43.5469 150.629 43.5469 153.271C43.5469 155.115 43.2607 156.895 42.7366 158.578H34.3806Z" fill="#EC6632"/>
<path fill-rule="evenodd" clip-rule="evenodd" d="M302.036 195.766C301.335 198.312 300.261 200.809 298.755 203.18C296.596 206.575 293.786 209.367 290.58 211.535L294.536 216.023C298.198 214.65 301.632 212.568 304.595 209.771C306.662 207.816 308.355 205.645 309.688 203.336L302.036 195.766Z" fill="#EC6632"/>
<path fill-rule="evenodd" clip-rule="evenodd" d="M0.6149 134.816C1.3174 137.362 2.38964 139.86 3.89591 142.231C6.05646 145.626 8.86647 148.418 12.0703 150.586L8.11413 155.074C4.45374 153.701 1.02 151.619 -1.94272 148.82C-4.01003 146.867 -5.70438 144.695 -7.03543 142.387L0.6149 134.816Z" fill="#3079EC"/>
<path fill-rule="evenodd" clip-rule="evenodd" d="M60.6439 60.1562C61.2532 62.3674 62.184 64.5361 63.4909 66.5939C65.3669 69.5431 67.8072 71.9654 70.5898 73.85L67.1561 77.7454C63.9748 76.5533 60.996 74.7461 58.4223 72.3162C56.6267 70.6199 55.1574 68.7337 53.9999 66.7306L60.6439 60.1562Z" fill="#BAD0F7"/>
<path fill-rule="evenodd" clip-rule="evenodd" d="M219.891 84.9523C217.992 85.4186 216.131 86.1308 214.364 87.1346C211.834 88.5698 209.753 90.4393 208.138 92.5715L204.794 89.9396C205.817 87.5052 207.368 85.2211 209.454 83.2499C210.909 81.8755 212.528 80.7502 214.248 79.8633L219.891 84.9523Z" fill="#3079EC"/>
</svg>
