<svg xmlns="http://www.w3.org/2000/svg" xmlns:xlink="http://www.w3.org/1999/xlink" viewBox="0 0 335 116.57"><defs><clipPath id="a"><rect width="335" height="105" style="fill:none"/></clipPath><linearGradient id="b" x1="52.01" y1="84.5" x2="52.01" y2="69.43" gradientTransform="matrix(1, 0, 0, -1, 0, 106)" gradientUnits="userSpaceOnUse"><stop offset="0" stop-color="#6632ec"/><stop offset="1" stop-color="#6632ec" stop-opacity="0"/></linearGradient><linearGradient id="c" x1="68.01" y1="79.5" x2="68.01" y2="64.43" xlink:href="#b"/><linearGradient id="d" x1="85.01" y1="79.5" x2="85.01" y2="64.43" xlink:href="#b"/><linearGradient id="e" x1="62.01" y1="78.5" x2="62.01" y2="93.57" xlink:href="#b"/><linearGradient id="f" x1="78.01" y1="78.5" x2="78.01" y2="93.57" xlink:href="#b"/><linearGradient id="g" x1="95.01" y1="95.5" x2="95.01" y2="80.43" xlink:href="#b"/><linearGradient id="h" x1="111.01" y1="90.5" x2="111.01" y2="75.43" xlink:href="#b"/><linearGradient id="i" x1="128.01" y1="90.5" x2="128.01" y2="75.43" xlink:href="#b"/><linearGradient id="j" x1="105.01" y1="89.5" x2="105.01" y2="104.57" xlink:href="#b"/><linearGradient id="k" x1="121.01" y1="89.5" x2="121.01" y2="104.57" xlink:href="#b"/><linearGradient id="l" x1="101.01" y1="63.5" x2="101.01" y2="48.43" xlink:href="#b"/><linearGradient id="m" x1="117.01" y1="58.5" x2="117.01" y2="43.43" xlink:href="#b"/><linearGradient id="n" x1="134.01" y1="58.5" x2="134.01" y2="43.43" xlink:href="#b"/><linearGradient id="o" x1="111.01" y1="57.5" x2="111.01" y2="72.57" xlink:href="#b"/><linearGradient id="p" x1="127.01" y1="57.5" x2="127.01" y2="72.57" xlink:href="#b"/><linearGradient id="q" x1="51.01" y1="50.5" x2="51.01" y2="35.43" xlink:href="#b"/><linearGradient id="r" x1="67.01" y1="45.5" x2="67.01" y2="30.43" xlink:href="#b"/><linearGradient id="s" x1="84.01" y1="45.5" x2="84.01" y2="30.43" xlink:href="#b"/><linearGradient id="t" x1="61.01" y1="44.5" x2="61.01" y2="59.57" xlink:href="#b"/><linearGradient id="u" x1="77.01" y1="44.5" x2="77.01" y2="59.57" xlink:href="#b"/><linearGradient id="v" x1="57.01" y1="18.5" x2="57.01" y2="3.43" xlink:href="#b"/><linearGradient id="w" x1="73.01" y1="13.5" x2="73.01" y2="-1.57" xlink:href="#b"/><linearGradient id="x" x1="90.01" y1="13.5" x2="90.01" y2="-1.57" xlink:href="#b"/><linearGradient id="y" x1="67.01" y1="12.5" x2="67.01" y2="27.57" xlink:href="#b"/><linearGradient id="z" x1="83.01" y1="12.5" x2="83.01" y2="27.57" xlink:href="#b"/><linearGradient id="aa" x1="14.01" y1="4.5" x2="14.01" y2="-10.57" xlink:href="#b"/><linearGradient id="ab" x1="24.01" y1="-1.5" x2="24.01" y2="13.57" xlink:href="#b"/><linearGradient id="ac" x1="40.01" y1="-1.5" x2="40.01" y2="13.57" xlink:href="#b"/><linearGradient id="ad" x1="105.01" y1="28.5" x2="105.01" y2="13.43" xlink:href="#b"/><linearGradient id="ae" x1="121.01" y1="23.5" x2="121.01" y2="8.43" xlink:href="#b"/><linearGradient id="af" x1="138.01" y1="23.5" x2="138.01" y2="8.43" xlink:href="#b"/><linearGradient id="ag" x1="115.01" y1="22.5" x2="115.01" y2="37.57" xlink:href="#b"/><linearGradient id="ah" x1="131.01" y1="22.5" x2="131.01" y2="37.57" xlink:href="#b"/><linearGradient id="ai" x1="112.01" y1="-7.5" x2="112.01" y2="7.57" xlink:href="#b"/><linearGradient id="aj" x1="128.01" y1="-7.5" x2="128.01" y2="7.57" xlink:href="#b"/><linearGradient id="ak" x1="9.01" y1="40.5" x2="9.01" y2="25.43" xlink:href="#b"/><linearGradient id="al" x1="25.01" y1="35.5" x2="25.01" y2="20.43" xlink:href="#b"/><linearGradient id="am" x1="42.01" y1="35.5" x2="42.01" y2="20.43" xlink:href="#b"/><linearGradient id="an" x1="19.01" y1="34.5" x2="19.01" y2="49.57" xlink:href="#b"/><linearGradient id="ao" x1="35.01" y1="34.5" x2="35.01" y2="49.57" xlink:href="#b"/><linearGradient id="ap" x1="9.01" y1="72.5" x2="9.01" y2="57.43" xlink:href="#b"/><linearGradient id="aq" x1="25.01" y1="67.5" x2="25.01" y2="52.43" xlink:href="#b"/><linearGradient id="ar" x1="42.01" y1="67.5" x2="42.01" y2="52.43" xlink:href="#b"/><linearGradient id="as" x1="19.01" y1="66.5" x2="19.01" y2="81.57" xlink:href="#b"/><linearGradient id="at" x1="35.01" y1="66.5" x2="35.01" y2="81.57" xlink:href="#b"/><linearGradient id="au" x1="144.01" y1="80.5" x2="144.01" y2="65.43" xlink:href="#b"/><linearGradient id="av" x1="160.01" y1="75.5" x2="160.01" y2="60.43" xlink:href="#b"/><linearGradient id="aw" x1="177.01" y1="75.5" x2="177.01" y2="60.43" xlink:href="#b"/><linearGradient id="ax" x1="154.01" y1="74.5" x2="154.01" y2="89.57" xlink:href="#b"/><linearGradient id="ay" x1="170.01" y1="74.5" x2="170.01" y2="89.57" xlink:href="#b"/><linearGradient id="az" x1="193.01" y1="71.5" x2="193.01" y2="56.43" xlink:href="#b"/><linearGradient id="ba" x1="209.01" y1="66.5" x2="209.01" y2="51.43" xlink:href="#b"/><linearGradient id="bb" x1="226.01" y1="66.5" x2="226.01" y2="51.43" xlink:href="#b"/><linearGradient id="bc" x1="203.01" y1="65.5" x2="203.01" y2="80.57" xlink:href="#b"/><linearGradient id="bd" x1="219.01" y1="65.5" x2="219.01" y2="80.57" xlink:href="#b"/><linearGradient id="be" x1="149.01" y1="48.5" x2="149.01" y2="33.43" xlink:href="#b"/><linearGradient id="bf" x1="165.01" y1="43.5" x2="165.01" y2="28.43" xlink:href="#b"/><linearGradient id="bg" x1="182.01" y1="43.5" x2="182.01" y2="28.43" xlink:href="#b"/><linearGradient id="bh" x1="159.01" y1="42.5" x2="159.01" y2="57.57" xlink:href="#b"/><linearGradient id="bi" x1="175.01" y1="42.5" x2="175.01" y2="57.57" xlink:href="#b"/><linearGradient id="bj" x1="153.01" y1="15.5" x2="153.01" y2="0.43" xlink:href="#b"/><linearGradient id="bk" x1="169.01" y1="10.5" x2="169.01" y2="-4.57" xlink:href="#b"/><linearGradient id="bl" x1="186.01" y1="10.5" x2="186.01" y2="-4.57" xlink:href="#b"/><linearGradient id="bm" x1="163.01" y1="9.5" x2="163.01" y2="24.57" xlink:href="#b"/><linearGradient id="bn" x1="179.01" y1="9.5" x2="179.01" y2="24.57" xlink:href="#b"/></defs><title>virtual_assistant_frame</title><g style="clip-path:url(#a)"><rect width="335" height="105" rx="6" style="fill:#7444ee"/><g style="opacity:0.20000000298023224"><path d="M54.7,30.27,54,30.05A4.46,4.46,0,0,0,56.5,26a4.5,4.5,0,0,0-9,0A4.59,4.59,0,0,0,50,30.05l-.67.22a7.51,7.51,0,0,0-4.73,5.78.42.42,0,0,0,.3.45.41.41,0,0,0,.45-.3,6.61,6.61,0,0,1,4-5.1l2.33,2.32c.07.08.15.08.3.08s.22-.08.3-.08l2.32-2.32a6.71,6.71,0,0,1,4.05,5.17.35.35,0,0,0,.38.3h.07a.33.33,0,0,0,.3-.45A7.47,7.47,0,0,0,54.7,30.27ZM48.25,26a3.75,3.75,0,0,1,7.5,0,2.43,2.43,0,0,1-.08.75H48.32A2.76,2.76,0,0,1,48.25,26Zm.3,1.5h6.9a3.77,3.77,0,0,1-6.9,0ZM52,32.6l-1.8-1.8a2.44,2.44,0,0,1,.75-.15,7.58,7.58,0,0,1,2.92.15Z" style="fill:url(#b)"/></g><g style="opacity:0.20000000298023224"><path d="M70.7,35.27,70,35.05a4.46,4.46,0,0,0,2.48-4,4.5,4.5,0,0,0-9,0,4.59,4.59,0,0,0,2.47,4l-.67.22a7.51,7.51,0,0,0-4.73,5.78.42.42,0,0,0,.3.45.41.41,0,0,0,.45-.3,6.61,6.61,0,0,1,4.05-5.1l2.33,2.32c.07.08.15.08.3.08s.22-.08.3-.08l2.32-2.32a6.71,6.71,0,0,1,4,5.17.35.35,0,0,0,.38.3h.07a.33.33,0,0,0,.3-.45A7.47,7.47,0,0,0,70.7,35.27ZM64.25,31a3.75,3.75,0,0,1,7.5,0,2.43,2.43,0,0,1-.08.75H64.32A2.76,2.76,0,0,1,64.25,31Zm.3,1.5h6.9a3.77,3.77,0,0,1-6.9,0ZM68,37.6l-1.8-1.8a2.44,2.44,0,0,1,.75-.15,7.58,7.58,0,0,1,2.92.15Z" style="fill:url(#c)"/></g><g style="opacity:0.20000000298023224"><path d="M87.7,35.27,87,35.05a4.46,4.46,0,0,0,2.48-4,4.5,4.5,0,0,0-9,0,4.59,4.59,0,0,0,2.47,4l-.67.22a7.51,7.51,0,0,0-4.73,5.78.42.42,0,0,0,.3.45.41.41,0,0,0,.45-.3,6.61,6.61,0,0,1,4.05-5.1l2.33,2.32c.07.08.15.08.3.08s.22-.08.3-.08l2.32-2.32a6.71,6.71,0,0,1,4,5.17.35.35,0,0,0,.38.3h.07a.33.33,0,0,0,.3-.45A7.47,7.47,0,0,0,87.7,35.27ZM81.25,31a3.75,3.75,0,0,1,7.5,0,2.43,2.43,0,0,1-.08.75H81.32A2.76,2.76,0,0,1,81.25,31Zm.3,1.5h6.9a3.77,3.77,0,0,1-6.9,0ZM85,37.6l-1.8-1.8a2.44,2.44,0,0,1,.75-.15,7.58,7.58,0,0,1,2.92.15Z" style="fill:url(#d)"/></g><g style="opacity:0.20000000298023224"><path d="M64.7,18.73,64,19A4.46,4.46,0,0,1,66.5,23a4.5,4.5,0,0,1-9,0A4.59,4.59,0,0,1,60,19l-.67-.22A7.51,7.51,0,0,1,54.57,13a.42.42,0,0,1,.3-.45.41.41,0,0,1,.45.3,6.61,6.61,0,0,0,4,5.1l2.33-2.32c.07-.08.15-.08.3-.08s.22.08.3.08l2.32,2.32a6.71,6.71,0,0,0,4-5.17.35.35,0,0,1,.38-.3h.07a.33.33,0,0,1,.3.45A7.47,7.47,0,0,1,64.7,18.73ZM58.25,23a3.75,3.75,0,0,0,7.5,0,2.43,2.43,0,0,0-.08-.75H58.32A2.76,2.76,0,0,0,58.25,23Zm.3-1.5h6.9a3.77,3.77,0,0,0-6.9,0ZM62,16.4l-1.8,1.8a2.44,2.44,0,0,0,.75.15,7.58,7.58,0,0,0,2.92-.15Z" style="fill:url(#e)"/></g><g style="opacity:0.20000000298023224"><path d="M80.7,18.73,80,19A4.46,4.46,0,0,1,82.5,23a4.5,4.5,0,0,1-9,0A4.59,4.59,0,0,1,76,19l-.67-.22A7.51,7.51,0,0,1,70.57,13a.42.42,0,0,1,.3-.45.41.41,0,0,1,.45.3,6.61,6.61,0,0,0,4.05,5.1l2.33-2.32c.07-.08.15-.08.3-.08s.22.08.3.08l2.32,2.32a6.71,6.71,0,0,0,4-5.17.35.35,0,0,1,.38-.3h.07a.33.33,0,0,1,.3.45A7.47,7.47,0,0,1,80.7,18.73ZM74.25,23a3.75,3.75,0,0,0,7.5,0,2.43,2.43,0,0,0-.08-.75H74.32A2.76,2.76,0,0,0,74.25,23Zm.3-1.5h6.9a3.77,3.77,0,0,0-6.9,0ZM78,16.4l-1.8,1.8a2.44,2.44,0,0,0,.75.15,7.58,7.58,0,0,0,2.92-.15Z" style="fill:url(#f)"/></g><g style="opacity:0.20000000298023224"><path d="M97.7,19.27,97,19.05A4.46,4.46,0,0,0,99.5,15a4.5,4.5,0,0,0-9,0A4.59,4.59,0,0,0,93,19.05l-.67.22a7.51,7.51,0,0,0-4.73,5.78.42.42,0,0,0,.3.45.41.41,0,0,0,.45-.3,6.61,6.61,0,0,1,4.05-5.1l2.33,2.32c.07.08.15.08.3.08s.22-.08.3-.08l2.32-2.32a6.75,6.75,0,0,1,4.06,5.17.33.33,0,0,0,.37.3h.08a.33.33,0,0,0,.3-.45A7.49,7.49,0,0,0,97.7,19.27ZM91.25,15a3.75,3.75,0,0,1,7.5,0,2.43,2.43,0,0,1-.08.75H91.32A2.76,2.76,0,0,1,91.25,15Zm.3,1.5h6.9a3.77,3.77,0,0,1-6.9,0ZM95,21.6l-1.8-1.8a2.44,2.44,0,0,1,.75-.15,7.58,7.58,0,0,1,2.92.15Z" style="fill:url(#g)"/></g><g style="opacity:0.20000000298023224"><path d="M113.7,24.27l-.67-.22A4.45,4.45,0,0,0,115.5,20a4.5,4.5,0,0,0-9,0A4.59,4.59,0,0,0,109,24.05l-.67.22a7.53,7.53,0,0,0-4.73,5.78.42.42,0,0,0,.31.45.4.4,0,0,0,.44-.3,6.62,6.62,0,0,1,4.06-5.1l2.32,2.32c.08.08.15.08.3.08s.22-.08.3-.08l2.33-2.32a6.76,6.76,0,0,1,4.05,5.17.33.33,0,0,0,.37.3h.08a.33.33,0,0,0,.3-.45A7.49,7.49,0,0,0,113.7,24.27ZM107.25,20a3.75,3.75,0,0,1,7.5,0,2.76,2.76,0,0,1-.07.75h-7.36A2.76,2.76,0,0,1,107.25,20Zm.3,1.5h6.9a3.77,3.77,0,0,1-6.9,0ZM111,26.6l-1.8-1.8a2.5,2.5,0,0,1,.75-.15,7.63,7.63,0,0,1,2.93.15Z" style="fill:url(#h)"/></g><g style="opacity:0.20000000298023224"><path d="M130.7,24.27l-.68-.22A4.46,4.46,0,0,0,132.5,20a4.5,4.5,0,0,0-9,0A4.59,4.59,0,0,0,126,24.05l-.67.22a7.53,7.53,0,0,0-4.73,5.78.42.42,0,0,0,.31.45.4.4,0,0,0,.44-.3,6.62,6.62,0,0,1,4.06-5.1l2.32,2.32c.08.08.15.08.3.08s.23-.08.3-.08l2.33-2.32a6.73,6.73,0,0,1,4.05,5.17.33.33,0,0,0,.37.3h.08a.33.33,0,0,0,.3-.45A7.47,7.47,0,0,0,130.7,24.27ZM124.25,20a3.75,3.75,0,0,1,7.5,0,2.76,2.76,0,0,1-.07.75h-7.36A2.76,2.76,0,0,1,124.25,20Zm.3,1.5h6.9a3.77,3.77,0,0,1-6.9,0ZM128,26.6l-1.8-1.8a2.5,2.5,0,0,1,.75-.15,7.63,7.63,0,0,1,2.93.15Z" style="fill:url(#i)"/></g><g style="opacity:0.20000000298023224"><path d="M107.7,7.73,107,8A4.45,4.45,0,0,1,109.5,12a4.5,4.5,0,0,1-9,0A4.59,4.59,0,0,1,103,8l-.67-.22A7.51,7.51,0,0,1,97.57,2a.42.42,0,0,1,.3-.45.41.41,0,0,1,.45.3,6.62,6.62,0,0,0,4.06,5.1l2.32-2.32c.08-.08.15-.08.3-.08s.22.08.3.08l2.33,2.32a6.76,6.76,0,0,0,4.05-5.17.33.33,0,0,1,.37-.3h.08a.33.33,0,0,1,.3.45A7.49,7.49,0,0,1,107.7,7.73ZM101.25,12a3.75,3.75,0,0,0,7.5,0,2.76,2.76,0,0,0-.07-.75h-7.36A2.76,2.76,0,0,0,101.25,12Zm.3-1.5h6.9a3.77,3.77,0,0,0-6.9,0ZM105,5.4l-1.8,1.8a2.5,2.5,0,0,0,.75.15,7.63,7.63,0,0,0,2.93-.15Z" style="fill:url(#j)"/></g><g style="opacity:0.20000000298023224"><path d="M123.7,7.73,123,8A4.45,4.45,0,0,1,125.5,12a4.5,4.5,0,0,1-9,0A4.59,4.59,0,0,1,119,8l-.67-.22A7.53,7.53,0,0,1,113.57,2a.42.42,0,0,1,.31-.45.4.4,0,0,1,.44.3,6.62,6.62,0,0,0,4.06,5.1l2.32-2.32c.08-.08.15-.08.3-.08s.22.08.3.08l2.33,2.32a6.76,6.76,0,0,0,4.05-5.17.33.33,0,0,1,.37-.3h.08a.33.33,0,0,1,.3.45A7.49,7.49,0,0,1,123.7,7.73ZM117.25,12a3.75,3.75,0,0,0,7.5,0,2.76,2.76,0,0,0-.07-.75h-7.36A2.76,2.76,0,0,0,117.25,12Zm.3-1.5h6.9a3.77,3.77,0,0,0-6.9,0ZM121,5.4l-1.8,1.8a2.5,2.5,0,0,0,.75.15,7.63,7.63,0,0,0,2.93-.15Z" style="fill:url(#k)"/></g><g style="opacity:0.20000000298023224"><path d="M103.7,51.27l-.67-.22a4.45,4.45,0,0,0,2.47-4,4.5,4.5,0,0,0-9,0,4.59,4.59,0,0,0,2.47,4l-.67.22a7.51,7.51,0,0,0-4.73,5.78.42.42,0,0,0,.3.45.41.41,0,0,0,.45-.3,6.61,6.61,0,0,1,4.05-5.1l2.33,2.32c.08.08.15.08.3.08s.22-.08.3-.08l2.33-2.32a6.76,6.76,0,0,1,4.05,5.17.33.33,0,0,0,.37.3h.08a.33.33,0,0,0,.3-.45A7.49,7.49,0,0,0,103.7,51.27ZM97.25,47a3.75,3.75,0,0,1,7.5,0,2.76,2.76,0,0,1-.07.75H97.32A2.76,2.76,0,0,1,97.25,47Zm.3,1.5h6.9a3.77,3.77,0,0,1-6.9,0ZM101,53.6l-1.8-1.8a2.44,2.44,0,0,1,.75-.15,7.63,7.63,0,0,1,2.93.15Z" style="fill:url(#l)"/></g><g style="opacity:0.20000000298023224"><path d="M119.7,56.27l-.67-.22a4.45,4.45,0,0,0,2.47-4,4.5,4.5,0,0,0-9,0,4.59,4.59,0,0,0,2.47,4l-.67.22a7.53,7.53,0,0,0-4.73,5.78.42.42,0,0,0,.31.45.4.4,0,0,0,.44-.3,6.62,6.62,0,0,1,4.06-5.1l2.32,2.32c.08.08.15.08.3.08s.22-.08.3-.08l2.33-2.32a6.76,6.76,0,0,1,4.05,5.17.33.33,0,0,0,.37.3h.08a.33.33,0,0,0,.3-.45A7.49,7.49,0,0,0,119.7,56.27ZM113.25,52a3.75,3.75,0,0,1,7.5,0,2.76,2.76,0,0,1-.07.75h-7.36A2.76,2.76,0,0,1,113.25,52Zm.3,1.5h6.9a3.77,3.77,0,0,1-6.9,0ZM117,58.6l-1.8-1.8a2.5,2.5,0,0,1,.75-.15,7.63,7.63,0,0,1,2.93.15Z" style="fill:url(#m)"/></g><g style="opacity:0.20000000298023224"><path d="M136.7,56.27l-.68-.22a4.46,4.46,0,0,0,2.48-4,4.5,4.5,0,0,0-9,0,4.58,4.58,0,0,0,2.48,4l-.68.22a7.53,7.53,0,0,0-4.73,5.78.42.42,0,0,0,.31.45.4.4,0,0,0,.44-.3,6.6,6.6,0,0,1,4.06-5.1l2.32,2.32c.07.08.15.08.3.08s.23-.08.3-.08l2.33-2.32a6.73,6.73,0,0,1,4.05,5.17.33.33,0,0,0,.37.3h.08a.33.33,0,0,0,.3-.45A7.47,7.47,0,0,0,136.7,56.27ZM130.25,52a3.75,3.75,0,0,1,7.5,0,2.76,2.76,0,0,1-.07.75h-7.36A2.76,2.76,0,0,1,130.25,52Zm.3,1.5h6.9a3.77,3.77,0,0,1-6.9,0ZM134,58.6l-1.8-1.8a2.56,2.56,0,0,1,.75-.15,7.63,7.63,0,0,1,2.93.15Z" style="fill:url(#n)"/></g><g style="opacity:0.20000000298023224"><path d="M113.7,39.73,113,40a4.45,4.45,0,0,1,2.47,4,4.5,4.5,0,0,1-9,0A4.59,4.59,0,0,1,109,40l-.67-.22A7.53,7.53,0,0,1,103.57,34a.42.42,0,0,1,.31-.45.4.4,0,0,1,.44.3,6.62,6.62,0,0,0,4.06,5.1l2.32-2.32c.08-.08.15-.08.3-.08s.22.08.3.08l2.33,2.32a6.76,6.76,0,0,0,4.05-5.17.33.33,0,0,1,.37-.3h.08a.33.33,0,0,1,.3.45A7.49,7.49,0,0,1,113.7,39.73ZM107.25,44a3.75,3.75,0,0,0,7.5,0,2.76,2.76,0,0,0-.07-.75h-7.36A2.76,2.76,0,0,0,107.25,44Zm.3-1.5h6.9a3.77,3.77,0,0,0-6.9,0ZM111,37.4l-1.8,1.8a2.5,2.5,0,0,0,.75.15,7.63,7.63,0,0,0,2.93-.15Z" style="fill:url(#o)"/></g><g style="opacity:0.20000000298023224"><path d="M129.7,39.73,129,40a4.46,4.46,0,0,1,2.48,4,4.5,4.5,0,0,1-9,0A4.59,4.59,0,0,1,125,40l-.67-.22A7.53,7.53,0,0,1,119.57,34a.42.42,0,0,1,.31-.45.4.4,0,0,1,.44.3,6.62,6.62,0,0,0,4.06,5.1l2.32-2.32c.08-.08.15-.08.3-.08s.22.08.3.08l2.33,2.32a6.73,6.73,0,0,0,4.05-5.17.33.33,0,0,1,.37-.3h.08a.33.33,0,0,1,.3.45A7.47,7.47,0,0,1,129.7,39.73ZM123.25,44a3.75,3.75,0,0,0,7.5,0,2.76,2.76,0,0,0-.07-.75h-7.36A2.76,2.76,0,0,0,123.25,44Zm.3-1.5h6.9a3.77,3.77,0,0,0-6.9,0ZM127,37.4l-1.8,1.8a2.5,2.5,0,0,0,.75.15,7.63,7.63,0,0,0,2.93-.15Z" style="fill:url(#p)"/></g><g style="opacity:0.20000000298023224"><path d="M53.7,64.27,53,64.05a4.46,4.46,0,0,0,2.48-4,4.5,4.5,0,0,0-9,0,4.59,4.59,0,0,0,2.47,4l-.67.22a7.51,7.51,0,0,0-4.73,5.78.42.42,0,0,0,.3.45.41.41,0,0,0,.45-.3,6.61,6.61,0,0,1,4-5.1l2.33,2.32c.07.08.15.08.3.08s.22-.08.3-.08l2.32-2.32a6.71,6.71,0,0,1,4.05,5.17.35.35,0,0,0,.38.3h.07a.33.33,0,0,0,.3-.45A7.47,7.47,0,0,0,53.7,64.27ZM47.25,60a3.75,3.75,0,0,1,7.5,0,2.43,2.43,0,0,1-.08.75H47.32A2.76,2.76,0,0,1,47.25,60Zm.3,1.5h6.9a3.77,3.77,0,0,1-6.9,0ZM51,66.6l-1.8-1.8a2.44,2.44,0,0,1,.75-.15,7.58,7.58,0,0,1,2.92.15Z" style="fill:url(#q)"/></g><g style="opacity:0.20000000298023224"><path d="M69.7,69.27,69,69.05a4.46,4.46,0,0,0,2.48-4,4.5,4.5,0,0,0-9,0,4.59,4.59,0,0,0,2.47,4l-.67.22a7.51,7.51,0,0,0-4.73,5.78.42.42,0,0,0,.3.45.41.41,0,0,0,.45-.3,6.61,6.61,0,0,1,4.05-5.1l2.33,2.32c.07.08.15.08.3.08s.22-.08.3-.08l2.32-2.32a6.71,6.71,0,0,1,4,5.17.35.35,0,0,0,.38.3h.07a.33.33,0,0,0,.3-.45A7.47,7.47,0,0,0,69.7,69.27ZM63.25,65a3.75,3.75,0,0,1,7.5,0,2.43,2.43,0,0,1-.08.75H63.32A2.76,2.76,0,0,1,63.25,65Zm.3,1.5h6.9a3.77,3.77,0,0,1-6.9,0ZM67,71.6l-1.8-1.8a2.44,2.44,0,0,1,.75-.15,7.58,7.58,0,0,1,2.92.15Z" style="fill:url(#r)"/></g><g style="opacity:0.20000000298023224"><path d="M86.7,69.27,86,69.05a4.46,4.46,0,0,0,2.48-4,4.5,4.5,0,0,0-9,0,4.59,4.59,0,0,0,2.47,4l-.67.22a7.51,7.51,0,0,0-4.73,5.78.42.42,0,0,0,.3.45.41.41,0,0,0,.45-.3,6.61,6.61,0,0,1,4.05-5.1l2.33,2.32c.07.08.15.08.3.08s.22-.08.3-.08l2.32-2.32a6.71,6.71,0,0,1,4,5.17.35.35,0,0,0,.38.3h.07a.33.33,0,0,0,.3-.45A7.47,7.47,0,0,0,86.7,69.27ZM80.25,65a3.75,3.75,0,0,1,7.5,0,2.43,2.43,0,0,1-.08.75H80.32A2.76,2.76,0,0,1,80.25,65Zm.3,1.5h6.9a3.77,3.77,0,0,1-6.9,0ZM84,71.6l-1.8-1.8a2.44,2.44,0,0,1,.75-.15,7.58,7.58,0,0,1,2.92.15Z" style="fill:url(#s)"/></g><g style="opacity:0.20000000298023224"><path d="M63.7,52.73,63,53a4.46,4.46,0,0,1,2.48,4,4.5,4.5,0,0,1-9,0A4.59,4.59,0,0,1,59,53l-.67-.22A7.51,7.51,0,0,1,53.57,47a.42.42,0,0,1,.3-.45.41.41,0,0,1,.45.3,6.61,6.61,0,0,0,4,5.1l2.33-2.32c.07-.08.15-.08.3-.08s.22.08.3.08l2.32,2.32a6.71,6.71,0,0,0,4.05-5.17.35.35,0,0,1,.38-.3h.07a.33.33,0,0,1,.3.45A7.47,7.47,0,0,1,63.7,52.73ZM57.25,57a3.75,3.75,0,0,0,7.5,0,2.43,2.43,0,0,0-.08-.75H57.32A2.76,2.76,0,0,0,57.25,57Zm.3-1.5h6.9a3.77,3.77,0,0,0-6.9,0ZM61,50.4l-1.8,1.8a2.44,2.44,0,0,0,.75.15,7.58,7.58,0,0,0,2.92-.15Z" style="fill:url(#t)"/></g><g style="opacity:0.20000000298023224"><path d="M79.7,52.73,79,53a4.46,4.46,0,0,1,2.48,4,4.5,4.5,0,0,1-9,0A4.59,4.59,0,0,1,75,53l-.67-.22A7.51,7.51,0,0,1,69.57,47a.42.42,0,0,1,.3-.45.41.41,0,0,1,.45.3,6.61,6.61,0,0,0,4.05,5.1l2.33-2.32c.07-.08.15-.08.3-.08s.22.08.3.08l2.32,2.32a6.71,6.71,0,0,0,4-5.17.35.35,0,0,1,.38-.3h.07a.33.33,0,0,1,.3.45A7.47,7.47,0,0,1,79.7,52.73ZM73.25,57a3.75,3.75,0,0,0,7.5,0,2.43,2.43,0,0,0-.08-.75H73.32A2.76,2.76,0,0,0,73.25,57Zm.3-1.5h6.9a3.77,3.77,0,0,0-6.9,0ZM77,50.4l-1.8,1.8a2.44,2.44,0,0,0,.75.15,7.58,7.58,0,0,0,2.92-.15Z" style="fill:url(#u)"/></g><g style="opacity:0.20000000298023224"><path d="M59.7,96.27,59,96.05a4.46,4.46,0,0,0,2.48-4,4.5,4.5,0,0,0-9,0,4.59,4.59,0,0,0,2.47,4l-.67.22a7.51,7.51,0,0,0-4.73,5.78.41.41,0,0,0,.3.45.4.4,0,0,0,.45-.3,6.61,6.61,0,0,1,4-5.1l2.33,2.32c.07.08.15.08.3.08s.22-.08.3-.08l2.32-2.32a6.71,6.71,0,0,1,4.05,5.18c0,.15.15.29.38.29h.07a.32.32,0,0,0,.3-.44A7.47,7.47,0,0,0,59.7,96.27ZM53.25,92a3.75,3.75,0,0,1,7.5,0,2.43,2.43,0,0,1-.08.75H53.32A2.76,2.76,0,0,1,53.25,92Zm.3,1.5h6.9a3.77,3.77,0,0,1-6.9,0ZM57,98.6l-1.8-1.8a2.44,2.44,0,0,1,.75-.15,7.58,7.58,0,0,1,2.92.15Z" style="fill:url(#v)"/></g><g style="opacity:0.20000000298023224"><path d="M75.7,101.28l-.68-.23a4.46,4.46,0,0,0,2.48-4,4.5,4.5,0,0,0-9,0,4.59,4.59,0,0,0,2.47,4l-.67.23a7.5,7.5,0,0,0-4.73,5.77.41.41,0,0,0,.3.45.4.4,0,0,0,.45-.3,6.64,6.64,0,0,1,4.05-5.1l2.33,2.33c.07.07.15.07.3.07s.22-.07.3-.07l2.32-2.33a6.73,6.73,0,0,1,4,5.18c0,.15.15.29.38.29h.07a.32.32,0,0,0,.3-.44A7.47,7.47,0,0,0,75.7,101.28ZM69.25,97a3.75,3.75,0,0,1,7.5,0,2.43,2.43,0,0,1-.08.75H69.32A2.76,2.76,0,0,1,69.25,97Zm.3,1.5h6.9a3.77,3.77,0,0,1-6.9,0ZM73,103.6l-1.8-1.8a2.44,2.44,0,0,1,.75-.15,7.58,7.58,0,0,1,2.92.15Z" style="fill:url(#w)"/></g><g style="opacity:0.20000000298023224"><path d="M92.7,101.28l-.68-.23a4.46,4.46,0,0,0,2.48-4,4.5,4.5,0,0,0-9,0,4.59,4.59,0,0,0,2.47,4l-.67.23a7.5,7.5,0,0,0-4.73,5.77.41.41,0,0,0,.3.45.4.4,0,0,0,.45-.3,6.64,6.64,0,0,1,4.05-5.1l2.33,2.33c.07.07.15.07.3.07s.22-.07.3-.07l2.32-2.33a6.73,6.73,0,0,1,4,5.18c0,.15.15.29.38.29h.07a.32.32,0,0,0,.3-.44A7.47,7.47,0,0,0,92.7,101.28ZM86.25,97a3.75,3.75,0,0,1,7.5,0,2.43,2.43,0,0,1-.08.75H86.32A2.76,2.76,0,0,1,86.25,97Zm.3,1.5h6.9a3.77,3.77,0,0,1-6.9,0ZM90,103.6l-1.8-1.8a2.44,2.44,0,0,1,.75-.15,7.58,7.58,0,0,1,2.92.15Z" style="fill:url(#x)"/></g><g style="opacity:0.20000000298023224"><path d="M69.7,84.73,69,85a4.46,4.46,0,0,1,2.48,4,4.5,4.5,0,0,1-9,0A4.59,4.59,0,0,1,65,85l-.67-.22A7.51,7.51,0,0,1,59.57,79a.42.42,0,0,1,.3-.45.41.41,0,0,1,.45.3,6.61,6.61,0,0,0,4.05,5.1l2.33-2.32c.07-.08.15-.08.3-.08s.22.08.3.08l2.32,2.32a6.71,6.71,0,0,0,4-5.17.35.35,0,0,1,.38-.3h.07a.33.33,0,0,1,.3.45A7.47,7.47,0,0,1,69.7,84.73ZM63.25,89a3.75,3.75,0,0,0,7.5,0,2.43,2.43,0,0,0-.08-.75H63.32A2.76,2.76,0,0,0,63.25,89Zm.3-1.5h6.9a3.77,3.77,0,0,0-6.9,0ZM67,82.4l-1.8,1.8a2.44,2.44,0,0,0,.75.15,7.58,7.58,0,0,0,2.92-.15Z" style="fill:url(#y)"/></g><g style="opacity:0.20000000298023224"><path d="M85.7,84.73,85,85a4.46,4.46,0,0,1,2.48,4,4.5,4.5,0,0,1-9,0A4.59,4.59,0,0,1,81,85l-.67-.22A7.51,7.51,0,0,1,75.57,79a.42.42,0,0,1,.3-.45.41.41,0,0,1,.45.3,6.61,6.61,0,0,0,4.05,5.1l2.33-2.32c.07-.08.15-.08.3-.08s.22.08.3.08l2.32,2.32a6.71,6.71,0,0,0,4-5.17.35.35,0,0,1,.38-.3h.07a.33.33,0,0,1,.3.45A7.47,7.47,0,0,1,85.7,84.73ZM79.25,89a3.75,3.75,0,0,0,7.5,0,2.43,2.43,0,0,0-.08-.75H79.32A2.76,2.76,0,0,0,79.25,89Zm.3-1.5h6.9a3.77,3.77,0,0,0-6.9,0ZM83,82.4l-1.8,1.8a2.44,2.44,0,0,0,.75.15,7.58,7.58,0,0,0,2.92-.15Z" style="fill:url(#z)"/></g><g style="opacity:0.20000000298023224"><path d="M16.7,110.28l-.68-.23a4.46,4.46,0,0,0,2.48-4,4.5,4.5,0,0,0-9,0,4.59,4.59,0,0,0,2.47,4l-.67.23a7.5,7.5,0,0,0-4.73,5.77.41.41,0,0,0,.3.45.4.4,0,0,0,.45-.3,6.64,6.64,0,0,1,4-5.1l2.33,2.33c.07.07.15.07.3.07s.22-.07.3-.07l2.32-2.33a6.73,6.73,0,0,1,4.05,5.18c0,.15.15.29.38.29h.07a.32.32,0,0,0,.3-.44A7.47,7.47,0,0,0,16.7,110.28ZM10.25,106a3.75,3.75,0,0,1,7.5,0,2.4,2.4,0,0,1-.08.75H10.32A2.73,2.73,0,0,1,10.25,106Zm.3,1.5h6.9a3.77,3.77,0,0,1-6.9,0ZM14,112.6l-1.8-1.8a2.44,2.44,0,0,1,.75-.15,7.58,7.58,0,0,1,2.92.15Z" style="fill:url(#aa)"/></g><g style="opacity:0.20000000298023224"><path d="M26.7,98.73,26,99a4.46,4.46,0,0,1,2.48,4,4.5,4.5,0,0,1-9,0A4.59,4.59,0,0,1,22,99l-.67-.22A7.51,7.51,0,0,1,16.57,93a.42.42,0,0,1,.3-.45.41.41,0,0,1,.45.3,6.61,6.61,0,0,0,4.05,5.1l2.33-2.32c.07-.08.15-.08.3-.08s.22.08.3.08l2.32,2.32a6.71,6.71,0,0,0,4.05-5.17.35.35,0,0,1,.38-.3h.07a.33.33,0,0,1,.3.45A7.47,7.47,0,0,1,26.7,98.73ZM20.25,103a3.75,3.75,0,0,0,7.5,0,2.4,2.4,0,0,0-.08-.75H20.32A2.73,2.73,0,0,0,20.25,103Zm.3-1.5h6.9a3.77,3.77,0,0,0-6.9,0ZM24,96.4l-1.8,1.8a2.44,2.44,0,0,0,.75.15,7.58,7.58,0,0,0,2.92-.15Z" style="fill:url(#ab)"/></g><g style="opacity:0.20000000298023224"><path d="M42.7,98.73,42,99a4.46,4.46,0,0,1,2.48,4,4.5,4.5,0,0,1-9,0A4.59,4.59,0,0,1,38,99l-.67-.22A7.51,7.51,0,0,1,32.57,93a.42.42,0,0,1,.3-.45.41.41,0,0,1,.45.3,6.61,6.61,0,0,0,4,5.1l2.33-2.32c.07-.08.15-.08.3-.08s.22.08.3.08l2.32,2.32a6.71,6.71,0,0,0,4.05-5.17.35.35,0,0,1,.38-.3h.07a.33.33,0,0,1,.3.45A7.47,7.47,0,0,1,42.7,98.73ZM36.25,103a3.75,3.75,0,0,0,7.5,0,2.4,2.4,0,0,0-.08-.75H36.32A2.73,2.73,0,0,0,36.25,103Zm.3-1.5h6.9a3.77,3.77,0,0,0-6.9,0ZM40,96.4l-1.8,1.8a2.44,2.44,0,0,0,.75.15,7.58,7.58,0,0,0,2.92-.15Z" style="fill:url(#ac)"/></g><g style="opacity:0.20000000298023224"><path d="M107.7,86.27l-.67-.22a4.45,4.45,0,0,0,2.47-4,4.5,4.5,0,0,0-9,0,4.59,4.59,0,0,0,2.47,4l-.67.22a7.51,7.51,0,0,0-4.73,5.78.42.42,0,0,0,.3.45.41.41,0,0,0,.45-.3,6.62,6.62,0,0,1,4.06-5.1l2.32,2.32c.08.08.15.08.3.08s.22-.08.3-.08l2.33-2.32a6.76,6.76,0,0,1,4.05,5.17.33.33,0,0,0,.37.3h.08a.33.33,0,0,0,.3-.45A7.49,7.49,0,0,0,107.7,86.27ZM101.25,82a3.75,3.75,0,0,1,7.5,0,2.76,2.76,0,0,1-.07.75h-7.36A2.76,2.76,0,0,1,101.25,82Zm.3,1.5h6.9a3.77,3.77,0,0,1-6.9,0ZM105,88.6l-1.8-1.8a2.5,2.5,0,0,1,.75-.15,7.63,7.63,0,0,1,2.93.15Z" style="fill:url(#ad)"/></g><g style="opacity:0.20000000298023224"><path d="M123.7,91.27l-.67-.22a4.45,4.45,0,0,0,2.47-4,4.5,4.5,0,0,0-9,0,4.59,4.59,0,0,0,2.47,4l-.67.22a7.53,7.53,0,0,0-4.73,5.78.42.42,0,0,0,.31.45.4.4,0,0,0,.44-.3,6.62,6.62,0,0,1,4.06-5.1l2.32,2.32c.08.08.15.08.3.08s.22-.08.3-.08l2.33-2.32a6.76,6.76,0,0,1,4.05,5.17.33.33,0,0,0,.37.3h.08a.33.33,0,0,0,.3-.45A7.49,7.49,0,0,0,123.7,91.27ZM117.25,87a3.75,3.75,0,0,1,7.5,0,2.76,2.76,0,0,1-.07.75h-7.36A2.76,2.76,0,0,1,117.25,87Zm.3,1.5h6.9a3.77,3.77,0,0,1-6.9,0ZM121,93.6l-1.8-1.8a2.5,2.5,0,0,1,.75-.15,7.63,7.63,0,0,1,2.93.15Z" style="fill:url(#ae)"/></g><g style="opacity:0.20000000298023224"><path d="M140.7,91.27l-.68-.22a4.46,4.46,0,0,0,2.48-4,4.5,4.5,0,0,0-9,0,4.58,4.58,0,0,0,2.48,4l-.68.22a7.51,7.51,0,0,0-4.73,5.78.42.42,0,0,0,.31.45.4.4,0,0,0,.44-.3,6.6,6.6,0,0,1,4.06-5.1l2.32,2.32c.07.08.15.08.3.08s.23-.08.3-.08l2.33-2.32a6.73,6.73,0,0,1,4.05,5.17.33.33,0,0,0,.37.3h.08a.33.33,0,0,0,.3-.45A7.47,7.47,0,0,0,140.7,91.27ZM134.25,87a3.75,3.75,0,0,1,7.5,0,2.76,2.76,0,0,1-.07.75h-7.36A2.76,2.76,0,0,1,134.25,87Zm.3,1.5h6.9a3.77,3.77,0,0,1-6.9,0ZM138,93.6l-1.8-1.8a2.56,2.56,0,0,1,.75-.15,7.63,7.63,0,0,1,2.93.15Z" style="fill:url(#af)"/></g><g style="opacity:0.20000000298023224"><path d="M117.7,74.73,117,75a4.45,4.45,0,0,1,2.47,4,4.5,4.5,0,0,1-9,0A4.59,4.59,0,0,1,113,75l-.67-.22A7.53,7.53,0,0,1,107.57,69a.42.42,0,0,1,.31-.45.4.4,0,0,1,.44.3,6.62,6.62,0,0,0,4.06,5.1l2.32-2.32c.08-.08.15-.08.3-.08s.22.08.3.08l2.33,2.32a6.76,6.76,0,0,0,4.05-5.17.33.33,0,0,1,.37-.3h.08a.33.33,0,0,1,.3.45A7.49,7.49,0,0,1,117.7,74.73ZM111.25,79a3.75,3.75,0,0,0,7.5,0,2.76,2.76,0,0,0-.07-.75h-7.36A2.76,2.76,0,0,0,111.25,79Zm.3-1.5h6.9a3.77,3.77,0,0,0-6.9,0ZM115,72.4l-1.8,1.8a2.5,2.5,0,0,0,.75.15,7.63,7.63,0,0,0,2.93-.15Z" style="fill:url(#ag)"/></g><g style="opacity:0.20000000298023224"><path d="M133.7,74.73,133,75a4.46,4.46,0,0,1,2.48,4,4.5,4.5,0,0,1-9,0A4.58,4.58,0,0,1,129,75l-.68-.22A7.53,7.53,0,0,1,123.57,69a.42.42,0,0,1,.31-.45.4.4,0,0,1,.44.3,6.62,6.62,0,0,0,4.06,5.1l2.32-2.32c.07-.08.15-.08.3-.08s.23.08.3.08l2.33,2.32a6.73,6.73,0,0,0,4.05-5.17.33.33,0,0,1,.37-.3h.08a.33.33,0,0,1,.3.45A7.47,7.47,0,0,1,133.7,74.73ZM127.25,79a3.75,3.75,0,0,0,7.5,0,2.76,2.76,0,0,0-.07-.75h-7.36A2.76,2.76,0,0,0,127.25,79Zm.3-1.5h6.9a3.77,3.77,0,0,0-6.9,0ZM131,72.4l-1.8,1.8a2.56,2.56,0,0,0,.75.15,7.63,7.63,0,0,0,2.93-.15Z" style="fill:url(#ah)"/></g><g style="opacity:0.20000000298023224"><path d="M114.7,104.72,114,105a4.45,4.45,0,0,1,2.47,4,4.5,4.5,0,0,1-9,0,4.59,4.59,0,0,1,2.47-4l-.67-.23A7.52,7.52,0,0,1,104.57,99a.42.42,0,0,1,.31-.45.4.4,0,0,1,.44.3,6.64,6.64,0,0,0,4.06,5.1l2.32-2.33c.08-.07.15-.07.3-.07s.22.07.3.07l2.33,2.33a6.76,6.76,0,0,0,4.05-5.17.33.33,0,0,1,.37-.3h.08a.33.33,0,0,1,.3.45A7.49,7.49,0,0,1,114.7,104.72ZM108.25,109a3.75,3.75,0,0,0,7.5,0,2.73,2.73,0,0,0-.07-.75h-7.36A2.73,2.73,0,0,0,108.25,109Zm.3-1.5h6.9a3.77,3.77,0,0,0-6.9,0Zm3.45-5.1-1.8,1.8a2.5,2.5,0,0,0,.75.15,7.63,7.63,0,0,0,2.93-.15Z" style="fill:url(#ai)"/></g><g style="opacity:0.20000000298023224"><path d="M130.7,104.72,130,105a4.46,4.46,0,0,1,2.48,4,4.5,4.5,0,0,1-9,0,4.59,4.59,0,0,1,2.47-4l-.67-.23A7.52,7.52,0,0,1,120.57,99a.42.42,0,0,1,.31-.45.4.4,0,0,1,.44.3,6.64,6.64,0,0,0,4.06,5.1l2.32-2.33c.08-.07.15-.07.3-.07s.23.07.3.07l2.33,2.33a6.73,6.73,0,0,0,4.05-5.17.33.33,0,0,1,.37-.3h.08a.33.33,0,0,1,.3.45A7.47,7.47,0,0,1,130.7,104.72ZM124.25,109a3.75,3.75,0,0,0,7.5,0,2.73,2.73,0,0,0-.07-.75h-7.36A2.73,2.73,0,0,0,124.25,109Zm.3-1.5h6.9a3.77,3.77,0,0,0-6.9,0Zm3.45-5.1-1.8,1.8a2.5,2.5,0,0,0,.75.15,7.63,7.63,0,0,0,2.93-.15Z" style="fill:url(#aj)"/></g><g style="opacity:0.20000000298023224"><path d="M11.7,74.27,11,74.05a4.46,4.46,0,0,0,2.48-4,4.5,4.5,0,0,0-9,0,4.59,4.59,0,0,0,2.47,4l-.67.22a7.51,7.51,0,0,0-4.73,5.78.42.42,0,0,0,.3.45.41.41,0,0,0,.45-.3,6.61,6.61,0,0,1,4.05-5.1L8.7,77.42c.07.08.15.08.3.08s.22-.08.3-.08l2.32-2.32a6.71,6.71,0,0,1,4.05,5.17.35.35,0,0,0,.38.3h.07a.33.33,0,0,0,.3-.45A7.47,7.47,0,0,0,11.7,74.27ZM5.25,70a3.75,3.75,0,0,1,7.5,0,2.43,2.43,0,0,1-.08.75H5.32A2.76,2.76,0,0,1,5.25,70Zm.3,1.5h6.9a3.77,3.77,0,0,1-6.9,0ZM9,76.6,7.2,74.8A2.44,2.44,0,0,1,8,74.65a7.58,7.58,0,0,1,2.92.15Z" style="fill:url(#ak)"/></g><g style="opacity:0.20000000298023224"><path d="M27.7,79.27,27,79.05a4.46,4.46,0,0,0,2.48-4,4.5,4.5,0,0,0-9,0,4.59,4.59,0,0,0,2.47,4l-.67.22a7.51,7.51,0,0,0-4.73,5.78.42.42,0,0,0,.3.45.41.41,0,0,0,.45-.3,6.61,6.61,0,0,1,4.05-5.1l2.33,2.32c.07.08.15.08.3.08s.22-.08.3-.08l2.32-2.32a6.71,6.71,0,0,1,4.05,5.17.35.35,0,0,0,.38.3h.07a.33.33,0,0,0,.3-.45A7.47,7.47,0,0,0,27.7,79.27ZM21.25,75a3.75,3.75,0,0,1,7.5,0,2.43,2.43,0,0,1-.08.75H21.32A2.76,2.76,0,0,1,21.25,75Zm.3,1.5h6.9a3.77,3.77,0,0,1-6.9,0ZM25,81.6l-1.8-1.8a2.44,2.44,0,0,1,.75-.15,7.58,7.58,0,0,1,2.92.15Z" style="fill:url(#al)"/></g><g style="opacity:0.20000000298023224"><path d="M44.7,79.27,44,79.05a4.46,4.46,0,0,0,2.48-4,4.5,4.5,0,0,0-9,0,4.59,4.59,0,0,0,2.47,4l-.67.22a7.51,7.51,0,0,0-4.73,5.78.42.42,0,0,0,.3.45.41.41,0,0,0,.45-.3,6.61,6.61,0,0,1,4-5.1l2.33,2.32c.07.08.15.08.3.08s.22-.08.3-.08l2.32-2.32a6.71,6.71,0,0,1,4.05,5.17.35.35,0,0,0,.38.3h.07a.33.33,0,0,0,.3-.45A7.47,7.47,0,0,0,44.7,79.27ZM38.25,75a3.75,3.75,0,0,1,7.5,0,2.43,2.43,0,0,1-.08.75H38.32A2.76,2.76,0,0,1,38.25,75Zm.3,1.5h6.9a3.77,3.77,0,0,1-6.9,0ZM42,81.6l-1.8-1.8a2.44,2.44,0,0,1,.75-.15,7.58,7.58,0,0,1,2.92.15Z" style="fill:url(#am)"/></g><g style="opacity:0.20000000298023224"><path d="M21.7,62.73,21,63a4.46,4.46,0,0,1,2.48,4,4.5,4.5,0,0,1-9,0A4.59,4.59,0,0,1,17,63l-.67-.22A7.51,7.51,0,0,1,11.57,57a.42.42,0,0,1,.3-.45.41.41,0,0,1,.45.3,6.61,6.61,0,0,0,4.05,5.1l2.33-2.32c.07-.08.15-.08.3-.08s.22.08.3.08l2.32,2.32a6.71,6.71,0,0,0,4.05-5.17.35.35,0,0,1,.38-.3h.07a.33.33,0,0,1,.3.45A7.47,7.47,0,0,1,21.7,62.73ZM15.25,67a3.75,3.75,0,0,0,7.5,0,2.43,2.43,0,0,0-.08-.75H15.32A2.76,2.76,0,0,0,15.25,67Zm.3-1.5h6.9a3.77,3.77,0,0,0-6.9,0ZM19,60.4l-1.8,1.8a2.44,2.44,0,0,0,.75.15,7.58,7.58,0,0,0,2.92-.15Z" style="fill:url(#an)"/></g><g style="opacity:0.20000000298023224"><path d="M37.7,62.73,37,63a4.46,4.46,0,0,1,2.48,4,4.5,4.5,0,0,1-9,0A4.59,4.59,0,0,1,33,63l-.67-.22A7.51,7.51,0,0,1,27.57,57a.42.42,0,0,1,.3-.45.41.41,0,0,1,.45.3,6.61,6.61,0,0,0,4,5.1l2.33-2.32c.07-.08.15-.08.3-.08s.22.08.3.08l2.32,2.32a6.71,6.71,0,0,0,4.05-5.17.35.35,0,0,1,.38-.3h.07a.33.33,0,0,1,.3.45A7.47,7.47,0,0,1,37.7,62.73ZM31.25,67a3.75,3.75,0,0,0,7.5,0,2.43,2.43,0,0,0-.08-.75H31.32A2.76,2.76,0,0,0,31.25,67Zm.3-1.5h6.9a3.77,3.77,0,0,0-6.9,0ZM35,60.4l-1.8,1.8a2.44,2.44,0,0,0,.75.15,7.58,7.58,0,0,0,2.92-.15Z" style="fill:url(#ao)"/></g><g style="opacity:0.20000000298023224"><path d="M11.7,42.27,11,42.05a4.46,4.46,0,0,0,2.48-4,4.5,4.5,0,0,0-9,0,4.59,4.59,0,0,0,2.47,4l-.67.22a7.51,7.51,0,0,0-4.73,5.78.42.42,0,0,0,.3.45.41.41,0,0,0,.45-.3,6.61,6.61,0,0,1,4.05-5.1L8.7,45.42c.07.08.15.08.3.08s.22-.08.3-.08l2.32-2.32a6.71,6.71,0,0,1,4.05,5.17.35.35,0,0,0,.38.3h.07a.33.33,0,0,0,.3-.45A7.47,7.47,0,0,0,11.7,42.27ZM5.25,38a3.75,3.75,0,0,1,7.5,0,2.43,2.43,0,0,1-.08.75H5.32A2.76,2.76,0,0,1,5.25,38Zm.3,1.5h6.9a3.77,3.77,0,0,1-6.9,0ZM9,44.6,7.2,42.8A2.44,2.44,0,0,1,8,42.65a7.58,7.58,0,0,1,2.92.15Z" style="fill:url(#ap)"/></g><g style="opacity:0.20000000298023224"><path d="M27.7,47.27,27,47.05a4.46,4.46,0,0,0,2.48-4,4.5,4.5,0,0,0-9,0,4.59,4.59,0,0,0,2.47,4l-.67.22a7.51,7.51,0,0,0-4.73,5.78.42.42,0,0,0,.3.45.41.41,0,0,0,.45-.3,6.61,6.61,0,0,1,4.05-5.1l2.33,2.32c.07.08.15.08.3.08s.22-.08.3-.08l2.32-2.32a6.71,6.71,0,0,1,4.05,5.17.35.35,0,0,0,.38.3h.07a.33.33,0,0,0,.3-.45A7.47,7.47,0,0,0,27.7,47.27ZM21.25,43a3.75,3.75,0,0,1,7.5,0,2.43,2.43,0,0,1-.08.75H21.32A2.76,2.76,0,0,1,21.25,43Zm.3,1.5h6.9a3.77,3.77,0,0,1-6.9,0ZM25,49.6l-1.8-1.8a2.44,2.44,0,0,1,.75-.15,7.58,7.58,0,0,1,2.92.15Z" style="fill:url(#aq)"/></g><g style="opacity:0.20000000298023224"><path d="M44.7,47.27,44,47.05a4.46,4.46,0,0,0,2.48-4,4.5,4.5,0,0,0-9,0,4.59,4.59,0,0,0,2.47,4l-.67.22a7.51,7.51,0,0,0-4.73,5.78.42.42,0,0,0,.3.45.41.41,0,0,0,.45-.3,6.61,6.61,0,0,1,4-5.1l2.33,2.32c.07.08.15.08.3.08s.22-.08.3-.08l2.32-2.32a6.71,6.71,0,0,1,4.05,5.17.35.35,0,0,0,.38.3h.07a.33.33,0,0,0,.3-.45A7.47,7.47,0,0,0,44.7,47.27ZM38.25,43a3.75,3.75,0,0,1,7.5,0,2.43,2.43,0,0,1-.08.75H38.32A2.76,2.76,0,0,1,38.25,43Zm.3,1.5h6.9a3.77,3.77,0,0,1-6.9,0ZM42,49.6l-1.8-1.8a2.44,2.44,0,0,1,.75-.15,7.58,7.58,0,0,1,2.92.15Z" style="fill:url(#ar)"/></g><g style="opacity:0.20000000298023224"><path d="M21.7,30.73,21,31A4.46,4.46,0,0,1,23.5,35a4.5,4.5,0,0,1-9,0A4.59,4.59,0,0,1,17,31l-.67-.22A7.51,7.51,0,0,1,11.57,25a.42.42,0,0,1,.3-.45.41.41,0,0,1,.45.3,6.61,6.61,0,0,0,4.05,5.1l2.33-2.32c.07-.08.15-.08.3-.08s.22.08.3.08l2.32,2.32a6.71,6.71,0,0,0,4.05-5.17.35.35,0,0,1,.38-.3h.07a.33.33,0,0,1,.3.45A7.47,7.47,0,0,1,21.7,30.73ZM15.25,35a3.75,3.75,0,0,0,7.5,0,2.43,2.43,0,0,0-.08-.75H15.32A2.76,2.76,0,0,0,15.25,35Zm.3-1.5h6.9a3.77,3.77,0,0,0-6.9,0ZM19,28.4l-1.8,1.8a2.44,2.44,0,0,0,.75.15,7.58,7.58,0,0,0,2.92-.15Z" style="fill:url(#as)"/></g><g style="opacity:0.20000000298023224"><path d="M37.7,30.73,37,31A4.46,4.46,0,0,1,39.5,35a4.5,4.5,0,0,1-9,0A4.59,4.59,0,0,1,33,31l-.67-.22A7.51,7.51,0,0,1,27.57,25a.42.42,0,0,1,.3-.45.41.41,0,0,1,.45.3,6.61,6.61,0,0,0,4,5.1l2.33-2.32c.07-.08.15-.08.3-.08s.22.08.3.08l2.32,2.32a6.71,6.71,0,0,0,4.05-5.17.35.35,0,0,1,.38-.3h.07a.33.33,0,0,1,.3.45A7.47,7.47,0,0,1,37.7,30.73ZM31.25,35a3.75,3.75,0,0,0,7.5,0,2.43,2.43,0,0,0-.08-.75H31.32A2.76,2.76,0,0,0,31.25,35Zm.3-1.5h6.9a3.77,3.77,0,0,0-6.9,0ZM35,28.4l-1.8,1.8a2.44,2.44,0,0,0,.75.15,7.58,7.58,0,0,0,2.92-.15Z" style="fill:url(#at)"/></g><g style="opacity:0.20000000298023224"><path d="M146.7,34.27l-.68-.22a4.46,4.46,0,0,0,2.48-4,4.5,4.5,0,0,0-9,0,4.58,4.58,0,0,0,2.48,4l-.68.22a7.51,7.51,0,0,0-4.73,5.78.42.42,0,0,0,.31.45.4.4,0,0,0,.44-.3,6.6,6.6,0,0,1,4.06-5.1l2.32,2.32c.07.08.15.08.3.08s.23-.08.3-.08l2.33-2.32a6.73,6.73,0,0,1,4.05,5.17.33.33,0,0,0,.37.3h.08a.33.33,0,0,0,.3-.45A7.47,7.47,0,0,0,146.7,34.27ZM140.25,30a3.75,3.75,0,0,1,7.5,0,2.76,2.76,0,0,1-.07.75h-7.36A2.76,2.76,0,0,1,140.25,30Zm.3,1.5h6.9a3.77,3.77,0,0,1-6.9,0ZM144,36.6l-1.8-1.8a2.56,2.56,0,0,1,.75-.15,7.63,7.63,0,0,1,2.93.15Z" style="fill:url(#au)"/></g><g style="opacity:0.20000000298023224"><path d="M162.7,39.27l-.68-.22a4.46,4.46,0,0,0,2.48-4,4.5,4.5,0,0,0-9,0,4.58,4.58,0,0,0,2.48,4l-.68.22a7.51,7.51,0,0,0-4.73,5.78.42.42,0,0,0,.31.45.4.4,0,0,0,.44-.3,6.6,6.6,0,0,1,4.06-5.1l2.32,2.32c.07.08.15.08.3.08s.23-.08.3-.08l2.33-2.32a6.73,6.73,0,0,1,4.05,5.17.33.33,0,0,0,.37.3h.08a.33.33,0,0,0,.3-.45A7.47,7.47,0,0,0,162.7,39.27ZM156.25,35a3.75,3.75,0,0,1,7.5,0,2.76,2.76,0,0,1-.07.75h-7.36A2.76,2.76,0,0,1,156.25,35Zm.3,1.5h6.9a3.77,3.77,0,0,1-6.9,0ZM160,41.6l-1.8-1.8a2.56,2.56,0,0,1,.75-.15,7.63,7.63,0,0,1,2.93.15Z" style="fill:url(#av)"/></g><g style="opacity:0.20000000298023224"><path d="M179.7,39.27l-.68-.22a4.46,4.46,0,0,0,2.48-4,4.5,4.5,0,0,0-9,0,4.58,4.58,0,0,0,2.48,4l-.68.22a7.51,7.51,0,0,0-4.73,5.78.42.42,0,0,0,.31.45.4.4,0,0,0,.44-.3,6.6,6.6,0,0,1,4.06-5.1l2.32,2.32c.07.08.15.08.3.08s.23-.08.3-.08l2.33-2.32a6.73,6.73,0,0,1,4.05,5.17.33.33,0,0,0,.37.3h.08a.33.33,0,0,0,.3-.45A7.47,7.47,0,0,0,179.7,39.27ZM173.25,35a3.75,3.75,0,0,1,7.5,0,2.76,2.76,0,0,1-.07.75h-7.36A2.76,2.76,0,0,1,173.25,35Zm.3,1.5h6.9a3.77,3.77,0,0,1-6.9,0ZM177,41.6l-1.8-1.8a2.56,2.56,0,0,1,.75-.15,7.63,7.63,0,0,1,2.93.15Z" style="fill:url(#aw)"/></g><g style="opacity:0.20000000298023224"><path d="M156.7,22.73,156,23A4.46,4.46,0,0,1,158.5,27a4.5,4.5,0,0,1-9,0A4.58,4.58,0,0,1,152,23l-.68-.22A7.51,7.51,0,0,1,146.57,17a.42.42,0,0,1,.31-.45.4.4,0,0,1,.44.3,6.6,6.6,0,0,0,4.06,5.1l2.32-2.32c.07-.08.15-.08.3-.08s.23.08.3.08l2.33,2.32a6.73,6.73,0,0,0,4.05-5.17.33.33,0,0,1,.37-.3h.08a.33.33,0,0,1,.3.45A7.47,7.47,0,0,1,156.7,22.73ZM150.25,27a3.75,3.75,0,0,0,7.5,0,2.76,2.76,0,0,0-.07-.75h-7.36A2.76,2.76,0,0,0,150.25,27Zm.3-1.5h6.9a3.77,3.77,0,0,0-6.9,0ZM154,20.4l-1.8,1.8a2.56,2.56,0,0,0,.75.15,7.63,7.63,0,0,0,2.93-.15Z" style="fill:url(#ax)"/></g><g style="opacity:0.20000000298023224"><path d="M172.7,22.73,172,23A4.46,4.46,0,0,1,174.5,27a4.5,4.5,0,0,1-9,0A4.58,4.58,0,0,1,168,23l-.68-.22A7.51,7.51,0,0,1,162.57,17a.42.42,0,0,1,.31-.45.4.4,0,0,1,.44.3,6.6,6.6,0,0,0,4.06,5.1l2.32-2.32c.07-.08.15-.08.3-.08s.23.08.3.08l2.33,2.32a6.73,6.73,0,0,0,4.05-5.17.33.33,0,0,1,.37-.3h.08a.33.33,0,0,1,.3.45A7.47,7.47,0,0,1,172.7,22.73ZM166.25,27a3.75,3.75,0,0,0,7.5,0,2.76,2.76,0,0,0-.07-.75h-7.36A2.76,2.76,0,0,0,166.25,27Zm.3-1.5h6.9a3.77,3.77,0,0,0-6.9,0ZM170,20.4l-1.8,1.8a2.56,2.56,0,0,0,.75.15,7.63,7.63,0,0,0,2.93-.15Z" style="fill:url(#ay)"/></g><g style="opacity:0.20000000298023224"><path d="M195.7,43.27l-.68-.22a4.46,4.46,0,0,0,2.48-4,4.5,4.5,0,0,0-9,0,4.58,4.58,0,0,0,2.48,4l-.68.22a7.51,7.51,0,0,0-4.73,5.78.42.42,0,0,0,.31.45.4.4,0,0,0,.44-.3,6.6,6.6,0,0,1,4.06-5.1l2.32,2.32c.07.08.15.08.3.08s.23-.08.3-.08l2.33-2.32a6.73,6.73,0,0,1,4.05,5.17.33.33,0,0,0,.37.3h.08a.33.33,0,0,0,.3-.45A7.47,7.47,0,0,0,195.7,43.27ZM189.25,39a3.75,3.75,0,0,1,7.5,0,2.76,2.76,0,0,1-.07.75h-7.36A2.76,2.76,0,0,1,189.25,39Zm.3,1.5h6.9a3.77,3.77,0,0,1-6.9,0ZM193,45.6l-1.8-1.8a2.56,2.56,0,0,1,.75-.15,7.63,7.63,0,0,1,2.93.15Z" style="fill:url(#az)"/></g><g style="opacity:0.20000000298023224"><path d="M211.7,48.27l-.68-.22a4.46,4.46,0,0,0,2.48-4,4.5,4.5,0,0,0-9,0,4.58,4.58,0,0,0,2.48,4l-.68.22a7.51,7.51,0,0,0-4.73,5.78.42.42,0,0,0,.31.45.4.4,0,0,0,.44-.3,6.6,6.6,0,0,1,4.06-5.1l2.32,2.32c.07.08.15.08.3.08s.23-.08.3-.08l2.33-2.32a6.73,6.73,0,0,1,4.05,5.17.33.33,0,0,0,.37.3h.08a.33.33,0,0,0,.3-.45A7.47,7.47,0,0,0,211.7,48.27ZM205.25,44a3.75,3.75,0,0,1,7.5,0,2.76,2.76,0,0,1-.07.75h-7.36A2.76,2.76,0,0,1,205.25,44Zm.3,1.5h6.9a3.77,3.77,0,0,1-6.9,0ZM209,50.6l-1.8-1.8a2.56,2.56,0,0,1,.75-.15,7.63,7.63,0,0,1,2.93.15Z" style="fill:url(#ba)"/></g><g style="opacity:0.20000000298023224"><path d="M228.7,48.27l-.68-.22a4.46,4.46,0,0,0,2.48-4,4.5,4.5,0,0,0-9,0,4.58,4.58,0,0,0,2.48,4l-.68.22a7.51,7.51,0,0,0-4.73,5.78.42.42,0,0,0,.31.45.4.4,0,0,0,.44-.3,6.6,6.6,0,0,1,4.06-5.1l2.32,2.32c.07.08.15.08.3.08s.23-.08.3-.08l2.33-2.32a6.73,6.73,0,0,1,4.05,5.17.33.33,0,0,0,.37.3h.08a.33.33,0,0,0,.3-.45A7.47,7.47,0,0,0,228.7,48.27ZM222.25,44a3.75,3.75,0,0,1,7.5,0,2.76,2.76,0,0,1-.07.75h-7.36A2.76,2.76,0,0,1,222.25,44Zm.3,1.5h6.9a3.77,3.77,0,0,1-6.9,0ZM226,50.6l-1.8-1.8a2.56,2.56,0,0,1,.75-.15,7.63,7.63,0,0,1,2.93.15Z" style="fill:url(#bb)"/></g><g style="opacity:0.20000000298023224"><path d="M205.7,31.73,205,32A4.46,4.46,0,0,1,207.5,36a4.5,4.5,0,0,1-9,0A4.58,4.58,0,0,1,201,32l-.68-.22A7.51,7.51,0,0,1,195.57,26a.42.42,0,0,1,.31-.45.4.4,0,0,1,.44.3,6.6,6.6,0,0,0,4.06,5.1l2.32-2.32c.07-.08.15-.08.3-.08s.23.08.3.08l2.33,2.32a6.73,6.73,0,0,0,4.05-5.17.33.33,0,0,1,.37-.3h.08a.33.33,0,0,1,.3.45A7.47,7.47,0,0,1,205.7,31.73ZM199.25,36a3.75,3.75,0,0,0,7.5,0,2.76,2.76,0,0,0-.07-.75h-7.36A2.76,2.76,0,0,0,199.25,36Zm.3-1.5h6.9a3.77,3.77,0,0,0-6.9,0ZM203,29.4l-1.8,1.8a2.56,2.56,0,0,0,.75.15,7.63,7.63,0,0,0,2.93-.15Z" style="fill:url(#bc)"/></g><g style="opacity:0.20000000298023224"><path d="M221.7,31.73,221,32A4.46,4.46,0,0,1,223.5,36a4.5,4.5,0,0,1-9,0A4.58,4.58,0,0,1,217,32l-.68-.22A7.51,7.51,0,0,1,211.57,26a.42.42,0,0,1,.31-.45.4.4,0,0,1,.44.3,6.6,6.6,0,0,0,4.06,5.1l2.32-2.32c.07-.08.15-.08.3-.08s.23.08.3.08l2.33,2.32a6.73,6.73,0,0,0,4.05-5.17.33.33,0,0,1,.37-.3h.08a.33.33,0,0,1,.3.45A7.47,7.47,0,0,1,221.7,31.73ZM215.25,36a3.75,3.75,0,0,0,7.5,0,2.76,2.76,0,0,0-.07-.75h-7.36A2.76,2.76,0,0,0,215.25,36Zm.3-1.5h6.9a3.77,3.77,0,0,0-6.9,0ZM219,29.4l-1.8,1.8a2.56,2.56,0,0,0,.75.15,7.63,7.63,0,0,0,2.93-.15Z" style="fill:url(#bd)"/></g><g style="opacity:0.20000000298023224"><path d="M151.7,66.27l-.68-.22a4.46,4.46,0,0,0,2.48-4,4.5,4.5,0,0,0-9,0,4.58,4.58,0,0,0,2.48,4l-.68.22a7.51,7.51,0,0,0-4.73,5.78.42.42,0,0,0,.31.45.4.4,0,0,0,.44-.3,6.6,6.6,0,0,1,4.06-5.1l2.32,2.32c.07.08.15.08.3.08s.23-.08.3-.08l2.33-2.32a6.73,6.73,0,0,1,4.05,5.17.33.33,0,0,0,.37.3h.08a.33.33,0,0,0,.3-.45A7.47,7.47,0,0,0,151.7,66.27ZM145.25,62a3.75,3.75,0,0,1,7.5,0,2.76,2.76,0,0,1-.07.75h-7.36A2.76,2.76,0,0,1,145.25,62Zm.3,1.5h6.9a3.77,3.77,0,0,1-6.9,0ZM149,68.6l-1.8-1.8a2.56,2.56,0,0,1,.75-.15,7.63,7.63,0,0,1,2.93.15Z" style="fill:url(#be)"/></g><g style="opacity:0.20000000298023224"><path d="M167.7,71.27l-.68-.22a4.46,4.46,0,0,0,2.48-4,4.5,4.5,0,0,0-9,0,4.58,4.58,0,0,0,2.48,4l-.68.22a7.51,7.51,0,0,0-4.73,5.78.42.42,0,0,0,.31.45.4.4,0,0,0,.44-.3,6.6,6.6,0,0,1,4.06-5.1l2.32,2.32c.07.08.15.08.3.08s.23-.08.3-.08l2.33-2.32a6.73,6.73,0,0,1,4.05,5.17.33.33,0,0,0,.37.3h.08a.33.33,0,0,0,.3-.45A7.47,7.47,0,0,0,167.7,71.27ZM161.25,67a3.75,3.75,0,0,1,7.5,0,2.76,2.76,0,0,1-.07.75h-7.36A2.76,2.76,0,0,1,161.25,67Zm.3,1.5h6.9a3.77,3.77,0,0,1-6.9,0ZM165,73.6l-1.8-1.8a2.56,2.56,0,0,1,.75-.15,7.63,7.63,0,0,1,2.93.15Z" style="fill:url(#bf)"/></g><g style="opacity:0.20000000298023224"><path d="M184.7,71.27l-.68-.22a4.46,4.46,0,0,0,2.48-4,4.5,4.5,0,0,0-9,0,4.58,4.58,0,0,0,2.48,4l-.68.22a7.51,7.51,0,0,0-4.73,5.78.42.42,0,0,0,.31.45.4.4,0,0,0,.44-.3,6.6,6.6,0,0,1,4.06-5.1l2.32,2.32c.07.08.15.08.3.08s.23-.08.3-.08l2.33-2.32a6.73,6.73,0,0,1,4.05,5.17.33.33,0,0,0,.37.3h.08a.33.33,0,0,0,.3-.45A7.47,7.47,0,0,0,184.7,71.27ZM178.25,67a3.75,3.75,0,0,1,7.5,0,2.76,2.76,0,0,1-.07.75h-7.36A2.76,2.76,0,0,1,178.25,67Zm.3,1.5h6.9a3.77,3.77,0,0,1-6.9,0ZM182,73.6l-1.8-1.8a2.56,2.56,0,0,1,.75-.15,7.63,7.63,0,0,1,2.93.15Z" style="fill:url(#bg)"/></g><g style="opacity:0.20000000298023224"><path d="M161.7,54.73,161,55a4.46,4.46,0,0,1,2.48,4,4.5,4.5,0,0,1-9,0A4.58,4.58,0,0,1,157,55l-.68-.22A7.51,7.51,0,0,1,151.57,49a.42.42,0,0,1,.31-.45.4.4,0,0,1,.44.3,6.6,6.6,0,0,0,4.06,5.1l2.32-2.32c.07-.08.15-.08.3-.08s.23.08.3.08l2.33,2.32a6.73,6.73,0,0,0,4.05-5.17.33.33,0,0,1,.37-.3h.08a.33.33,0,0,1,.3.45A7.47,7.47,0,0,1,161.7,54.73ZM155.25,59a3.75,3.75,0,0,0,7.5,0,2.76,2.76,0,0,0-.07-.75h-7.36A2.76,2.76,0,0,0,155.25,59Zm.3-1.5h6.9a3.77,3.77,0,0,0-6.9,0ZM159,52.4l-1.8,1.8a2.56,2.56,0,0,0,.75.15,7.63,7.63,0,0,0,2.93-.15Z" style="fill:url(#bh)"/></g><g style="opacity:0.20000000298023224"><path d="M177.7,54.73,177,55a4.46,4.46,0,0,1,2.48,4,4.5,4.5,0,0,1-9,0A4.58,4.58,0,0,1,173,55l-.68-.22A7.51,7.51,0,0,1,167.57,49a.42.42,0,0,1,.31-.45.4.4,0,0,1,.44.3,6.6,6.6,0,0,0,4.06,5.1l2.32-2.32c.07-.08.15-.08.3-.08s.23.08.3.08l2.33,2.32a6.73,6.73,0,0,0,4.05-5.17.33.33,0,0,1,.37-.3h.08a.33.33,0,0,1,.3.45A7.47,7.47,0,0,1,177.7,54.73ZM171.25,59a3.75,3.75,0,0,0,7.5,0,2.76,2.76,0,0,0-.07-.75h-7.36A2.76,2.76,0,0,0,171.25,59Zm.3-1.5h6.9a3.77,3.77,0,0,0-6.9,0ZM175,52.4l-1.8,1.8a2.56,2.56,0,0,0,.75.15,7.63,7.63,0,0,0,2.93-.15Z" style="fill:url(#bi)"/></g><g style="opacity:0.20000000298023224"><path d="M155.7,99.27l-.68-.22a4.46,4.46,0,0,0,2.48-4,4.5,4.5,0,0,0-9,0,4.58,4.58,0,0,0,2.48,4l-.68.22a7.53,7.53,0,0,0-4.73,5.78.41.41,0,0,0,.31.45.4.4,0,0,0,.44-.3,6.64,6.64,0,0,1,4.06-5.1l2.32,2.33c.07.07.15.07.3.07s.23-.07.3-.07l2.33-2.33a6.75,6.75,0,0,1,4.05,5.18c0,.15.14.29.37.29h.08a.33.33,0,0,0,.3-.44A7.5,7.5,0,0,0,155.7,99.27ZM149.25,95a3.75,3.75,0,0,1,7.5,0,2.76,2.76,0,0,1-.07.75h-7.36A2.76,2.76,0,0,1,149.25,95Zm.3,1.5h6.9a3.77,3.77,0,0,1-6.9,0Zm3.45,5.1-1.8-1.8a2.56,2.56,0,0,1,.75-.15,7.63,7.63,0,0,1,2.93.15Z" style="fill:url(#bj)"/></g><g style="opacity:0.20000000298023224"><path d="M171.7,104.28l-.68-.23a4.46,4.46,0,0,0,2.48-4,4.5,4.5,0,0,0-9,0,4.58,4.58,0,0,0,2.48,4l-.68.23a7.5,7.5,0,0,0-4.73,5.77.41.41,0,0,0,.31.45.4.4,0,0,0,.44-.3,6.64,6.64,0,0,1,4.06-5.1l2.32,2.33c.07.07.15.07.3.07s.23-.07.3-.07l2.33-2.33a6.75,6.75,0,0,1,4.05,5.18c0,.15.14.29.37.29h.08a.33.33,0,0,0,.3-.44A7.47,7.47,0,0,0,171.7,104.28ZM165.25,100a3.75,3.75,0,0,1,7.5,0,2.73,2.73,0,0,1-.07.75h-7.36A2.73,2.73,0,0,1,165.25,100Zm.3,1.5h6.9a3.77,3.77,0,0,1-6.9,0Zm3.45,5.1-1.8-1.8a2.56,2.56,0,0,1,.75-.15,7.63,7.63,0,0,1,2.93.15Z" style="fill:url(#bk)"/></g><g style="opacity:0.20000000298023224"><path d="M188.7,104.28l-.68-.23a4.46,4.46,0,0,0,2.48-4,4.5,4.5,0,0,0-9,0,4.58,4.58,0,0,0,2.48,4l-.68.23a7.5,7.5,0,0,0-4.73,5.77.41.41,0,0,0,.31.45.4.4,0,0,0,.44-.3,6.64,6.64,0,0,1,4.06-5.1l2.32,2.33c.07.07.15.07.3.07s.23-.07.3-.07l2.33-2.33a6.75,6.75,0,0,1,4.05,5.18c0,.15.14.29.37.29h.08a.33.33,0,0,0,.3-.44A7.47,7.47,0,0,0,188.7,104.28ZM182.25,100a3.75,3.75,0,0,1,7.5,0,2.73,2.73,0,0,1-.07.75h-7.36A2.73,2.73,0,0,1,182.25,100Zm.3,1.5h6.9a3.77,3.77,0,0,1-6.9,0Zm3.45,5.1-1.8-1.8a2.56,2.56,0,0,1,.75-.15,7.63,7.63,0,0,1,2.93.15Z" style="fill:url(#bl)"/></g><g style="opacity:0.20000000298023224"><path d="M165.7,87.73,165,88a4.46,4.46,0,0,1,2.48,4,4.5,4.5,0,0,1-9,0A4.58,4.58,0,0,1,161,88l-.68-.22A7.51,7.51,0,0,1,155.57,82a.42.42,0,0,1,.31-.45.4.4,0,0,1,.44.3,6.6,6.6,0,0,0,4.06,5.1l2.32-2.32c.07-.08.15-.08.3-.08s.23.08.3.08l2.33,2.32a6.73,6.73,0,0,0,4.05-5.17.33.33,0,0,1,.37-.3h.08a.33.33,0,0,1,.3.45A7.47,7.47,0,0,1,165.7,87.73ZM159.25,92a3.75,3.75,0,0,0,7.5,0,2.76,2.76,0,0,0-.07-.75h-7.36A2.76,2.76,0,0,0,159.25,92Zm.3-1.5h6.9a3.77,3.77,0,0,0-6.9,0ZM163,85.4l-1.8,1.8a2.56,2.56,0,0,0,.75.15,7.63,7.63,0,0,0,2.93-.15Z" style="fill:url(#bm)"/></g><g style="opacity:0.20000000298023224"><path d="M181.7,87.73,181,88a4.46,4.46,0,0,1,2.48,4,4.5,4.5,0,0,1-9,0A4.58,4.58,0,0,1,177,88l-.68-.22A7.51,7.51,0,0,1,171.57,82a.42.42,0,0,1,.31-.45.4.4,0,0,1,.44.3,6.6,6.6,0,0,0,4.06,5.1l2.32-2.32c.07-.08.15-.08.3-.08s.23.08.3.08l2.33,2.32a6.73,6.73,0,0,0,4.05-5.17.33.33,0,0,1,.37-.3h.08a.33.33,0,0,1,.3.45A7.47,7.47,0,0,1,181.7,87.73ZM175.25,92a3.75,3.75,0,0,0,7.5,0,2.76,2.76,0,0,0-.07-.75h-7.36A2.76,2.76,0,0,0,175.25,92Zm.3-1.5h6.9a3.77,3.77,0,0,0-6.9,0ZM179,85.4l-1.8,1.8a2.56,2.56,0,0,0,.75.15,7.63,7.63,0,0,0,2.93-.15Z" style="fill:url(#bn)"/></g><path d="M20.31,38,16,28.13h1.57l3.7,8.65h-.51l3.71-8.65h1.5L21.59,38ZM27,38V30.94h1.41V38Zm-.11-8.53V28h1.63v1.47ZM30.41,38V32.69c0-.29,0-.57,0-.86s0-.6-.06-.89h1.37l.16,1.82h-.23a2.87,2.87,0,0,1,.48-1.09,2.08,2.08,0,0,1,.81-.64,2.59,2.59,0,0,1,1-.21,2,2,0,0,1,.38,0,1.54,1.54,0,0,1,.31,0v1.26a1.64,1.64,0,0,0-.42-.11,2.58,2.58,0,0,0-.42,0,2,2,0,0,0-1.05.28,1.73,1.73,0,0,0-.66.73,2.25,2.25,0,0,0-.23,1v4Zm8.43.13a2.29,2.29,0,0,1-1.74-.62,2.68,2.68,0,0,1-.59-1.88V32H35.14v-1.1h1.37V29.08l1.42-.38v2.24h2V32h-2v3.47a1.75,1.75,0,0,0,.28,1.12A1,1,0,0,0,39,37a2.07,2.07,0,0,0,.46,0l.38-.12v1.14a2,2,0,0,1-.49.13A2.53,2.53,0,0,1,38.84,38.13Zm4.85,0a2.5,2.5,0,0,1-1.92-.69,3.13,3.13,0,0,1-.63-2.14V30.94h1.41v4.33a1.9,1.9,0,0,0,.37,1.3A1.37,1.37,0,0,0,44,37a1.74,1.74,0,0,0,1.36-.56A2.07,2.07,0,0,0,45.9,35v-4h1.41V38H45.94V36.49h.18a2.45,2.45,0,0,1-.94,1.22A2.63,2.63,0,0,1,43.69,38.13Zm8.4,0a3,3,0,0,1-1.64-.44,2.87,2.87,0,0,1-1.09-1.26,5.24,5.24,0,0,1,0-3.92,2.87,2.87,0,0,1,1.09-1.24,2.94,2.94,0,0,1,1.64-.45,2.82,2.82,0,0,1,1.61.46,2.23,2.23,0,0,1,.91,1.26h-.16l.14-1.6H56l-.08.87c0,.28,0,.56,0,.83V38H54.44V36.43h.15a2.22,2.22,0,0,1-.92,1.25A2.84,2.84,0,0,1,52.09,38.13ZM52.44,37a1.8,1.8,0,0,0,1.45-.64,2.86,2.86,0,0,0,.56-1.91,2.79,2.79,0,0,0-.56-1.89,1.8,1.8,0,0,0-1.45-.64,1.88,1.88,0,0,0-1.49.64,2.84,2.84,0,0,0-.54,1.89A2.92,2.92,0,0,0,51,36.38,1.85,1.85,0,0,0,52.44,37Zm5.47,1V27.7h1.42V38Zm9.93.13a3,3,0,0,1-1.64-.44,2.87,2.87,0,0,1-1.09-1.26,5.24,5.24,0,0,1,0-3.92,2.87,2.87,0,0,1,1.09-1.24,2.94,2.94,0,0,1,1.64-.45,2.82,2.82,0,0,1,1.61.46,2.23,2.23,0,0,1,.91,1.26H70.2l.14-1.6h1.37l-.08.87c0,.28,0,.56,0,.83V38H70.19V36.43h.15a2.22,2.22,0,0,1-.92,1.25A2.84,2.84,0,0,1,67.84,38.13ZM68.19,37a1.8,1.8,0,0,0,1.45-.64,2.86,2.86,0,0,0,.56-1.91,2.79,2.79,0,0,0-.56-1.89,1.8,1.8,0,0,0-1.45-.64,1.87,1.87,0,0,0-1.49.64,2.84,2.84,0,0,0-.54,1.89,2.92,2.92,0,0,0,.54,1.91A1.85,1.85,0,0,0,68.19,37Zm7.9,1.11a5.63,5.63,0,0,1-1.63-.23,3.57,3.57,0,0,1-1.23-.63l.43-1a3.77,3.77,0,0,0,1.15.58,4.34,4.34,0,0,0,1.29.2,2,2,0,0,0,1.16-.27.86.86,0,0,0,.39-.75.75.75,0,0,0-.25-.59,1.67,1.67,0,0,0-.8-.34l-1.34-.26a2.68,2.68,0,0,1-1.36-.67A1.68,1.68,0,0,1,73.44,33a1.88,1.88,0,0,1,.34-1.12,2.24,2.24,0,0,1,1-.77,3.67,3.67,0,0,1,1.49-.28,4.56,4.56,0,0,1,1.46.22,3,3,0,0,1,1.12.65l-.45.93a3.17,3.17,0,0,0-1-.56,3,3,0,0,0-1.1-.21,1.88,1.88,0,0,0-1.17.3.92.92,0,0,0-.37.77.84.84,0,0,0,.22.6,1.65,1.65,0,0,0,.74.35l1.35.27a2.85,2.85,0,0,1,1.42.64A1.57,1.57,0,0,1,79,36a1.88,1.88,0,0,1-.36,1.15,2.19,2.19,0,0,1-1,.74A4.08,4.08,0,0,1,76.09,38.13Zm7,0a5.51,5.51,0,0,1-1.62-.23,3.53,3.53,0,0,1-1.24-.63l.44-1a3.66,3.66,0,0,0,1.15.58,4.28,4.28,0,0,0,1.28.2,2.09,2.09,0,0,0,1.17-.27.86.86,0,0,0,.39-.75.78.78,0,0,0-.25-.59,1.71,1.71,0,0,0-.8-.34l-1.35-.26a2.64,2.64,0,0,1-1.35-.67A1.69,1.69,0,0,1,80.41,33a2,2,0,0,1,.34-1.12,2.24,2.24,0,0,1,1-.77,3.68,3.68,0,0,1,1.5-.28,4.5,4.5,0,0,1,1.45.22,3,3,0,0,1,1.12.65l-.44.93a3.29,3.29,0,0,0-1-.56,3.12,3.12,0,0,0-1.11-.21,1.85,1.85,0,0,0-1.16.3.93.93,0,0,0-.38.77.84.84,0,0,0,.22.6,1.64,1.64,0,0,0,.75.35l1.34.27a2.93,2.93,0,0,1,1.43.64,1.6,1.6,0,0,1,.47,1.2,1.88,1.88,0,0,1-.36,1.15,2.14,2.14,0,0,1-1,.74A4.08,4.08,0,0,1,83.06,38.13ZM87.61,38V30.94H89V38Zm-.11-8.53V28h1.64v1.47Zm6,8.66a5.63,5.63,0,0,1-1.63-.23,3.57,3.57,0,0,1-1.23-.63l.44-1a3.61,3.61,0,0,0,1.14.58,4.34,4.34,0,0,0,1.29.2,2,2,0,0,0,1.16-.27.85.85,0,0,0,.4-.75.76.76,0,0,0-.26-.59,1.62,1.62,0,0,0-.79-.34l-1.35-.26a2.72,2.72,0,0,1-1.36-.67A1.73,1.73,0,0,1,90.87,33a1.88,1.88,0,0,1,.34-1.12,2.24,2.24,0,0,1,1-.77,3.68,3.68,0,0,1,1.5-.28,4.54,4.54,0,0,1,1.45.22,3,3,0,0,1,1.12.65l-.45.93a3.06,3.06,0,0,0-1-.56,3,3,0,0,0-1.1-.21,1.85,1.85,0,0,0-1.16.3.9.9,0,0,0-.38.77.84.84,0,0,0,.22.6,1.65,1.65,0,0,0,.74.35l1.35.27a2.93,2.93,0,0,1,1.43.64A1.6,1.6,0,0,1,96.4,36,1.88,1.88,0,0,1,96,37.13a2.14,2.14,0,0,1-1,.74A4.08,4.08,0,0,1,93.52,38.13Zm7.23,0A2.29,2.29,0,0,1,99,37.51a2.68,2.68,0,0,1-.59-1.88V32H97.05v-1.1h1.37V29.08l1.41-.38v2.24h2V32h-2v3.47a1.82,1.82,0,0,0,.28,1.12,1,1,0,0,0,.82.33,2.13,2.13,0,0,0,.46,0l.38-.12v1.14a2.19,2.19,0,0,1-.49.13A2.61,2.61,0,0,1,100.75,38.13Zm5,0a3,3,0,0,1-1.64-.44,2.87,2.87,0,0,1-1.09-1.26,5.24,5.24,0,0,1,0-3.92,2.87,2.87,0,0,1,1.09-1.24,3,3,0,0,1,1.64-.45,2.82,2.82,0,0,1,1.61.46,2.19,2.19,0,0,1,.91,1.26h-.16l.14-1.6h1.38l-.09.87c0,.28,0,.56,0,.83V38h-1.42V36.43h.15a2.17,2.17,0,0,1-.92,1.25A2.81,2.81,0,0,1,105.79,38.13Zm.35-1.11a1.82,1.82,0,0,0,1.46-.64,2.86,2.86,0,0,0,.55-1.91,2.79,2.79,0,0,0-.55-1.89,1.82,1.82,0,0,0-1.46-.64,1.88,1.88,0,0,0-1.49.64,2.84,2.84,0,0,0-.54,1.89,2.92,2.92,0,0,0,.54,1.91A1.85,1.85,0,0,0,106.14,37Zm5.48,1V32.64c0-.27,0-.55,0-.83s0-.58-.07-.87h1.37l.12,1.49h-.16a2.38,2.38,0,0,1,1-1.19,2.88,2.88,0,0,1,1.55-.42,2.46,2.46,0,0,1,1.88.68,3,3,0,0,1,.64,2.13V38h-1.41V33.72a2,2,0,0,0-.38-1.35A1.39,1.39,0,0,0,115,32a1.9,1.9,0,0,0-1.43.56A2.07,2.07,0,0,0,113,34v4Zm11,.13a2.28,2.28,0,0,1-1.73-.62,2.63,2.63,0,0,1-.59-1.88V32H119v-1.1h1.38V29.08l1.41-.38v2.24h2V32h-2v3.47a1.75,1.75,0,0,0,.28,1.12,1,1,0,0,0,.81.33,2.23,2.23,0,0,0,.47,0l.37-.12v1.14a2,2,0,0,1-.49.13A2.46,2.46,0,0,1,122.66,38.13Z" style="fill:#fff"/><path d="M21,61.11a4.76,4.76,0,0,1-2.34-.52,3.35,3.35,0,0,1-1.43-1.5,5.32,5.32,0,0,1-.47-2.31,5.06,5.06,0,0,1,.5-2.32A3.59,3.59,0,0,1,18.66,53a4.64,4.64,0,0,1,2.27-.53,4.38,4.38,0,0,1,1.61.27,3.69,3.69,0,0,1,1.22.76l-.42.89a4.76,4.76,0,0,0-.74-.54,2.91,2.91,0,0,0-.76-.29,4,4,0,0,0-.91-.09,2.87,2.87,0,0,0-2.25.87,4.42,4.42,0,0,0,0,5,3,3,0,0,0,2.35.85,5.8,5.8,0,0,0,1.11-.1,5.87,5.87,0,0,0,1-.32l-.23.57V57.4H20.79v-.86h3.08v4a5.45,5.45,0,0,1-1.33.44A7.79,7.79,0,0,1,21,61.11Zm7.5,0a3.12,3.12,0,0,1-2.28-.83A3.08,3.08,0,0,1,25.35,58a3.6,3.6,0,0,1,.36-1.66,2.75,2.75,0,0,1,1-1.09,2.88,2.88,0,0,1,1.51-.39,2.61,2.61,0,0,1,1.41.36,2.22,2.22,0,0,1,.87,1,3.65,3.65,0,0,1,.3,1.54v.36H26.2v-.65h3.88l-.2.16a2.27,2.27,0,0,0-.42-1.46,1.48,1.48,0,0,0-1.22-.51,1.61,1.61,0,0,0-1.35.61,2.56,2.56,0,0,0-.48,1.64V58A2.33,2.33,0,0,0,27,59.68a2,2,0,0,0,1.52.56,3.29,3.29,0,0,0,1-.15,3,3,0,0,0,.9-.52l.36.76a2.66,2.66,0,0,1-1,.57A3.79,3.79,0,0,1,28.46,61.11Zm6,0a1.85,1.85,0,0,1-1.44-.52A2.28,2.28,0,0,1,32.58,59V55.8H31.4V55h1.18V53.34l1.09-.3V55h1.7v.84h-1.7v3.11a1.61,1.61,0,0,0,.24,1,.92.92,0,0,0,.72.29,1.61,1.61,0,0,0,.73-.15V61a1.61,1.61,0,0,1-.42.11A2.28,2.28,0,0,1,34.5,61.11Zm7.93,0a3.12,3.12,0,0,1-2.28-.83A3.08,3.08,0,0,1,39.32,58a3.6,3.6,0,0,1,.36-1.66,2.75,2.75,0,0,1,1-1.09,2.88,2.88,0,0,1,1.51-.39,2.61,2.61,0,0,1,1.41.36,2.22,2.22,0,0,1,.87,1,3.65,3.65,0,0,1,.3,1.54v.36H40.17v-.65h3.88l-.2.16a2.27,2.27,0,0,0-.42-1.46,1.48,1.48,0,0,0-1.22-.51,1.61,1.61,0,0,0-1.35.61,2.56,2.56,0,0,0-.48,1.64V58a2.33,2.33,0,0,0,.54,1.67,2,2,0,0,0,1.52.56,3.29,3.29,0,0,0,1-.15,3,3,0,0,0,.9-.52l.36.76a2.66,2.66,0,0,1-1,.57A3.79,3.79,0,0,1,42.43,61.11Zm6.09,0a2.67,2.67,0,0,1-1.39-.37,2.47,2.47,0,0,1-.93-1.08A3.85,3.85,0,0,1,45.86,58a3.71,3.71,0,0,1,.34-1.67,2.47,2.47,0,0,1,.93-1.08,2.58,2.58,0,0,1,1.39-.37,2.42,2.42,0,0,1,1.4.4,1.88,1.88,0,0,1,.79,1.1h-.15L50.7,55h1l-.07.72c0,.24,0,.48,0,.71V61h-1.1V59.62h.14a1.91,1.91,0,0,1-.8,1.09A2.36,2.36,0,0,1,48.52,61.11Zm.26-.87a1.62,1.62,0,0,0,1.3-.57,2.54,2.54,0,0,0,.5-1.69,2.46,2.46,0,0,0-.5-1.68,1.62,1.62,0,0,0-1.3-.57,1.66,1.66,0,0,0-1.32.57A2.46,2.46,0,0,0,47,58a2.54,2.54,0,0,0,.5,1.69A1.63,1.63,0,0,0,48.78,60.24Zm6.75.87a5,5,0,0,1-1.37-.19,2.75,2.75,0,0,1-1-.56l.34-.75a3.52,3.52,0,0,0,1,.51,3.42,3.42,0,0,0,1.1.17,1.72,1.72,0,0,0,1-.25.78.78,0,0,0,.36-.67.65.65,0,0,0-.23-.54,1.42,1.42,0,0,0-.72-.3l-1.14-.23a2.31,2.31,0,0,1-1.16-.58,1.44,1.44,0,0,1-.38-1,1.62,1.62,0,0,1,.28-.94,1.89,1.89,0,0,1,.82-.64,3.08,3.08,0,0,1,1.26-.24,3.67,3.67,0,0,1,1.22.19,2.35,2.35,0,0,1,1,.56l-.36.73a2.73,2.73,0,0,0-.84-.49,2.48,2.48,0,0,0-.93-.18,1.59,1.59,0,0,0-1,.28.84.84,0,0,0-.33.69.77.77,0,0,0,.2.54,1.45,1.45,0,0,0,.66.32l1.14.22a2.48,2.48,0,0,1,1.21.56,1.29,1.29,0,0,1,.41,1,1.54,1.54,0,0,1-.31,1,1.83,1.83,0,0,1-.85.62A3.31,3.31,0,0,1,55.53,61.11Zm3.6,2.61-.25-.88a4.54,4.54,0,0,0,.93-.32,1.93,1.93,0,0,0,.63-.44,2.62,2.62,0,0,0,.44-.7l.3-.72,0,.46L58.53,55h1.18l2.1,5.18h-.32L63.59,55h1.13L62,61.47a4.69,4.69,0,0,1-.55,1,2.83,2.83,0,0,1-.64.65,2.78,2.78,0,0,1-.74.4A5.52,5.52,0,0,1,59.13,63.72Zm12.08-2.61a2.65,2.65,0,0,1-1.39-.37,2.56,2.56,0,0,1-.94-1.08A4,4,0,0,1,68.55,58a3.86,3.86,0,0,1,.33-1.67,2.45,2.45,0,0,1,2.33-1.45,2.37,2.37,0,0,1,1.39.4,1.9,1.9,0,0,1,.8,1.1h-.15l.13-1.4h1.06l-.07.72c0,.24,0,.48,0,.71V61H73.25V59.62h.13a1.85,1.85,0,0,1-.79,1.09A2.36,2.36,0,0,1,71.21,61.11Zm.25-.87a1.64,1.64,0,0,0,1.31-.57A2.54,2.54,0,0,0,73.26,58a2.46,2.46,0,0,0-.49-1.68,1.64,1.64,0,0,0-1.31-.57,1.69,1.69,0,0,0-1.32.57A2.51,2.51,0,0,0,69.65,58a2.6,2.6,0,0,0,.49,1.69A1.66,1.66,0,0,0,71.46,60.24Zm7.31.87a3.21,3.21,0,0,1-1.56-.37,2.69,2.69,0,0,1-1-1.1,3.74,3.74,0,0,1-.36-1.7,3.42,3.42,0,0,1,.38-1.66,2.48,2.48,0,0,1,1-1.05,3.07,3.07,0,0,1,1.55-.37,3.19,3.19,0,0,1,1.14.2,2.42,2.42,0,0,1,.9.56l-.38.77a2.15,2.15,0,0,0-.76-.49,2.28,2.28,0,0,0-.83-.17,1.73,1.73,0,0,0-1.39.58A2.35,2.35,0,0,0,76.94,58a2.48,2.48,0,0,0,.51,1.68,1.73,1.73,0,0,0,1.39.59,2.2,2.2,0,0,0,.81-.16,2.18,2.18,0,0,0,.78-.49l.38.76a2.44,2.44,0,0,1-.93.59A3.6,3.6,0,0,1,78.77,61.11Zm5.84,0a3.21,3.21,0,0,1-1.56-.37,2.67,2.67,0,0,1-1-1.1,3.74,3.74,0,0,1-.36-1.7A3.54,3.54,0,0,1,82,56.28a2.57,2.57,0,0,1,1-1.05,3.05,3.05,0,0,1,1.54-.37,3.11,3.11,0,0,1,1.14.2,2.27,2.27,0,0,1,.9.56l-.37.77a2.19,2.19,0,0,0-.77-.49,2.23,2.23,0,0,0-.82-.17,1.75,1.75,0,0,0-1.4.58,2.4,2.4,0,0,0-.5,1.64,2.53,2.53,0,0,0,.5,1.68,1.75,1.75,0,0,0,1.4.59,2.2,2.2,0,0,0,.81-.16,2.18,2.18,0,0,0,.78-.49l.37.76a2.4,2.4,0,0,1-.92.59A3.61,3.61,0,0,1,84.61,61.11Zm6,0a3.12,3.12,0,0,1-2.28-.83A3.08,3.08,0,0,1,87.51,58a3.6,3.6,0,0,1,.36-1.66,2.75,2.75,0,0,1,1-1.09,2.85,2.85,0,0,1,1.51-.39,2.64,2.64,0,0,1,1.41.36,2.22,2.22,0,0,1,.87,1,3.65,3.65,0,0,1,.3,1.54v.36H88.36v-.65h3.88l-.21.16a2.27,2.27,0,0,0-.42-1.46,1.45,1.45,0,0,0-1.21-.51,1.63,1.63,0,0,0-1.36.61,2.56,2.56,0,0,0-.47,1.64V58a2.33,2.33,0,0,0,.54,1.67,2,2,0,0,0,1.52.56,3.33,3.33,0,0,0,1-.15,3,3,0,0,0,.9-.52l.36.76a2.66,2.66,0,0,1-1,.57A3.79,3.79,0,0,1,90.62,61.11Zm5.83,0a5,5,0,0,1-1.37-.19,2.75,2.75,0,0,1-1-.56l.35-.75a3.35,3.35,0,0,0,2.07.68,1.72,1.72,0,0,0,1-.25.78.78,0,0,0,.36-.67.67.67,0,0,0-.22-.54,1.51,1.51,0,0,0-.72-.3l-1.14-.23a2.34,2.34,0,0,1-1.17-.58,1.48,1.48,0,0,1-.38-1,1.56,1.56,0,0,1,.29-.94,1.8,1.8,0,0,1,.81-.64,3.08,3.08,0,0,1,1.26-.24,3.78,3.78,0,0,1,1.23.19,2.31,2.31,0,0,1,.94.56l-.36.73a2.51,2.51,0,0,0-.84-.49,2.48,2.48,0,0,0-.93-.18,1.55,1.55,0,0,0-1,.28.82.82,0,0,0-.34.69.77.77,0,0,0,.2.54,1.45,1.45,0,0,0,.66.32l1.14.22a2.57,2.57,0,0,1,1.22.56,1.32,1.32,0,0,1,.4,1,1.54,1.54,0,0,1-.31,1,1.83,1.83,0,0,1-.85.62A3.28,3.28,0,0,1,96.45,61.11Zm6,0a5.09,5.09,0,0,1-1.37-.19,2.91,2.91,0,0,1-1-.56l.35-.75a3.6,3.6,0,0,0,1,.51,3.48,3.48,0,0,0,1.11.17,1.74,1.74,0,0,0,1-.25.78.78,0,0,0,.36-.67.68.68,0,0,0-.23-.54,1.42,1.42,0,0,0-.72-.3l-1.14-.23a2.31,2.31,0,0,1-1.16-.58,1.44,1.44,0,0,1-.39-1,1.63,1.63,0,0,1,.29-.94,1.78,1.78,0,0,1,.82-.64,3.08,3.08,0,0,1,1.26-.24,3.71,3.71,0,0,1,1.22.19,2.35,2.35,0,0,1,1,.56l-.36.73a2.73,2.73,0,0,0-.84-.49,2.57,2.57,0,0,0-.94-.18,1.58,1.58,0,0,0-1,.28.85.85,0,0,0-.34.69.73.73,0,0,0,.21.54,1.45,1.45,0,0,0,.66.32l1.14.22a2.53,2.53,0,0,1,1.21.56,1.33,1.33,0,0,1,.41,1,1.54,1.54,0,0,1-.31,1,1.86,1.86,0,0,1-.86.62A3.28,3.28,0,0,1,102.41,61.11Zm9.35,0a1.88,1.88,0,0,1-1.44-.52,2.28,2.28,0,0,1-.48-1.58V55.8h-1.18V55h1.18V53.34l1.09-.3V55h1.7v.84h-1.7v3.11a1.61,1.61,0,0,0,.24,1,.92.92,0,0,0,.72.29,2.27,2.27,0,0,0,.41,0,2,2,0,0,0,.32-.11V61a1.61,1.61,0,0,1-.42.11A2.28,2.28,0,0,1,111.76,61.11Zm4.5,0a3.09,3.09,0,0,1-1.53-.37,2.7,2.7,0,0,1-1-1.08,3.71,3.71,0,0,1-.36-1.68,3.57,3.57,0,0,1,.36-1.66,2.58,2.58,0,0,1,1-1.08,3.29,3.29,0,0,1,3.07,0,2.46,2.46,0,0,1,1,1.08,3.57,3.57,0,0,1,.36,1.66,3.71,3.71,0,0,1-.36,1.68,2.57,2.57,0,0,1-1,1.08A3.11,3.11,0,0,1,116.26,61.11Zm0-.87a1.63,1.63,0,0,0,1.31-.57,2.54,2.54,0,0,0,.5-1.69,2.46,2.46,0,0,0-.5-1.68,1.63,1.63,0,0,0-1.31-.57,1.66,1.66,0,0,0-1.32.57,2.57,2.57,0,0,0-.48,1.68,2.66,2.66,0,0,0,.48,1.69A1.66,1.66,0,0,0,116.26,60.24Zm10.13.87a3.21,3.21,0,0,1-1.56-.37,2.67,2.67,0,0,1-1-1.1,3.74,3.74,0,0,1-.36-1.7,3.42,3.42,0,0,1,.37-1.66,2.54,2.54,0,0,1,1-1.05,3.09,3.09,0,0,1,1.55-.37,3.19,3.19,0,0,1,1.14.2,2.27,2.27,0,0,1,.9.56l-.37.77a2.19,2.19,0,0,0-.77-.49,2.24,2.24,0,0,0-.83-.17,1.74,1.74,0,0,0-1.39.58,2.4,2.4,0,0,0-.5,1.64,2.53,2.53,0,0,0,.5,1.68,1.75,1.75,0,0,0,1.39.59,2.21,2.21,0,0,0,.82-.16,2.18,2.18,0,0,0,.78-.49l.37.76a2.47,2.47,0,0,1-.92.59A3.61,3.61,0,0,1,126.39,61.11Zm5.8,0a3.16,3.16,0,0,1-1.54-.37,2.67,2.67,0,0,1-1-1.08,3.71,3.71,0,0,1-.36-1.68,3.57,3.57,0,0,1,.36-1.66,2.55,2.55,0,0,1,1-1.08,3.31,3.31,0,0,1,3.08,0,2.44,2.44,0,0,1,1,1.08,3.57,3.57,0,0,1,.36,1.66,3.71,3.71,0,0,1-.36,1.68,2.54,2.54,0,0,1-1,1.08A3.16,3.16,0,0,1,132.19,61.11Zm0-.87a1.65,1.65,0,0,0,1.31-.57A2.54,2.54,0,0,0,134,58a2.46,2.46,0,0,0-.49-1.68,1.8,1.8,0,0,0-2.63,0,2.51,2.51,0,0,0-.48,1.68,2.6,2.6,0,0,0,.48,1.69A1.66,1.66,0,0,0,132.19,60.24Zm4.37.76V56.39c0-.23,0-.47,0-.71s0-.48-.08-.72h1.06l.12,1.3h-.14a2,2,0,0,1,.85-1,2.46,2.46,0,0,1,1.34-.36,2.09,2.09,0,0,1,1.61.58,2.58,2.58,0,0,1,.54,1.8V61h-1.09V57.3a1.72,1.72,0,0,0-.33-1.18,1.25,1.25,0,0,0-1-.38,1.72,1.72,0,0,0-1.3.5,1.84,1.84,0,0,0-.47,1.33V61Zm8.78,0-2.58-6h1.18l2.1,5.19h-.34L147.84,55H149l-2.6,6Zm7.29.11a3.12,3.12,0,0,1-2.28-.83,3.08,3.08,0,0,1-.83-2.28,3.73,3.73,0,0,1,.36-1.66,2.75,2.75,0,0,1,1-1.09,2.91,2.91,0,0,1,1.52-.39,2.58,2.58,0,0,1,1.4.36,2.18,2.18,0,0,1,.88,1,3.65,3.65,0,0,1,.3,1.54v.36h-4.62v-.65h3.87l-.2.16a2.27,2.27,0,0,0-.42-1.46,1.46,1.46,0,0,0-1.21-.51,1.62,1.62,0,0,0-1.36.61,2.56,2.56,0,0,0-.48,1.64V58a2.33,2.33,0,0,0,.54,1.67,2,2,0,0,0,1.53.56,3.22,3.22,0,0,0,1-.15,3,3,0,0,0,.9-.52l.36.76a2.66,2.66,0,0,1-1,.57A3.79,3.79,0,0,1,152.63,61.11Zm3.78-.11V56.44c0-.24,0-.48,0-.73s0-.51-.06-.75h1l.14,1.52h-.18a2.17,2.17,0,0,1,.4-.91,1.75,1.75,0,0,1,.71-.54,2.19,2.19,0,0,1,.87-.18h.32a1.1,1.1,0,0,1,.26.06l0,1a.88.88,0,0,0-.34-.08,1.73,1.73,0,0,0-.36,0,1.69,1.69,0,0,0-.91.24,1.53,1.53,0,0,0-.57.64,1.9,1.9,0,0,0-.2.85V61Zm6.44.11a5,5,0,0,1-1.37-.19,2.75,2.75,0,0,1-1-.56l.34-.75a3.52,3.52,0,0,0,1,.51,3.42,3.42,0,0,0,1.1.17,1.72,1.72,0,0,0,1-.25.78.78,0,0,0,.36-.67.67.67,0,0,0-.22-.54,1.51,1.51,0,0,0-.72-.3l-1.14-.23a2.3,2.3,0,0,1-1.17-.58,1.48,1.48,0,0,1-.38-1,1.62,1.62,0,0,1,.28-.94,1.89,1.89,0,0,1,.82-.64,3.08,3.08,0,0,1,1.26-.24,3.67,3.67,0,0,1,1.22.19,2.35,2.35,0,0,1,.95.56l-.36.73a2.73,2.73,0,0,0-.84-.49,2.48,2.48,0,0,0-.93-.18,1.59,1.59,0,0,0-1,.28.84.84,0,0,0-.33.69.77.77,0,0,0,.2.54,1.45,1.45,0,0,0,.66.32l1.14.22a2.57,2.57,0,0,1,1.22.56,1.32,1.32,0,0,1,.4,1,1.54,1.54,0,0,1-.31,1,1.83,1.83,0,0,1-.85.62A3.28,3.28,0,0,1,162.85,61.11Zm6.67,0a3.12,3.12,0,0,1-2.28-.83,3.08,3.08,0,0,1-.83-2.28,3.6,3.6,0,0,1,.36-1.66,2.75,2.75,0,0,1,1-1.09,2.88,2.88,0,0,1,1.51-.39,2.64,2.64,0,0,1,1.41.36,2.22,2.22,0,0,1,.87,1,3.65,3.65,0,0,1,.3,1.54v.36h-4.62v-.65h3.88l-.21.16a2.27,2.27,0,0,0-.42-1.46,1.45,1.45,0,0,0-1.21-.51,1.61,1.61,0,0,0-1.35.61,2.56,2.56,0,0,0-.48,1.64V58a2.33,2.33,0,0,0,.54,1.67,2,2,0,0,0,1.52.56,3.29,3.29,0,0,0,1-.15,3,3,0,0,0,.9-.52l.36.76a2.66,2.66,0,0,1-1,.57A3.79,3.79,0,0,1,169.52,61.11Zm8.59-.11-2.26-6H177l1.83,5.18h-.32L180.38,55h.88l1.86,5.18h-.3L184.66,55h1.09l-2.27,6h-1l-1.92-5.26h.53L179.15,61Zm8.83,0V55H188v6Zm-.1-7.36V52.47h1.3v1.17Zm5.27,7.47a1.88,1.88,0,0,1-1.44-.52,2.28,2.28,0,0,1-.48-1.58V55.8H189V55h1.17V53.34l1.1-.3V55H193v.84h-1.7v3.11a1.69,1.69,0,0,0,.23,1,.92.92,0,0,0,.72.29,2.27,2.27,0,0,0,.41,0,2.55,2.55,0,0,0,.33-.11V61a1.61,1.61,0,0,1-.42.11A2.38,2.38,0,0,1,192.11,61.11Zm2-.11V52.17h1.1v4.1h-.16a2.07,2.07,0,0,1,.85-1.05,2.58,2.58,0,0,1,1.36-.36,2,2,0,0,1,1.61.58,2.63,2.63,0,0,1,.52,1.78V61h-1.09V57.28a1.73,1.73,0,0,0-.31-1.16,1.26,1.26,0,0,0-1-.38,1.73,1.73,0,0,0-1.28.5,1.77,1.77,0,0,0-.48,1.3V61Zm-175,16.11a1.88,1.88,0,0,1-1.44-.52A2.28,2.28,0,0,1,17.25,75V71.8H16.07V71h1.18V69.34l1.09-.3V71H20v.84h-1.7v3.11a1.61,1.61,0,0,0,.24,1,.92.92,0,0,0,.72.29,2.27,2.27,0,0,0,.41,0,2,2,0,0,0,.32-.11V77a1.61,1.61,0,0,1-.42.11A2.28,2.28,0,0,1,19.17,77.11Zm2-.11V68.17h1.09v4.1h-.15a2,2,0,0,1,.85-1,2.52,2.52,0,0,1,1.35-.36,2,2,0,0,1,1.61.58,2.63,2.63,0,0,1,.53,1.78V77H25.38V73.28a1.79,1.79,0,0,0-.31-1.16,1.26,1.26,0,0,0-1-.38,1.75,1.75,0,0,0-1.29.5,1.77,1.77,0,0,0-.48,1.3V77Zm9.81.11a3.12,3.12,0,0,1-2.28-.83A3.08,3.08,0,0,1,27.9,74a3.6,3.6,0,0,1,.36-1.66,2.62,2.62,0,0,1,1-1.09,2.85,2.85,0,0,1,1.51-.39,2.58,2.58,0,0,1,1.4.36,2.18,2.18,0,0,1,.88,1,3.65,3.65,0,0,1,.3,1.54v.36H28.75v-.65h3.87l-.2.16A2.27,2.27,0,0,0,32,72.16a1.46,1.46,0,0,0-1.21-.51,1.62,1.62,0,0,0-1.36.61A2.56,2.56,0,0,0,29,73.9V74a2.33,2.33,0,0,0,.54,1.67,2,2,0,0,0,1.53.56,3.22,3.22,0,0,0,1-.15,2.74,2.74,0,0,0,.9-.52l.36.76a2.66,2.66,0,0,1-1,.57A3.79,3.79,0,0,1,31,77.11Zm9.26,0a2.65,2.65,0,0,1-1.39-.37,2.56,2.56,0,0,1-.94-1.08A4,4,0,0,1,37.6,74a3.86,3.86,0,0,1,.33-1.67,2.45,2.45,0,0,1,2.33-1.45,2.37,2.37,0,0,1,1.39.4,1.9,1.9,0,0,1,.8,1.1H42.3l.13-1.4h1.06l-.07.72c0,.24,0,.48,0,.71V77H42.3V75.62h.13a1.85,1.85,0,0,1-.79,1.09A2.36,2.36,0,0,1,40.26,77.11Zm.25-.87a1.64,1.64,0,0,0,1.31-.57A2.54,2.54,0,0,0,42.31,74a2.46,2.46,0,0,0-.49-1.68,1.64,1.64,0,0,0-1.31-.57,1.69,1.69,0,0,0-1.32.57A2.51,2.51,0,0,0,38.7,74a2.6,2.6,0,0,0,.49,1.69A1.66,1.66,0,0,0,40.51,76.24Zm6.75.87a5,5,0,0,1-1.36-.19,2.87,2.87,0,0,1-1-.56l.35-.75a3.6,3.6,0,0,0,1,.51,3.48,3.48,0,0,0,1.11.17,1.74,1.74,0,0,0,1-.25.78.78,0,0,0,.36-.67.68.68,0,0,0-.23-.54,1.42,1.42,0,0,0-.72-.3l-1.14-.23a2.31,2.31,0,0,1-1.16-.58,1.44,1.44,0,0,1-.39-1,1.63,1.63,0,0,1,.29-.94,1.83,1.83,0,0,1,.82-.64,3.08,3.08,0,0,1,1.26-.24,3.67,3.67,0,0,1,1.22.19,2.35,2.35,0,0,1,.95.56l-.36.73a2.73,2.73,0,0,0-.84-.49,2.53,2.53,0,0,0-.94-.18,1.58,1.58,0,0,0-1,.28.84.84,0,0,0-.33.69.72.72,0,0,0,.2.54,1.45,1.45,0,0,0,.66.32l1.14.22a2.48,2.48,0,0,1,1.21.56,1.33,1.33,0,0,1,.41,1,1.54,1.54,0,0,1-.31,1,1.89,1.89,0,0,1-.85.62A3.33,3.33,0,0,1,47.26,77.11Zm6,0a5,5,0,0,1-1.37-.19,2.83,2.83,0,0,1-1-.56l.35-.75a3.35,3.35,0,0,0,2.07.68,1.78,1.78,0,0,0,1-.25.78.78,0,0,0,.36-.67.68.68,0,0,0-.23-.54,1.42,1.42,0,0,0-.72-.3l-1.14-.23a2.39,2.39,0,0,1-1.17-.58,1.48,1.48,0,0,1-.38-1,1.63,1.63,0,0,1,.29-.94,1.8,1.8,0,0,1,.81-.64,3.08,3.08,0,0,1,1.26-.24,3.78,3.78,0,0,1,1.23.19,2.42,2.42,0,0,1,.95.56l-.36.73a2.73,2.73,0,0,0-.84-.49,2.57,2.57,0,0,0-.94-.18,1.56,1.56,0,0,0-1,.28.82.82,0,0,0-.34.69.73.73,0,0,0,.21.54,1.35,1.35,0,0,0,.66.32l1.14.22a2.53,2.53,0,0,1,1.21.56,1.33,1.33,0,0,1,.41,1,1.55,1.55,0,0,1-.32,1,1.83,1.83,0,0,1-.85.62A3.28,3.28,0,0,1,53.23,77.11ZM57.15,77V71h1.1v6Zm-.09-7.36V68.47h1.29v1.17Zm5,7.47a5,5,0,0,1-1.37-.19,2.83,2.83,0,0,1-1-.56l.35-.75a3.6,3.6,0,0,0,1,.51,3.48,3.48,0,0,0,1.11.17,1.74,1.74,0,0,0,1-.25.78.78,0,0,0,.36-.67.68.68,0,0,0-.23-.54,1.42,1.42,0,0,0-.72-.3l-1.14-.23a2.31,2.31,0,0,1-1.16-.58,1.44,1.44,0,0,1-.39-1,1.63,1.63,0,0,1,.29-.94A1.78,1.78,0,0,1,61,71.1a3.08,3.08,0,0,1,1.26-.24,3.71,3.71,0,0,1,1.22.19,2.42,2.42,0,0,1,1,.56l-.36.73a2.73,2.73,0,0,0-.84-.49,2.57,2.57,0,0,0-.94-.18,1.56,1.56,0,0,0-1,.28.85.85,0,0,0-.34.69.73.73,0,0,0,.21.54,1.35,1.35,0,0,0,.66.32l1.14.22a2.53,2.53,0,0,1,1.21.56,1.33,1.33,0,0,1,.41,1,1.6,1.6,0,0,1-.31,1,1.86,1.86,0,0,1-.86.62A3.28,3.28,0,0,1,62.11,77.11Zm6.12,0a1.88,1.88,0,0,1-1.44-.52A2.28,2.28,0,0,1,66.31,75V71.8H65.14V71h1.17V69.34l1.1-.3V71h1.7v.84h-1.7v3.11a1.61,1.61,0,0,0,.24,1,.89.89,0,0,0,.72.29,2.15,2.15,0,0,0,.4,0,2.55,2.55,0,0,0,.33-.11V77a1.61,1.61,0,0,1-.42.11A2.3,2.3,0,0,1,68.23,77.11Zm4.33,0a2.65,2.65,0,0,1-1.39-.37,2.56,2.56,0,0,1-.94-1.08A4,4,0,0,1,69.9,74a3.86,3.86,0,0,1,.33-1.67,2.45,2.45,0,0,1,2.33-1.45,2.37,2.37,0,0,1,1.39.4,1.84,1.84,0,0,1,.79,1.1H74.6l.13-1.4h1.06l-.07.72c0,.24,0,.48,0,.71V77H74.6V75.62h.13a1.89,1.89,0,0,1-.79,1.09A2.36,2.36,0,0,1,72.56,77.11Zm.25-.87a1.64,1.64,0,0,0,1.31-.57A2.54,2.54,0,0,0,74.61,74a2.46,2.46,0,0,0-.49-1.68,1.64,1.64,0,0,0-1.31-.57,1.69,1.69,0,0,0-1.32.57A2.46,2.46,0,0,0,71,74a2.54,2.54,0,0,0,.49,1.69A1.66,1.66,0,0,0,72.81,76.24Zm4.71.76V72.39c0-.23,0-.47,0-.71s0-.48-.07-.72h1l.12,1.3h-.14a2.1,2.1,0,0,1,.85-1,2.46,2.46,0,0,1,1.34-.36,2.07,2.07,0,0,1,1.61.58,2.58,2.58,0,0,1,.54,1.8V77H81.71V73.3a1.77,1.77,0,0,0-.32-1.18,1.28,1.28,0,0,0-1-.38,1.72,1.72,0,0,0-1.3.5,1.84,1.84,0,0,0-.47,1.33V77Zm9.32.11a1.88,1.88,0,0,1-1.44-.52A2.28,2.28,0,0,1,84.92,75V71.8H83.75V71h1.17V69.34L86,69V71h1.7v.84H86v3.11a1.61,1.61,0,0,0,.24,1,.89.89,0,0,0,.72.29,2.15,2.15,0,0,0,.4,0,2.55,2.55,0,0,0,.33-.11V77a1.61,1.61,0,0,1-.42.11A2.3,2.3,0,0,1,86.84,77.11Zm7.73,0A3.09,3.09,0,0,1,93,76.74a2.7,2.7,0,0,1-1-1.08A3.71,3.71,0,0,1,91.67,74,3.57,3.57,0,0,1,92,72.32a2.58,2.58,0,0,1,1-1.08,3.29,3.29,0,0,1,3.07,0,2.46,2.46,0,0,1,1,1.08A3.57,3.57,0,0,1,97.48,74a3.71,3.71,0,0,1-.36,1.68,2.57,2.57,0,0,1-1,1.08A3.11,3.11,0,0,1,94.57,77.11Zm0-.87a1.64,1.64,0,0,0,1.31-.57A2.54,2.54,0,0,0,96.37,74a2.46,2.46,0,0,0-.49-1.68,1.64,1.64,0,0,0-1.31-.57,1.66,1.66,0,0,0-1.32.57A2.51,2.51,0,0,0,92.77,74a2.6,2.6,0,0,0,.48,1.69A1.66,1.66,0,0,0,94.57,76.24Zm4.37.76V72.39c0-.23,0-.47,0-.71s0-.48-.07-.72H99.9l.12,1.3h-.14a2.1,2.1,0,0,1,.85-1,2.46,2.46,0,0,1,1.34-.36,2.07,2.07,0,0,1,1.61.58,2.58,2.58,0,0,1,.54,1.8V77h-1.09V73.3a1.77,1.77,0,0,0-.32-1.18,1.28,1.28,0,0,0-1-.38,1.72,1.72,0,0,0-1.3.5,1.84,1.84,0,0,0-.46,1.33V77Zm10.23,0V68.17h1.1v4.1h-.16a2.07,2.07,0,0,1,.85-1,2.56,2.56,0,0,1,1.36-.36,2,2,0,0,1,1.61.58,2.63,2.63,0,0,1,.52,1.78V77h-1.09V73.28a1.73,1.73,0,0,0-.31-1.16,1.26,1.26,0,0,0-1-.38,1.71,1.71,0,0,0-1.28.5,1.77,1.77,0,0,0-.48,1.3V77Zm9.61.11a3.09,3.09,0,0,1-1.53-.37,2.7,2.7,0,0,1-1-1.08,3.71,3.71,0,0,1-.36-1.68,3.57,3.57,0,0,1,.36-1.66,2.58,2.58,0,0,1,1-1.08,3.29,3.29,0,0,1,3.07,0,2.46,2.46,0,0,1,1,1.08,3.57,3.57,0,0,1,.36,1.66,3.71,3.71,0,0,1-.36,1.68,2.57,2.57,0,0,1-1,1.08A3.11,3.11,0,0,1,118.78,77.11Zm0-.87a1.64,1.64,0,0,0,1.31-.57,2.54,2.54,0,0,0,.49-1.69,2.46,2.46,0,0,0-.49-1.68,1.64,1.64,0,0,0-1.31-.57,1.66,1.66,0,0,0-1.32.57A2.51,2.51,0,0,0,117,74a2.6,2.6,0,0,0,.48,1.69A1.66,1.66,0,0,0,118.78,76.24Zm5.91.76-2.25-6h1.14l1.82,5.18h-.31L127,71h.89l1.86,5.18h-.3L131.24,71h1.1l-2.27,6h-1l-1.92-5.26h.52L125.74,77Zm11.8,2.72-.26-.88a4.65,4.65,0,0,0,.94-.32,1.78,1.78,0,0,0,.62-.44,2.64,2.64,0,0,0,.45-.7l.3-.72,0,.46L135.88,71h1.18l2.1,5.18h-.31L141,71h1.13l-2.78,6.51a4.28,4.28,0,0,1-.55,1,2.79,2.79,0,0,1-.63.65,2.84,2.84,0,0,1-.75.4A5.66,5.66,0,0,1,136.49,79.72Zm9.06-2.61a3.16,3.16,0,0,1-1.54-.37,2.67,2.67,0,0,1-1-1.08,3.71,3.71,0,0,1-.36-1.68,3.57,3.57,0,0,1,.36-1.66,2.55,2.55,0,0,1,1-1.08,3.31,3.31,0,0,1,3.08,0,2.44,2.44,0,0,1,1,1.08,3.57,3.57,0,0,1,.36,1.66,3.71,3.71,0,0,1-.36,1.68,2.54,2.54,0,0,1-1,1.08A3.16,3.16,0,0,1,145.55,77.11Zm0-.87a1.65,1.65,0,0,0,1.31-.57,2.54,2.54,0,0,0,.49-1.69,2.46,2.46,0,0,0-.49-1.68,1.8,1.8,0,0,0-2.63,0,2.51,2.51,0,0,0-.48,1.68,2.6,2.6,0,0,0,.48,1.69A1.66,1.66,0,0,0,145.55,76.24Zm6.52.87a2.17,2.17,0,0,1-1.65-.59,2.61,2.61,0,0,1-.54-1.81V71H151v3.72a1.74,1.74,0,0,0,.32,1.17,1.26,1.26,0,0,0,1,.37,1.57,1.57,0,0,0,1.2-.49A1.89,1.89,0,0,0,154,74.4V71h1.09v6H154V75.67h.16a2.24,2.24,0,0,1-.81,1.07A2.3,2.3,0,0,1,152.07,77.11ZM160.4,77V71.8h-1.17V71h1.47l-.3.28v-1a2.2,2.2,0,0,1,.53-1.6,2,2,0,0,1,1.54-.55,2.89,2.89,0,0,1,.5,0,1.34,1.34,0,0,1,.46.12v.88a1.58,1.58,0,0,0-.36-.09,2.12,2.12,0,0,0-.42,0,1.28,1.28,0,0,0-.63.15.91.91,0,0,0-.39.43,1.67,1.67,0,0,0-.13.73v.85l-.17-.23h1.83v.84H161.5V77Zm6.39.11a3.12,3.12,0,0,1-2.28-.83,3.08,3.08,0,0,1-.83-2.28,3.6,3.6,0,0,1,.36-1.66,2.75,2.75,0,0,1,1-1.09,2.88,2.88,0,0,1,1.51-.39,2.61,2.61,0,0,1,1.41.36,2.22,2.22,0,0,1,.87,1,3.65,3.65,0,0,1,.3,1.54v.36h-4.62v-.65h3.88l-.2.16a2.27,2.27,0,0,0-.42-1.46,1.48,1.48,0,0,0-1.22-.51,1.61,1.61,0,0,0-1.35.61,2.56,2.56,0,0,0-.48,1.64V74a2.33,2.33,0,0,0,.54,1.67,2,2,0,0,0,1.52.56,3.29,3.29,0,0,0,1-.15,3,3,0,0,0,.9-.52l.36.76a2.66,2.66,0,0,1-1,.57A3.79,3.79,0,0,1,166.79,77.11Zm6.54,0a3.12,3.12,0,0,1-2.28-.83,3.08,3.08,0,0,1-.83-2.28,3.6,3.6,0,0,1,.36-1.66,2.75,2.75,0,0,1,1-1.09,2.88,2.88,0,0,1,1.51-.39,2.64,2.64,0,0,1,1.41.36,2.22,2.22,0,0,1,.87,1,3.65,3.65,0,0,1,.3,1.54v.36h-4.62v-.65H175l-.21.16a2.27,2.27,0,0,0-.42-1.46,1.45,1.45,0,0,0-1.21-.51,1.61,1.61,0,0,0-1.35.61,2.56,2.56,0,0,0-.48,1.64V74a2.33,2.33,0,0,0,.54,1.67,2,2,0,0,0,1.52.56,3.29,3.29,0,0,0,1-.15,3,3,0,0,0,.9-.52l.36.76a2.66,2.66,0,0,1-1,.57A3.79,3.79,0,0,1,173.33,77.11Zm3.79-.11V68.17h1.09V77Zm2.74,0V75.67h1.33V77Z" style="fill:#cebdf9"/><path d="M287.38,85.65l.25.41.47-.06a19.21,19.21,0,0,0,16.95-19.08V47.49A27.48,27.48,0,0,0,277.57,20h-1.93a27.48,27.48,0,0,0-27.48,27.48V66.92a2.33,2.33,0,1,1-4.66,0V47.49a32.14,32.14,0,0,1,32.14-32.14h1.93a32.14,32.14,0,0,1,32.14,32.14V66.92a23.87,23.87,0,0,1-21.63,23.76l-.39,0-.19.35a5.4,5.4,0,1,1-.12-5.42Z" style="fill:#ad88fb;stroke:#7444ee;stroke-width:1.5px"/><path d="M308.55,52.78a8.27,8.27,0,0,1,5,1.54,4.31,4.31,0,0,1,1.87,3.36v9.24a4.28,4.28,0,0,1-1.87,3.35,8.21,8.21,0,0,1-5,1.55h-4a8.17,8.17,0,0,1-5-1.55,4.29,4.29,0,0,1-1.88-3.35V57.68a4.32,4.32,0,0,1,1.88-3.36,8.23,8.23,0,0,1,5-1.54Z" style="fill:#7444ee;stroke:#ad88fb;stroke-width:2.5px"/><path d="M248.72,52.78a8.23,8.23,0,0,1,5,1.54,4.29,4.29,0,0,1,1.88,3.36v9.24a4.26,4.26,0,0,1-1.88,3.35,8.17,8.17,0,0,1-5,1.55h-4a8.21,8.21,0,0,1-5-1.55,4.28,4.28,0,0,1-1.87-3.35V57.68a4.31,4.31,0,0,1,1.87-3.36,8.27,8.27,0,0,1,5-1.54Z" style="fill:#7444ee;stroke:#ad88fb;stroke-width:2.5px"/></g></svg>